{
    "asset" : {
        "generator" : "Khronos glTF Blender I/O v1.6.16",
        "version" : "2.0"
    },
    "scene" : 0,
    "scenes" : [
        {
            "name" : "Scene",
            "nodes" : [
                0,
                1,
                2,
                3,
                4,
                5,
                6,
                7,
                8,
                9
            ]
        }
    ],
    "nodes" : [
        {
            "mesh" : 0,
            "name" : "Cube",
            "scale" : [
                1.3342037200927734,
                0.48306360840797424,
                7.440227508544922
            ],
            "translation" : [
                13.540887832641602,
                0.5987088680267334,
                0
            ]
        },
        {
            "mesh" : 1,
            "name" : "\u7acb\u65b9\u4f53",
            "scale" : [
                0.07535212486982346,
                0.18447591364383698,
                0.08243130892515182
            ]
        },
        {
            "mesh" : 2,
            "name" : "leaf",
            "scale" : [
                0.20058850944042206,
                0.20058850944042206,
                0.1251928210258484
            ],
            "translation" : [
                8.068914413452148,
                1.0332634449005127,
                2.0885374546051025
            ]
        },
        {
            "mesh" : 3,
            "name" : "tree",
            "rotation" : [
                0.3919263780117035,
                0.041875552386045456,
                0.5510081648826599,
                -0.7355474829673767
            ],
            "scale" : [
                0.6895928382873535,
                0.453366756439209,
                0.4382646977901459
            ],
            "translation" : [
                13.452675819396973,
                1.6460696458816528,
                5.699753284454346
            ]
        },
        {
            "mesh" : 4,
            "name" : "tree.001",
            "rotation" : [
                -0.6716257333755493,
                0.6245835423469543,
                0.07832742482423782,
                0.390741765499115
            ],
            "scale" : [
                0.6895928382873535,
                0.453366756439209,
                0.4382646977901459
            ],
            "translation" : [
                13.452675819396973,
                1.6460696458816528,
                3.4188363552093506
            ]
        },
        {
            "mesh" : 5,
            "name" : "tree.002",
            "rotation" : [
                -0.6249130964279175,
                0.7073849439620972,
                0.2582632601261139,
                0.20588895678520203
            ],
            "scale" : [
                0.6895928382873535,
                0.453366756439209,
                0.4382646977901459
            ],
            "translation" : [
                13.452675819396973,
                1.6460696458816528,
                1.6367181539535522
            ]
        },
        {
            "mesh" : 6,
            "name" : "tree.003",
            "rotation" : [
                -0.015404722653329372,
                0.47344493865966797,
                0.6760022044181824,
                -0.5644763708114624
            ],
            "scale" : [
                0.6895928382873535,
                0.453366756439209,
                0.4382646977901459
            ],
            "translation" : [
                13.452675819396973,
                1.6460696458816528,
                -0.5956944227218628
            ]
        },
        {
            "mesh" : 7,
            "name" : "tree.004",
            "rotation" : [
                -0.28458040952682495,
                0.659742534160614,
                0.6133761405944824,
                -0.3279076814651489
            ],
            "scale" : [
                0.6895928382873535,
                0.453366756439209,
                0.4382646977901459
            ],
            "translation" : [
                13.452675819396973,
                1.6460696458816528,
                -2.9162654876708984
            ]
        },
        {
            "mesh" : 8,
            "name" : "tree.005",
            "rotation" : [
                -0.6439198851585388,
                0.6882043480873108,
                0.2063576579093933,
                0.2629798948764801
            ],
            "scale" : [
                0.6895928382873535,
                0.453366756439209,
                0.4382646977901459
            ],
            "translation" : [
                13.452675819396973,
                1.6460696458816528,
                -5.409573554992676
            ]
        },
        {
            "mesh" : 9,
            "name" : "\u5e73\u9762",
            "scale" : [
                1,
                1,
                7.082272052764893
            ],
            "translation" : [
                13.530484199523926,
                0.9317096471786499,
                0
            ]
        }
    ],
    "materials" : [
        {
            "doubleSided" : true,
            "name" : "Material",
            "pbrMetallicRoughness" : {
                "baseColorTexture" : {
                    "index" : 0
                },
                "metallicFactor" : 0
            }
        },
        {
            "doubleSided" : true,
            "name" : "\u6750\u8d28.002",
            "pbrMetallicRoughness" : {
                "baseColorFactor" : [
                    0.24175705015659332,
                    0,
                    0.0010562383104115725,
                    1
                ],
                "metallicFactor" : 0,
                "roughnessFactor" : 0.5
            }
        },
        {
            "doubleSided" : true,
            "name" : "\u6750\u8d28.001",
            "pbrMetallicRoughness" : {
                "baseColorFactor" : [
                    0.10114183276891708,
                    0.08003944903612137,
                    0.051244501024484634,
                    1
                ],
                "metallicFactor" : 0
            }
        },
        {
            "doubleSided" : true,
            "name" : "\u6750\u8d28.003",
            "pbrMetallicRoughness" : {
                "baseColorTexture" : {
                    "index" : 1
                },
                "metallicFactor" : 0,
                "roughnessFactor" : 0.5
            }
        }
    ],
    "meshes" : [
        {
            "name" : "Cube",
            "primitives" : [
                {
                    "attributes" : {
                        "POSITION" : 0,
                        "NORMAL" : 1,
                        "TEXCOORD_0" : 2
                    },
                    "indices" : 3,
                    "material" : 0
                }
            ]
        },
        {
            "name" : "\u7acb\u65b9\u4f53",
            "primitives" : [
                {
                    "attributes" : {
                        "POSITION" : 4,
                        "NORMAL" : 5,
                        "TEXCOORD_0" : 6
                    },
                    "indices" : 7
                }
            ]
        },
        {
            "name" : "\u5e73\u9762",
            "primitives" : [
                {
                    "attributes" : {
                        "POSITION" : 8,
                        "NORMAL" : 9,
                        "TEXCOORD_0" : 10
                    },
                    "indices" : 11,
                    "material" : 1
                }
            ]
        },
        {
            "name" : "\u7acb\u65b9\u4f53.005",
            "primitives" : [
                {
                    "attributes" : {
                        "POSITION" : 12,
                        "NORMAL" : 13,
                        "TEXCOORD_0" : 14
                    },
                    "indices" : 15,
                    "material" : 2
                }
            ]
        },
        {
            "name" : "\u7acb\u65b9\u4f53.010",
            "primitives" : [
                {
                    "attributes" : {
                        "POSITION" : 16,
                        "NORMAL" : 17,
                        "TEXCOORD_0" : 18
                    },
                    "indices" : 15,
                    "material" : 2
                }
            ]
        },
        {
            "name" : "\u7acb\u65b9\u4f53.011",
            "primitives" : [
                {
                    "attributes" : {
                        "POSITION" : 19,
                        "NORMAL" : 20,
                        "TEXCOORD_0" : 21
                    },
                    "indices" : 15,
                    "material" : 2
                }
            ]
        },
        {
            "name" : "\u7acb\u65b9\u4f53.012",
            "primitives" : [
                {
                    "attributes" : {
                        "POSITION" : 22,
                        "NORMAL" : 23,
                        "TEXCOORD_0" : 24
                    },
                    "indices" : 15,
                    "material" : 2
                }
            ]
        },
        {
            "name" : "\u7acb\u65b9\u4f53.013",
            "primitives" : [
                {
                    "attributes" : {
                        "POSITION" : 25,
                        "NORMAL" : 26,
                        "TEXCOORD_0" : 27
                    },
                    "indices" : 15,
                    "material" : 2
                }
            ]
        },
        {
            "name" : "\u7acb\u65b9\u4f53.014",
            "primitives" : [
                {
                    "attributes" : {
                        "POSITION" : 28,
                        "NORMAL" : 29,
                        "TEXCOORD_0" : 30
                    },
                    "indices" : 15,
                    "material" : 2
                }
            ]
        },
        {
            "name" : "\u5e73\u9762.002",
            "primitives" : [
                {
                    "attributes" : {
                        "POSITION" : 31,
                        "NORMAL" : 32,
                        "TEXCOORD_0" : 33
                    },
                    "indices" : 34,
                    "material" : 3
                }
            ]
        }
    ],
    "textures" : [
        {
            "sampler" : 0,
            "source" : 0
        },
        {
            "sampler" : 0,
            "source" : 1
        }
    ],
    "images" : [
        {
            "bufferView" : 4,
            "mimeType" : "image/jpeg",
            "name" : "3"
        },
        {
            "bufferView" : 36,
            "mimeType" : "image/jpeg",
            "name" : "5"
        }
    ],
    "accessors" : [
        {
            "bufferView" : 0,
            "componentType" : 5126,
            "count" : 108,
            "max" : [
                1,
                1,
                1
            ],
            "min" : [
                -1,
                -1,
                -1
            ],
            "type" : "VEC3"
        },
        {
            "bufferView" : 1,
            "componentType" : 5126,
            "count" : 108,
            "type" : "VEC3"
        },
        {
            "bufferView" : 2,
            "componentType" : 5126,
            "count" : 108,
            "type" : "VEC2"
        },
        {
            "bufferView" : 3,
            "componentType" : 5123,
            "count" : 204,
            "type" : "SCALAR"
        },
        {
            "bufferView" : 5,
            "componentType" : 5126,
            "count" : 150,
            "max" : [
                1.751288652420044,
                2.09912109375,
                1.1143043041229248
            ],
            "min" : [
                -1.4077060222625732,
                -1,
                -2.1759867668151855
            ],
            "type" : "VEC3"
        },
        {
            "bufferView" : 6,
            "componentType" : 5126,
            "count" : 150,
            "type" : "VEC3"
        },
        {
            "bufferView" : 7,
            "componentType" : 5126,
            "count" : 150,
            "type" : "VEC2"
        },
        {
            "bufferView" : 8,
            "componentType" : 5123,
            "count" : 228,
            "type" : "SCALAR"
        },
        {
            "bufferView" : 9,
            "componentType" : 5126,
            "count" : 19,
            "max" : [
                1.3584669828414917,
                0,
                0.9882012605667114
            ],
            "min" : [
                -1.7894296646118164,
                0,
                -1
            ],
            "type" : "VEC3"
        },
        {
            "bufferView" : 10,
            "componentType" : 5126,
            "count" : 19,
            "type" : "VEC3"
        },
        {
            "bufferView" : 11,
            "componentType" : 5126,
            "count" : 19,
            "type" : "VEC2"
        },
        {
            "bufferView" : 12,
            "componentType" : 5123,
            "count" : 48,
            "type" : "SCALAR"
        },
        {
            "bufferView" : 13,
            "componentType" : 5126,
            "count" : 6849,
            "max" : [
                1.760516881942749,
                3.5422396659851074,
                4.264586448669434
            ],
            "min" : [
                -2.3214592933654785,
                -3.318373680114746,
                -3.204728603363037
            ],
            "type" : "VEC3"
        },
        {
            "bufferView" : 14,
            "componentType" : 5126,
            "count" : 6849,
            "type" : "VEC3"
        },
        {
            "bufferView" : 15,
            "componentType" : 5126,
            "count" : 6849,
            "type" : "VEC2"
        },
        {
            "bufferView" : 16,
            "componentType" : 5123,
            "count" : 32940,
            "type" : "SCALAR"
        },
        {
            "bufferView" : 17,
            "componentType" : 5126,
            "count" : 6849,
            "max" : [
                1.760516881942749,
                3.5422396659851074,
                4.264586448669434
            ],
            "min" : [
                -2.3214592933654785,
                -3.318373680114746,
                -3.204728603363037
            ],
            "type" : "VEC3"
        },
        {
            "bufferView" : 18,
            "componentType" : 5126,
            "count" : 6849,
            "type" : "VEC3"
        },
        {
            "bufferView" : 19,
            "componentType" : 5126,
            "count" : 6849,
            "type" : "VEC2"
        },
        {
            "bufferView" : 20,
            "componentType" : 5126,
            "count" : 6849,
            "max" : [
                1.760516881942749,
                3.5422396659851074,
                4.264586448669434
            ],
            "min" : [
                -2.3214592933654785,
                -3.318373680114746,
                -3.204728603363037
            ],
            "type" : "VEC3"
        },
        {
            "bufferView" : 21,
            "componentType" : 5126,
            "count" : 6849,
            "type" : "VEC3"
        },
        {
            "bufferView" : 22,
            "componentType" : 5126,
            "count" : 6849,
            "type" : "VEC2"
        },
        {
            "bufferView" : 23,
            "componentType" : 5126,
            "count" : 6849,
            "max" : [
                1.760516881942749,
                3.5422396659851074,
                4.264586448669434
            ],
            "min" : [
                -2.3214592933654785,
                -3.318373680114746,
                -3.204728603363037
            ],
            "type" : "VEC3"
        },
        {
            "bufferView" : 24,
            "componentType" : 5126,
            "count" : 6849,
            "type" : "VEC3"
        },
        {
            "bufferView" : 25,
            "componentType" : 5126,
            "count" : 6849,
            "type" : "VEC2"
        },
        {
            "bufferView" : 26,
            "componentType" : 5126,
            "count" : 6849,
            "max" : [
                1.760516881942749,
                3.5422396659851074,
                4.264586448669434
            ],
            "min" : [
                -2.3214592933654785,
                -3.318373680114746,
                -3.204728603363037
            ],
            "type" : "VEC3"
        },
        {
            "bufferView" : 27,
            "componentType" : 5126,
            "count" : 6849,
            "type" : "VEC3"
        },
        {
            "bufferView" : 28,
            "componentType" : 5126,
            "count" : 6849,
            "type" : "VEC2"
        },
        {
            "bufferView" : 29,
            "componentType" : 5126,
            "count" : 6849,
            "max" : [
                1.760516881942749,
                3.5422396659851074,
                4.264586448669434
            ],
            "min" : [
                -2.3214592933654785,
                -3.318373680114746,
                -3.204728603363037
            ],
            "type" : "VEC3"
        },
        {
            "bufferView" : 30,
            "componentType" : 5126,
            "count" : 6849,
            "type" : "VEC3"
        },
        {
            "bufferView" : 31,
            "componentType" : 5126,
            "count" : 6849,
            "type" : "VEC2"
        },
        {
            "bufferView" : 32,
            "componentType" : 5126,
            "count" : 4,
            "max" : [
                1,
                0,
                1
            ],
            "min" : [
                -1,
                0,
                -1
            ],
            "type" : "VEC3"
        },
        {
            "bufferView" : 33,
            "componentType" : 5126,
            "count" : 4,
            "type" : "VEC3"
        },
        {
            "bufferView" : 34,
            "componentType" : 5126,
            "count" : 4,
            "type" : "VEC2"
        },
        {
            "bufferView" : 35,
            "componentType" : 5123,
            "count" : 6,
            "type" : "SCALAR"
        }
    ],
    "bufferViews" : [
        {
            "buffer" : 0,
            "byteLength" : 1296,
            "byteOffset" : 0
        },
        {
            "buffer" : 0,
            "byteLength" : 1296,
            "byteOffset" : 1296
        },
        {
            "buffer" : 0,
            "byteLength" : 864,
            "byteOffset" : 2592
        },
        {
            "buffer" : 0,
            "byteLength" : 408,
            "byteOffset" : 3456
        },
        {
            "buffer" : 0,
            "byteLength" : 24131,
            "byteOffset" : 3864
        },
        {
            "buffer" : 0,
            "byteLength" : 1800,
            "byteOffset" : 27996
        },
        {
            "buffer" : 0,
            "byteLength" : 1800,
            "byteOffset" : 29796
        },
        {
            "buffer" : 0,
            "byteLength" : 1200,
            "byteOffset" : 31596
        },
        {
            "buffer" : 0,
            "byteLength" : 456,
            "byteOffset" : 32796
        },
        {
            "buffer" : 0,
            "byteLength" : 228,
            "byteOffset" : 33252
        },
        {
            "buffer" : 0,
            "byteLength" : 228,
            "byteOffset" : 33480
        },
        {
            "buffer" : 0,
            "byteLength" : 152,
            "byteOffset" : 33708
        },
        {
            "buffer" : 0,
            "byteLength" : 96,
            "byteOffset" : 33860
        },
        {
            "buffer" : 0,
            "byteLength" : 82188,
            "byteOffset" : 33956
        },
        {
            "buffer" : 0,
            "byteLength" : 82188,
            "byteOffset" : 116144
        },
        {
            "buffer" : 0,
            "byteLength" : 54792,
            "byteOffset" : 198332
        },
        {
            "buffer" : 0,
            "byteLength" : 65880,
            "byteOffset" : 253124
        },
        {
            "buffer" : 0,
            "byteLength" : 82188,
            "byteOffset" : 319004
        },
        {
            "buffer" : 0,
            "byteLength" : 82188,
            "byteOffset" : 401192
        },
        {
            "buffer" : 0,
            "byteLength" : 54792,
            "byteOffset" : 483380
        },
        {
            "buffer" : 0,
            "byteLength" : 82188,
            "byteOffset" : 538172
        },
        {
            "buffer" : 0,
            "byteLength" : 82188,
            "byteOffset" : 620360
        },
        {
            "buffer" : 0,
            "byteLength" : 54792,
            "byteOffset" : 702548
        },
        {
            "buffer" : 0,
            "byteLength" : 82188,
            "byteOffset" : 757340
        },
        {
            "buffer" : 0,
            "byteLength" : 82188,
            "byteOffset" : 839528
        },
        {
            "buffer" : 0,
            "byteLength" : 54792,
            "byteOffset" : 921716
        },
        {
            "buffer" : 0,
            "byteLength" : 82188,
            "byteOffset" : 976508
        },
        {
            "buffer" : 0,
            "byteLength" : 82188,
            "byteOffset" : 1058696
        },
        {
            "buffer" : 0,
            "byteLength" : 54792,
            "byteOffset" : 1140884
        },
        {
            "buffer" : 0,
            "byteLength" : 82188,
            "byteOffset" : 1195676
        },
        {
            "buffer" : 0,
            "byteLength" : 82188,
            "byteOffset" : 1277864
        },
        {
            "buffer" : 0,
            "byteLength" : 54792,
            "byteOffset" : 1360052
        },
        {
            "buffer" : 0,
            "byteLength" : 48,
            "byteOffset" : 1414844
        },
        {
            "buffer" : 0,
            "byteLength" : 48,
            "byteOffset" : 1414892
        },
        {
            "buffer" : 0,
            "byteLength" : 32,
            "byteOffset" : 1414940
        },
        {
            "buffer" : 0,
            "byteLength" : 12,
            "byteOffset" : 1414972
        },
        {
            "buffer" : 0,
            "byteLength" : 15059,
            "byteOffset" : 1414984
        }
    ],
    "samplers" : [
        {
            "magFilter" : 9729,
            "minFilter" : 9987
        }
    ],
    "buffers" : [
        {
            "byteLength" : 1430044,
            "uri" : "data:application/octet-stream;base64,"
        }
    ]
}
