{
    "asset" : {
        "generator" : "Khronos glTF Blender I/O v1.6.16",
        "version" : "2.0"
    },
    "scene" : 0,
    "scenes" : [
        {
            "name" : "Scene",
            "nodes" : [
                0,
                1,
                2,
                3,
                4,
                5,
                6,
                7
            ]
        }
    ],
    "nodes" : [
        {
            "mesh" : 0,
            "name" : "\u67f1\u4f53",
            "scale" : [
                1,
                1.1437501907348633,
                1
            ],
            "translation" : [
                0,
                1.3660212755203247,
                0
            ]
        },
        {
            "mesh" : 1,
            "name" : "\u67f1\u4f53.002",
            "rotation" : [
                0,
                0.7071068286895752,
                -0.7071068286895752,
                -1.1520232590100932e-07
            ],
            "scale" : [
                2.540618658065796,
                0.010308862663805485,
                2.540618658065796
            ],
            "translation" : [
                0.13594485819339752,
                2.6056649684906006,
                0
            ]
        },
        {
            "mesh" : 2,
            "name" : "\u67f1\u4f53.001",
            "rotation" : [
                -0.7071068286895752,
                0,
                0,
                -0.7071068286895752
            ],
            "scale" : [
                2.540618658065796,
                0.010308862663805485,
                2.540618658065796
            ],
            "translation" : [
                -0.14008688926696777,
                2.6122896671295166,
                0
            ]
        },
        {
            "mesh" : 3,
            "name" : "\u67f1\u4f53.003",
            "rotation" : [
                0.4999999403953552,
                -0.4999995529651642,
                0.5000000596046448,
                0.5000004768371582
            ],
            "scale" : [
                2.540618658065796,
                0.010308862663805485,
                2.540618658065796
            ],
            "translation" : [
                -0.0007314466056413949,
                2.613025665283203,
                -0.13838395476341248
            ]
        },
        {
            "mesh" : 4,
            "name" : "\u67f1\u4f53.004",
            "rotation" : [
                -0.5000000596046448,
                -0.5000003576278687,
                0.49999991059303284,
                -0.4999997019767761
            ],
            "scale" : [
                2.540618658065796,
                0.010308862663805485,
                2.540618658065796
            ],
            "translation" : [
                -0.00023073969350662082,
                2.613025665283203,
                0.13904985785484314
            ]
        },
        {
            "mesh" : 5,
            "name" : "\u67f1\u4f53.005",
            "scale" : [
                1.6507439613342285,
                0.008474798873066902,
                1.6507439613342285
            ],
            "translation" : [
                0,
                2.7854292392730713,
                0
            ]
        },
        {
            "mesh" : 6,
            "name" : "light",
            "scale" : [
                1.6507439613342285,
                0.008474798873066902,
                1.6507439613342285
            ],
            "translation" : [
                0,
                2.7854292392730713,
                0
            ]
        },
        {
            "mesh" : 7,
            "name" : "\u7acb\u65b9\u4f53",
            "rotation" : [
                1,
                0,
                0,
                -1.6292068494294654e-07
            ],
            "scale" : [
                0.1619342714548111,
                0.1619342714548111,
                0.14751066267490387
            ],
            "translation" : [
                0,
                -0.497568279504776,
                0
            ]
        }
    ],
    "materials" : [
        {
            "doubleSided" : true,
            "name" : "\u6750\u8d28",
            "pbrMetallicRoughness" : {
                "baseColorFactor" : [
                    0.02197989635169506,
                    0.02197989635169506,
                    0.02197989635169506,
                    1
                ],
                "metallicFactor" : 0.2190476357936859,
                "roughnessFactor" : 0.39523810148239136
            }
        },
        {
            "doubleSided" : true,
            "name" : "light",
            "pbrMetallicRoughness" : {
                "baseColorFactor" : [
                    0.3560692369937897,
                    0.34449559450149536,
                    0.27727800607681274,
                    1
                ],
                "metallicFactor" : 0,
                "roughnessFactor" : 0.5
            }
        }
    ],
    "meshes" : [
        {
            "name" : "\u67f1\u4f53",
            "primitives" : [
                {
                    "attributes" : {
                        "POSITION" : 0,
                        "NORMAL" : 1,
                        "TEXCOORD_0" : 2
                    },
                    "indices" : 3,
                    "material" : 0
                }
            ]
        },
        {
            "name" : "\u67f1\u4f53.002",
            "primitives" : [
                {
                    "attributes" : {
                        "POSITION" : 4,
                        "NORMAL" : 5,
                        "TEXCOORD_0" : 6
                    },
                    "indices" : 7,
                    "material" : 0
                }
            ]
        },
        {
            "name" : "\u67f1\u4f53.006",
            "primitives" : [
                {
                    "attributes" : {
                        "POSITION" : 8,
                        "NORMAL" : 9,
                        "TEXCOORD_0" : 10
                    },
                    "indices" : 7,
                    "material" : 0
                }
            ]
        },
        {
            "name" : "\u67f1\u4f53.007",
            "primitives" : [
                {
                    "attributes" : {
                        "POSITION" : 11,
                        "NORMAL" : 12,
                        "TEXCOORD_0" : 13
                    },
                    "indices" : 7,
                    "material" : 0
                }
            ]
        },
        {
            "name" : "\u67f1\u4f53.008",
            "primitives" : [
                {
                    "attributes" : {
                        "POSITION" : 14,
                        "NORMAL" : 15,
                        "TEXCOORD_0" : 16
                    },
                    "indices" : 7,
                    "material" : 0
                }
            ]
        },
        {
            "name" : "\u67f1\u4f53.009",
            "primitives" : [
                {
                    "attributes" : {
                        "POSITION" : 17,
                        "NORMAL" : 18,
                        "TEXCOORD_0" : 19
                    },
                    "indices" : 20,
                    "material" : 0
                }
            ]
        },
        {
            "name" : "\u67f1\u4f53.010",
            "primitives" : [
                {
                    "attributes" : {
                        "POSITION" : 21,
                        "NORMAL" : 22,
                        "TEXCOORD_0" : 23
                    },
                    "indices" : 24,
                    "material" : 1
                }
            ]
        },
        {
            "name" : "\u7acb\u65b9\u4f53",
            "primitives" : [
                {
                    "attributes" : {
                        "POSITION" : 25,
                        "NORMAL" : 26,
                        "TEXCOORD_0" : 27
                    },
                    "indices" : 28,
                    "material" : 0
                }
            ]
        }
    ],
    "accessors" : [
        {
            "bufferView" : 0,
            "componentType" : 5126,
            "count" : 1978,
            "max" : [
                0.15827533602714539,
                1.1288630962371826,
                0.1582755148410797
            ],
            "min" : [
                -0.1582755148410797,
                -1.4967578649520874,
                -0.15827538073062897
            ],
            "type" : "VEC3"
        },
        {
            "bufferView" : 1,
            "componentType" : 5126,
            "count" : 1978,
            "type" : "VEC3"
        },
        {
            "bufferView" : 2,
            "componentType" : 5126,
            "count" : 1978,
            "type" : "VEC2"
        },
        {
            "bufferView" : 3,
            "componentType" : 5123,
            "count" : 11124,
            "type" : "SCALAR"
        },
        {
            "bufferView" : 4,
            "componentType" : 5126,
            "count" : 248,
            "max" : [
                0.05000000074505806,
                1.8569257259368896,
                -2.8715847477656098e-09
            ],
            "min" : [
                0.0011663464829325676,
                -1.8569259643554688,
                -0.06428992748260498
            ],
            "type" : "VEC3"
        },
        {
            "bufferView" : 5,
            "componentType" : 5126,
            "count" : 248,
            "type" : "VEC3"
        },
        {
            "bufferView" : 6,
            "componentType" : 5126,
            "count" : 248,
            "type" : "VEC2"
        },
        {
            "bufferView" : 7,
            "componentType" : 5123,
            "count" : 390,
            "type" : "SCALAR"
        },
        {
            "bufferView" : 8,
            "componentType" : 5126,
            "count" : 248,
            "max" : [
                0.05000000074505806,
                1.8569257259368896,
                -2.8715847477656098e-09
            ],
            "min" : [
                0.0011663464829325676,
                -1.8569259643554688,
                -0.06428992748260498
            ],
            "type" : "VEC3"
        },
        {
            "bufferView" : 9,
            "componentType" : 5126,
            "count" : 248,
            "type" : "VEC3"
        },
        {
            "bufferView" : 10,
            "componentType" : 5126,
            "count" : 248,
            "type" : "VEC2"
        },
        {
            "bufferView" : 11,
            "componentType" : 5126,
            "count" : 248,
            "max" : [
                0.05000000074505806,
                1.8569257259368896,
                -2.8715847477656098e-09
            ],
            "min" : [
                0.0011663464829325676,
                -1.8569259643554688,
                -0.06428992748260498
            ],
            "type" : "VEC3"
        },
        {
            "bufferView" : 12,
            "componentType" : 5126,
            "count" : 248,
            "type" : "VEC3"
        },
        {
            "bufferView" : 13,
            "componentType" : 5126,
            "count" : 248,
            "type" : "VEC2"
        },
        {
            "bufferView" : 14,
            "componentType" : 5126,
            "count" : 248,
            "max" : [
                0.05000000074505806,
                1.8569257259368896,
                -2.8715847477656098e-09
            ],
            "min" : [
                0.0011663464829325676,
                -1.8569259643554688,
                -0.06428992748260498
            ],
            "type" : "VEC3"
        },
        {
            "bufferView" : 15,
            "componentType" : 5126,
            "count" : 248,
            "type" : "VEC3"
        },
        {
            "bufferView" : 16,
            "componentType" : 5126,
            "count" : 248,
            "type" : "VEC2"
        },
        {
            "bufferView" : 17,
            "componentType" : 5126,
            "count" : 1105,
            "max" : [
                0.1435033231973648,
                89.1439208984375,
                0.143503338098526
            ],
            "min" : [
                -0.14350329339504242,
                -1,
                -0.14350327849388123
            ],
            "type" : "VEC3"
        },
        {
            "bufferView" : 18,
            "componentType" : 5126,
            "count" : 1105,
            "type" : "VEC3"
        },
        {
            "bufferView" : 19,
            "componentType" : 5126,
            "count" : 1105,
            "type" : "VEC2"
        },
        {
            "bufferView" : 20,
            "componentType" : 5123,
            "count" : 5844,
            "type" : "SCALAR"
        },
        {
            "bufferView" : 21,
            "componentType" : 5126,
            "count" : 66,
            "max" : [
                0.11503119766712189,
                37.995155334472656,
                0.11503119766712189
            ],
            "min" : [
                -0.11503119021654129,
                1.8079842329025269,
                -0.11503119021654129
            ],
            "type" : "VEC3"
        },
        {
            "bufferView" : 22,
            "componentType" : 5126,
            "count" : 66,
            "type" : "VEC3"
        },
        {
            "bufferView" : 23,
            "componentType" : 5126,
            "count" : 66,
            "type" : "VEC2"
        },
        {
            "bufferView" : 24,
            "componentType" : 5123,
            "count" : 192,
            "type" : "SCALAR"
        },
        {
            "bufferView" : 25,
            "componentType" : 5126,
            "count" : 70,
            "max" : [
                1.0615293979644775,
                0.38945943117141724,
                1.2730706930160522
            ],
            "min" : [
                -1.0615293979644775,
                -0.9333975315093994,
                -1.2730712890625
            ],
            "type" : "VEC3"
        },
        {
            "bufferView" : 26,
            "componentType" : 5126,
            "count" : 70,
            "type" : "VEC3"
        },
        {
            "bufferView" : 27,
            "componentType" : 5126,
            "count" : 70,
            "type" : "VEC2"
        },
        {
            "bufferView" : 28,
            "componentType" : 5123,
            "count" : 348,
            "type" : "SCALAR"
        }
    ],
    "bufferViews" : [
        {
            "buffer" : 0,
            "byteLength" : 23736,
            "byteOffset" : 0
        },
        {
            "buffer" : 0,
            "byteLength" : 23736,
            "byteOffset" : 23736
        },
        {
            "buffer" : 0,
            "byteLength" : 15824,
            "byteOffset" : 47472
        },
        {
            "buffer" : 0,
            "byteLength" : 22248,
            "byteOffset" : 63296
        },
        {
            "buffer" : 0,
            "byteLength" : 2976,
            "byteOffset" : 85544
        },
        {
            "buffer" : 0,
            "byteLength" : 2976,
            "byteOffset" : 88520
        },
        {
            "buffer" : 0,
            "byteLength" : 1984,
            "byteOffset" : 91496
        },
        {
            "buffer" : 0,
            "byteLength" : 780,
            "byteOffset" : 93480
        },
        {
            "buffer" : 0,
            "byteLength" : 2976,
            "byteOffset" : 94260
        },
        {
            "buffer" : 0,
            "byteLength" : 2976,
            "byteOffset" : 97236
        },
        {
            "buffer" : 0,
            "byteLength" : 1984,
            "byteOffset" : 100212
        },
        {
            "buffer" : 0,
            "byteLength" : 2976,
            "byteOffset" : 102196
        },
        {
            "buffer" : 0,
            "byteLength" : 2976,
            "byteOffset" : 105172
        },
        {
            "buffer" : 0,
            "byteLength" : 1984,
            "byteOffset" : 108148
        },
        {
            "buffer" : 0,
            "byteLength" : 2976,
            "byteOffset" : 110132
        },
        {
            "buffer" : 0,
            "byteLength" : 2976,
            "byteOffset" : 113108
        },
        {
            "buffer" : 0,
            "byteLength" : 1984,
            "byteOffset" : 116084
        },
        {
            "buffer" : 0,
            "byteLength" : 13260,
            "byteOffset" : 118068
        },
        {
            "buffer" : 0,
            "byteLength" : 13260,
            "byteOffset" : 131328
        },
        {
            "buffer" : 0,
            "byteLength" : 8840,
            "byteOffset" : 144588
        },
        {
            "buffer" : 0,
            "byteLength" : 11688,
            "byteOffset" : 153428
        },
        {
            "buffer" : 0,
            "byteLength" : 792,
            "byteOffset" : 165116
        },
        {
            "buffer" : 0,
            "byteLength" : 792,
            "byteOffset" : 165908
        },
        {
            "buffer" : 0,
            "byteLength" : 528,
            "byteOffset" : 166700
        },
        {
            "buffer" : 0,
            "byteLength" : 384,
            "byteOffset" : 167228
        },
        {
            "buffer" : 0,
            "byteLength" : 840,
            "byteOffset" : 167612
        },
        {
            "buffer" : 0,
            "byteLength" : 840,
            "byteOffset" : 168452
        },
        {
            "buffer" : 0,
            "byteLength" : 560,
            "byteOffset" : 169292
        },
        {
            "buffer" : 0,
            "byteLength" : 696,
            "byteOffset" : 169852
        }
    ],
    "buffers" : [
        {
            "byteLength" : 170548,
            "uri" : "data:application/octet-stream;base64,"
        }
    ]
}
