{
    "asset" : {
        "generator" : "Khronos glTF Blender I/O v1.6.16",
        "version" : "2.0"
    },
    "extensionsUsed" : [
        "KHR_materials_clearcoat"
    ],
    "scene" : 0,
    "scenes" : [
        {
            "name" : "Scene",
            "nodes" : [
                0,
                1,
                2,
                3,
                4,
                5,
                6
            ]
        }
    ],
    "nodes" : [
        {
            "mesh" : 0,
            "name" : "Cube",
            "scale" : [
                0.28629523515701294,
                -5.669992923736572,
                0.28629523515701294
            ],
            "translation" : [
                0,
                5.545305252075195,
                0
            ]
        },
        {
            "mesh" : 1,
            "name" : "Cube.001",
            "scale" : [
                0.09117051959037781,
                -3.546215057373047,
                0.09117051959037781
            ],
            "translation" : [
                0,
                12.578186988830566,
                -0.3586120903491974
            ]
        },
        {
            "mesh" : 2,
            "name" : "Cube.002",
            "scale" : [
                0.09117051959037781,
                -3.546215057373047,
                0.09117051959037781
            ],
            "translation" : [
                0,
                12.578186988830566,
                0.36629268527030945
            ]
        },
        {
            "mesh" : 3,
            "name" : "Cube.003",
            "scale" : [
                0.24230676889419556,
                -0.8821017742156982,
                0.24230676889419556
            ],
            "translation" : [
                0,
                12.514254570007324,
                -0.0005439296364784241
            ]
        },
        {
            "mesh" : 4,
            "name" : "Cube.004",
            "scale" : [
                0.5423584580421448,
                -0.5024684071540833,
                0.3808925151824951
            ],
            "translation" : [
                0,
                14.165573120117188,
                -0.820950448513031
            ]
        },
        {
            "mesh" : 5,
            "name" : "Cube.005",
            "rotation" : [
                0,
                1,
                0,
                -1.6292068494294654e-07
            ],
            "scale" : [
                0.5423584580421448,
                -0.5024684071540833,
                0.3808925151824951
            ],
            "translation" : [
                0,
                14.165573120117188,
                0.8234572410583496
            ]
        },
        {
            "mesh" : 6,
            "name" : "\u67f1\u4f53",
            "rotation" : [
                0,
                0,
                -0.7068477869033813,
                0.7073656916618347
            ],
            "scale" : [
                2.2440078258514404,
                1.2760332822799683,
                2.8619134426116943
            ],
            "translation" : [
                0,
                18.219776153564453,
                0
            ]
        }
    ],
    "materials" : [
        {
            "doubleSided" : true,
            "extensions" : {
                "KHR_materials_clearcoat" : {
                    "clearcoatFactor" : 0.13725490868091583,
                    "clearcoatRoughnessFactor" : 0.029999999329447746
                }
            },
            "name" : "1",
            "pbrMetallicRoughness" : {
                "baseColorFactor" : [
                    1,
                    0.9751604199409485,
                    0.9028164148330688,
                    1
                ],
                "metallicFactor" : 0.3235294222831726,
                "roughnessFactor" : 0.3705882430076599
            }
        },
        {
            "doubleSided" : true,
            "name" : "2",
            "pbrMetallicRoughness" : {
                "baseColorFactor" : [
                    0.20389722287654877,
                    0.20389722287654877,
                    0.20389722287654877,
                    1
                ],
                "metallicFactor" : 0,
                "roughnessFactor" : 0.5
            }
        },
        {
            "doubleSided" : true,
            "name" : "3",
            "pbrMetallicRoughness" : {
                "baseColorFactor" : [
                    0.6189972758293152,
                    0.6145291328430176,
                    0.4771389365196228,
                    1
                ],
                "metallicFactor" : 0,
                "roughnessFactor" : 0.5
            }
        }
    ],
    "meshes" : [
        {
            "name" : "Cube",
            "primitives" : [
                {
                    "attributes" : {
                        "POSITION" : 0,
                        "NORMAL" : 1,
                        "TEXCOORD_0" : 2
                    },
                    "indices" : 3,
                    "material" : 0
                }
            ]
        },
        {
            "name" : "Cube.001",
            "primitives" : [
                {
                    "attributes" : {
                        "POSITION" : 4,
                        "NORMAL" : 5,
                        "TEXCOORD_0" : 6
                    },
                    "indices" : 3,
                    "material" : 0
                }
            ]
        },
        {
            "name" : "Cube.002",
            "primitives" : [
                {
                    "attributes" : {
                        "POSITION" : 7,
                        "NORMAL" : 8,
                        "TEXCOORD_0" : 9
                    },
                    "indices" : 3,
                    "material" : 0
                }
            ]
        },
        {
            "name" : "Cube.003",
            "primitives" : [
                {
                    "attributes" : {
                        "POSITION" : 10,
                        "NORMAL" : 11,
                        "TEXCOORD_0" : 12
                    },
                    "indices" : 13,
                    "material" : 1
                }
            ]
        },
        {
            "name" : "Cube.004",
            "primitives" : [
                {
                    "attributes" : {
                        "POSITION" : 14,
                        "NORMAL" : 15,
                        "TEXCOORD_0" : 16
                    },
                    "indices" : 17,
                    "material" : 1
                }
            ]
        },
        {
            "name" : "Cube.005",
            "primitives" : [
                {
                    "attributes" : {
                        "POSITION" : 18,
                        "NORMAL" : 19,
                        "TEXCOORD_0" : 20
                    },
                    "indices" : 17,
                    "material" : 1
                }
            ]
        },
        {
            "name" : "\u67f1\u4f53",
            "primitives" : [
                {
                    "attributes" : {
                        "POSITION" : 21,
                        "NORMAL" : 22,
                        "TEXCOORD_0" : 23
                    },
                    "indices" : 24,
                    "material" : 2
                }
            ]
        }
    ],
    "accessors" : [
        {
            "bufferView" : 0,
            "componentType" : 5126,
            "count" : 24,
            "max" : [
                1,
                1,
                1
            ],
            "min" : [
                -1,
                -1,
                -1
            ],
            "type" : "VEC3"
        },
        {
            "bufferView" : 1,
            "componentType" : 5126,
            "count" : 24,
            "type" : "VEC3"
        },
        {
            "bufferView" : 2,
            "componentType" : 5126,
            "count" : 24,
            "type" : "VEC2"
        },
        {
            "bufferView" : 3,
            "componentType" : 5123,
            "count" : 36,
            "type" : "SCALAR"
        },
        {
            "bufferView" : 4,
            "componentType" : 5126,
            "count" : 24,
            "max" : [
                1,
                1,
                1
            ],
            "min" : [
                -1,
                -1,
                -1
            ],
            "type" : "VEC3"
        },
        {
            "bufferView" : 5,
            "componentType" : 5126,
            "count" : 24,
            "type" : "VEC3"
        },
        {
            "bufferView" : 6,
            "componentType" : 5126,
            "count" : 24,
            "type" : "VEC2"
        },
        {
            "bufferView" : 7,
            "componentType" : 5126,
            "count" : 24,
            "max" : [
                1,
                1,
                1
            ],
            "min" : [
                -1,
                -1,
                -1
            ],
            "type" : "VEC3"
        },
        {
            "bufferView" : 8,
            "componentType" : 5126,
            "count" : 24,
            "type" : "VEC3"
        },
        {
            "bufferView" : 9,
            "componentType" : 5126,
            "count" : 24,
            "type" : "VEC2"
        },
        {
            "bufferView" : 10,
            "componentType" : 5126,
            "count" : 82,
            "max" : [
                1.1203107833862305,
                1.0596275329589844,
                1.1203107833862305
            ],
            "min" : [
                -1.1203107833862305,
                -1.0626431703567505,
                -1.1203107833862305
            ],
            "type" : "VEC3"
        },
        {
            "bufferView" : 11,
            "componentType" : 5126,
            "count" : 82,
            "type" : "VEC3"
        },
        {
            "bufferView" : 12,
            "componentType" : 5126,
            "count" : 82,
            "type" : "VEC2"
        },
        {
            "bufferView" : 13,
            "componentType" : 5123,
            "count" : 132,
            "type" : "SCALAR"
        },
        {
            "bufferView" : 14,
            "componentType" : 5126,
            "count" : 56,
            "max" : [
                1.0355613231658936,
                1,
                1.0516269207000732
            ],
            "min" : [
                -1.0355613231658936,
                -1.1361806392669678,
                -1.9551680088043213
            ],
            "type" : "VEC3"
        },
        {
            "bufferView" : 15,
            "componentType" : 5126,
            "count" : 56,
            "type" : "VEC3"
        },
        {
            "bufferView" : 16,
            "componentType" : 5126,
            "count" : 56,
            "type" : "VEC2"
        },
        {
            "bufferView" : 17,
            "componentType" : 5123,
            "count" : 84,
            "type" : "SCALAR"
        },
        {
            "bufferView" : 18,
            "componentType" : 5126,
            "count" : 56,
            "max" : [
                1.0745723247528076,
                1,
                1.1082617044448853
            ],
            "min" : [
                -1.0745723247528076,
                -1.1401768922805786,
                -2.0118026733398438
            ],
            "type" : "VEC3"
        },
        {
            "bufferView" : 19,
            "componentType" : 5126,
            "count" : 56,
            "type" : "VEC3"
        },
        {
            "bufferView" : 20,
            "componentType" : 5126,
            "count" : 56,
            "type" : "VEC2"
        },
        {
            "bufferView" : 21,
            "componentType" : 5126,
            "count" : 152,
            "max" : [
                1,
                1,
                0.8314696550369263
            ],
            "min" : [
                0.5125081539154053,
                -1,
                -0.8314695954322815
            ],
            "type" : "VEC3"
        },
        {
            "bufferView" : 22,
            "componentType" : 5126,
            "count" : 152,
            "type" : "VEC3"
        },
        {
            "bufferView" : 23,
            "componentType" : 5126,
            "count" : 152,
            "type" : "VEC2"
        },
        {
            "bufferView" : 24,
            "componentType" : 5123,
            "count" : 252,
            "type" : "SCALAR"
        }
    ],
    "bufferViews" : [
        {
            "buffer" : 0,
            "byteLength" : 288,
            "byteOffset" : 0
        },
        {
            "buffer" : 0,
            "byteLength" : 288,
            "byteOffset" : 288
        },
        {
            "buffer" : 0,
            "byteLength" : 192,
            "byteOffset" : 576
        },
        {
            "buffer" : 0,
            "byteLength" : 72,
            "byteOffset" : 768
        },
        {
            "buffer" : 0,
            "byteLength" : 288,
            "byteOffset" : 840
        },
        {
            "buffer" : 0,
            "byteLength" : 288,
            "byteOffset" : 1128
        },
        {
            "buffer" : 0,
            "byteLength" : 192,
            "byteOffset" : 1416
        },
        {
            "buffer" : 0,
            "byteLength" : 288,
            "byteOffset" : 1608
        },
        {
            "buffer" : 0,
            "byteLength" : 288,
            "byteOffset" : 1896
        },
        {
            "buffer" : 0,
            "byteLength" : 192,
            "byteOffset" : 2184
        },
        {
            "buffer" : 0,
            "byteLength" : 984,
            "byteOffset" : 2376
        },
        {
            "buffer" : 0,
            "byteLength" : 984,
            "byteOffset" : 3360
        },
        {
            "buffer" : 0,
            "byteLength" : 656,
            "byteOffset" : 4344
        },
        {
            "buffer" : 0,
            "byteLength" : 264,
            "byteOffset" : 5000
        },
        {
            "buffer" : 0,
            "byteLength" : 672,
            "byteOffset" : 5264
        },
        {
            "buffer" : 0,
            "byteLength" : 672,
            "byteOffset" : 5936
        },
        {
            "buffer" : 0,
            "byteLength" : 448,
            "byteOffset" : 6608
        },
        {
            "buffer" : 0,
            "byteLength" : 168,
            "byteOffset" : 7056
        },
        {
            "buffer" : 0,
            "byteLength" : 672,
            "byteOffset" : 7224
        },
        {
            "buffer" : 0,
            "byteLength" : 672,
            "byteOffset" : 7896
        },
        {
            "buffer" : 0,
            "byteLength" : 448,
            "byteOffset" : 8568
        },
        {
            "buffer" : 0,
            "byteLength" : 1824,
            "byteOffset" : 9016
        },
        {
            "buffer" : 0,
            "byteLength" : 1824,
            "byteOffset" : 10840
        },
        {
            "buffer" : 0,
            "byteLength" : 1216,
            "byteOffset" : 12664
        },
        {
            "buffer" : 0,
            "byteLength" : 504,
            "byteOffset" : 13880
        }
    ],
    "buffers" : [
        {
            "byteLength" : 14384,
            "uri" : "data:application/octet-stream;base64,"
        }
    ]
}
