{
    "asset" : {
        "generator" : "Khronos glTF Blender I/O v1.6.16",
        "version" : "2.0"
    },
    "scene" : 0,
    "scenes" : [
        {
            "name" : "Scene",
            "nodes" : [
                0,
                1
            ]
        }
    ],
    "nodes" : [
        {
            "mesh" : 0,
            "name" : "\u67f1\u4f53",
            "rotation" : [
                0,
                0.4303331673145294,
                0,
                0.90267014503479
            ],
            "scale" : [
                0.07732515037059784,
                0.8454751968383789,
                0.07732515037059784
            ],
            "translation" : [
                0,
                0.8423166871070862,
                0
            ]
        },
        {
            "mesh" : 1,
            "name" : "\u67f1\u4f53.001",
            "scale" : [
                0.07732515037059784,
                0.8454751968383789,
                0.07732515037059784
            ],
            "translation" : [
                0,
                0.8423166871070862,
                0
            ]
        }
    ],
    "materials" : [
        {
            "doubleSided" : true,
            "name" : "\u6750\u8d28.001",
            "pbrMetallicRoughness" : {
                "baseColorFactor" : [
                    0.007193859200924635,
                    0.007193859200924635,
                    0.007193859200924635,
                    1
                ],
                "metallicFactor" : 0,
                "roughnessFactor" : 0.747619092464447
            }
        },
        {
            "doubleSided" : true,
            "name" : "\u6750\u8d28",
            "pbrMetallicRoughness" : {
                "baseColorFactor" : [
                    0.9873628616333008,
                    1,
                    0.6091552972793579,
                    1
                ],
                "metallicFactor" : 0,
                "roughnessFactor" : 0.7285714149475098
            }
        }
    ],
    "meshes" : [
        {
            "name" : "\u67f1\u4f53",
            "primitives" : [
                {
                    "attributes" : {
                        "POSITION" : 0,
                        "NORMAL" : 1,
                        "TEXCOORD_0" : 2
                    },
                    "indices" : 3,
                    "material" : 0
                }
            ]
        },
        {
            "name" : "\u67f1\u4f53.001",
            "primitives" : [
                {
                    "attributes" : {
                        "POSITION" : 4,
                        "NORMAL" : 5,
                        "TEXCOORD_0" : 6
                    },
                    "indices" : 7,
                    "material" : 1
                }
            ]
        }
    ],
    "accessors" : [
        {
            "bufferView" : 0,
            "componentType" : 5126,
            "count" : 2116,
            "max" : [
                5.1348347663879395,
                5.435731887817383,
                5.134840965270996
            ],
            "min" : [
                -5.134843349456787,
                -1,
                -5.134837627410889
            ],
            "type" : "VEC3"
        },
        {
            "bufferView" : 1,
            "componentType" : 5126,
            "count" : 2116,
            "type" : "VEC3"
        },
        {
            "bufferView" : 2,
            "componentType" : 5126,
            "count" : 2116,
            "type" : "VEC2"
        },
        {
            "bufferView" : 3,
            "componentType" : 5123,
            "count" : 3276,
            "type" : "SCALAR"
        },
        {
            "bufferView" : 4,
            "componentType" : 5126,
            "count" : 128,
            "max" : [
                4.131180286407471,
                5.3585205078125,
                4.131186008453369
            ],
            "min" : [
                -4.131188869476318,
                4.74286413192749,
                -4.131183624267578
            ],
            "type" : "VEC3"
        },
        {
            "bufferView" : 5,
            "componentType" : 5126,
            "count" : 128,
            "type" : "VEC3"
        },
        {
            "bufferView" : 6,
            "componentType" : 5126,
            "count" : 128,
            "type" : "VEC2"
        },
        {
            "bufferView" : 7,
            "componentType" : 5123,
            "count" : 192,
            "type" : "SCALAR"
        }
    ],
    "bufferViews" : [
        {
            "buffer" : 0,
            "byteLength" : 25392,
            "byteOffset" : 0
        },
        {
            "buffer" : 0,
            "byteLength" : 25392,
            "byteOffset" : 25392
        },
        {
            "buffer" : 0,
            "byteLength" : 16928,
            "byteOffset" : 50784
        },
        {
            "buffer" : 0,
            "byteLength" : 6552,
            "byteOffset" : 67712
        },
        {
            "buffer" : 0,
            "byteLength" : 1536,
            "byteOffset" : 74264
        },
        {
            "buffer" : 0,
            "byteLength" : 1536,
            "byteOffset" : 75800
        },
        {
            "buffer" : 0,
            "byteLength" : 1024,
            "byteOffset" : 77336
        },
        {
            "buffer" : 0,
            "byteLength" : 384,
            "byteOffset" : 78360
        }
    ],
    "buffers" : [
        {
            "byteLength" : 78744,
            "uri" : "data:application/octet-stream;base64,"
        }
    ]
}
