{
    "asset" : {
        "generator" : "Khronos glTF Blender I/O v1.6.16",
        "version" : "2.0"
    },
    "scene" : 0,
    "scenes" : [
        {
            "name" : "Scene",
            "nodes" : [
                0,
                1,
                2,
                3,
                4,
                5,
                6,
                7,
                8,
                9
            ]
        }
    ],
    "nodes" : [
        {
            "mesh" : 0,
            "name" : "Cube",
            "scale" : [
                0.21935364603996277,
                0.052107106894254684,
                0.21935364603996277
            ],
            "translation" : [
                0,
                0.051727890968322754,
                0
            ]
        },
        {
            "mesh" : 1,
            "name" : "\u67f1\u4f53",
            "scale" : [
                0.08261020481586456,
                -3.4586434364318848,
                0.08261020481586456
            ],
            "translation" : [
                0,
                3.439919948577881,
                0
            ]
        },
        {
            "mesh" : 2,
            "name" : "\u67f1\u4f53.001",
            "rotation" : [
                0.5846796631813049,
                0,
                0,
                0.8112642765045166
            ],
            "scale" : [
                0.023052019998431206,
                0.46636098623275757,
                0.022868866100907326
            ],
            "translation" : [
                -0.07747973501682281,
                6.32865571975708,
                0.24678397178649902
            ]
        },
        {
            "mesh" : 3,
            "name" : "\u67f1\u4f53.002",
            "rotation" : [
                0.5846796631813049,
                0,
                0,
                0.8112642765045166
            ],
            "scale" : [
                0.023052019998431206,
                0.46636098623275757,
                0.022868866100907326
            ],
            "translation" : [
                0.07747973501682281,
                6.32865571975708,
                0.24678397178649902
            ]
        },
        {
            "mesh" : 4,
            "name" : "\u67f1\u4f53.003",
            "rotation" : [
                0.005827613174915314,
                0.002494286047294736,
                -0.7056930065155029,
                0.7084894776344299
            ],
            "scale" : [
                0.011883450672030449,
                0.09184487909078598,
                0.011276718229055405
            ],
            "translation" : [
                0.0027500614523887634,
                6.267428874969482,
                0.06333208084106445
            ]
        },
        {
            "mesh" : 5,
            "name" : "\u67f1\u4f53.004",
            "rotation" : [
                -0.1637461632490158,
                0,
                0,
                0.9865025281906128
            ],
            "scale" : [
                0.11365223675966263,
                0.041575685143470764,
                0.281697541475296
            ],
            "translation" : [
                0,
                6.62040376663208,
                1.0425021648406982
            ]
        },
        {
            "mesh" : 6,
            "name" : "\u67f1\u4f53.005",
            "rotation" : [
                0.005827613174915314,
                0.002494286047294736,
                -0.7056930065155029,
                0.7084894776344299
            ],
            "scale" : [
                0.011883450672030449,
                0.09184487909078598,
                0.011276718229055405
            ],
            "translation" : [
                0.0027500614523887634,
                6.474239826202393,
                0.6715708374977112
            ]
        },
        {
            "mesh" : 7,
            "name" : "\u67f1\u4f53.006",
            "rotation" : [
                -0.5837486386299133,
                0.3934394121170044,
                -0.5925242900848389,
                0.39160940051078796
            ],
            "scale" : [
                0.011883450672030449,
                0.09184487909078598,
                0.011276718229055405
            ],
            "translation" : [
                0.0027500614523887634,
                6.506999492645264,
                0.7618163824081421
            ]
        },
        {
            "mesh" : 8,
            "name" : "\u67f1\u4f53.007",
            "rotation" : [
                -0.1637461632490158,
                0,
                0,
                0.9865025281906128
            ],
            "scale" : [
                0.08835019171237946,
                0.021102003753185272,
                0.22131997346878052
            ],
            "translation" : [
                0,
                6.5791215896606445,
                1.065119743347168
            ]
        },
        {
            "mesh" : 9,
            "name" : "\u67f1\u4f53.008",
            "rotation" : [
                -0.35696038603782654,
                0.6110041737556458,
                -0.36407899856567383,
                0.6055573225021362
            ],
            "scale" : [
                0.01076931320130825,
                0.366824209690094,
                0.007902024313807487
            ],
            "translation" : [
                0.0027500614523887634,
                6.658336162567139,
                0.3418554663658142
            ]
        }
    ],
    "materials" : [
        {
            "doubleSided" : true,
            "name" : "Material",
            "pbrMetallicRoughness" : {
                "baseColorFactor" : [
                    0.11493704468011856,
                    0.11493704468011856,
                    0.11493704468011856,
                    1
                ],
                "metallicFactor" : 0
            }
        },
        {
            "doubleSided" : true,
            "name" : "\u6750\u8d28",
            "pbrMetallicRoughness" : {
                "baseColorFactor" : [
                    0.43232226371765137,
                    0.43232226371765137,
                    0.43232226371765137,
                    1
                ],
                "metallicFactor" : 0,
                "roughnessFactor" : 0.4809523820877075
            }
        },
        {
            "doubleSided" : true,
            "name" : "\u6750\u8d28.001",
            "pbrMetallicRoughness" : {
                "baseColorFactor" : [
                    0.8000000715255737,
                    0.720936119556427,
                    0.4170573055744171,
                    1
                ],
                "metallicFactor" : 0,
                "roughnessFactor" : 0.5
            }
        }
    ],
    "meshes" : [
        {
            "name" : "Cube",
            "primitives" : [
                {
                    "attributes" : {
                        "POSITION" : 0,
                        "NORMAL" : 1,
                        "TEXCOORD_0" : 2
                    },
                    "indices" : 3,
                    "material" : 0
                }
            ]
        },
        {
            "name" : "\u67f1\u4f53",
            "primitives" : [
                {
                    "attributes" : {
                        "POSITION" : 4,
                        "NORMAL" : 5,
                        "TEXCOORD_0" : 6
                    },
                    "indices" : 7,
                    "material" : 1
                }
            ]
        },
        {
            "name" : "\u67f1\u4f53.002",
            "primitives" : [
                {
                    "attributes" : {
                        "POSITION" : 8,
                        "NORMAL" : 9,
                        "TEXCOORD_0" : 10
                    },
                    "indices" : 7,
                    "material" : 1
                }
            ]
        },
        {
            "name" : "\u67f1\u4f53.003",
            "primitives" : [
                {
                    "attributes" : {
                        "POSITION" : 11,
                        "NORMAL" : 12,
                        "TEXCOORD_0" : 13
                    },
                    "indices" : 7,
                    "material" : 1
                }
            ]
        },
        {
            "name" : "\u67f1\u4f53.004",
            "primitives" : [
                {
                    "attributes" : {
                        "POSITION" : 14,
                        "NORMAL" : 15,
                        "TEXCOORD_0" : 16
                    },
                    "indices" : 7,
                    "material" : 1
                }
            ]
        },
        {
            "name" : "\u67f1\u4f53.005",
            "primitives" : [
                {
                    "attributes" : {
                        "POSITION" : 17,
                        "NORMAL" : 18,
                        "TEXCOORD_0" : 19
                    },
                    "indices" : 7,
                    "material" : 1
                }
            ]
        },
        {
            "name" : "\u67f1\u4f53.006",
            "primitives" : [
                {
                    "attributes" : {
                        "POSITION" : 20,
                        "NORMAL" : 21,
                        "TEXCOORD_0" : 22
                    },
                    "indices" : 7,
                    "material" : 1
                }
            ]
        },
        {
            "name" : "\u67f1\u4f53.007",
            "primitives" : [
                {
                    "attributes" : {
                        "POSITION" : 23,
                        "NORMAL" : 24,
                        "TEXCOORD_0" : 25
                    },
                    "indices" : 7,
                    "material" : 1
                }
            ]
        },
        {
            "name" : "\u67f1\u4f53.008",
            "primitives" : [
                {
                    "attributes" : {
                        "POSITION" : 26,
                        "NORMAL" : 27,
                        "TEXCOORD_0" : 28
                    },
                    "indices" : 29,
                    "material" : 2
                }
            ]
        },
        {
            "name" : "\u67f1\u4f53.001",
            "primitives" : [
                {
                    "attributes" : {
                        "POSITION" : 30,
                        "NORMAL" : 31,
                        "TEXCOORD_0" : 32
                    },
                    "indices" : 7,
                    "material" : 1
                }
            ]
        }
    ],
    "accessors" : [
        {
            "bufferView" : 0,
            "componentType" : 5126,
            "count" : 24,
            "max" : [
                1,
                1,
                1
            ],
            "min" : [
                -1,
                -1,
                -1
            ],
            "type" : "VEC3"
        },
        {
            "bufferView" : 1,
            "componentType" : 5126,
            "count" : 24,
            "type" : "VEC3"
        },
        {
            "bufferView" : 2,
            "componentType" : 5126,
            "count" : 24,
            "type" : "VEC2"
        },
        {
            "bufferView" : 3,
            "componentType" : 5123,
            "count" : 36,
            "type" : "SCALAR"
        },
        {
            "bufferView" : 4,
            "componentType" : 5126,
            "count" : 192,
            "max" : [
                1,
                1,
                1
            ],
            "min" : [
                -1,
                -1.0000001192092896,
                -1
            ],
            "type" : "VEC3"
        },
        {
            "bufferView" : 5,
            "componentType" : 5126,
            "count" : 192,
            "type" : "VEC3"
        },
        {
            "bufferView" : 6,
            "componentType" : 5126,
            "count" : 192,
            "type" : "VEC2"
        },
        {
            "bufferView" : 7,
            "componentType" : 5123,
            "count" : 372,
            "type" : "SCALAR"
        },
        {
            "bufferView" : 8,
            "componentType" : 5126,
            "count" : 192,
            "max" : [
                1,
                1,
                1
            ],
            "min" : [
                -1,
                -1,
                -1
            ],
            "type" : "VEC3"
        },
        {
            "bufferView" : 9,
            "componentType" : 5126,
            "count" : 192,
            "type" : "VEC3"
        },
        {
            "bufferView" : 10,
            "componentType" : 5126,
            "count" : 192,
            "type" : "VEC2"
        },
        {
            "bufferView" : 11,
            "componentType" : 5126,
            "count" : 192,
            "max" : [
                1,
                1,
                1
            ],
            "min" : [
                -1,
                -1,
                -1
            ],
            "type" : "VEC3"
        },
        {
            "bufferView" : 12,
            "componentType" : 5126,
            "count" : 192,
            "type" : "VEC3"
        },
        {
            "bufferView" : 13,
            "componentType" : 5126,
            "count" : 192,
            "type" : "VEC2"
        },
        {
            "bufferView" : 14,
            "componentType" : 5126,
            "count" : 192,
            "max" : [
                1,
                1,
                1
            ],
            "min" : [
                -1,
                -1,
                -1
            ],
            "type" : "VEC3"
        },
        {
            "bufferView" : 15,
            "componentType" : 5126,
            "count" : 192,
            "type" : "VEC3"
        },
        {
            "bufferView" : 16,
            "componentType" : 5126,
            "count" : 192,
            "type" : "VEC2"
        },
        {
            "bufferView" : 17,
            "componentType" : 5126,
            "count" : 192,
            "max" : [
                1,
                1,
                1
            ],
            "min" : [
                -1,
                -1,
                -1
            ],
            "type" : "VEC3"
        },
        {
            "bufferView" : 18,
            "componentType" : 5126,
            "count" : 192,
            "type" : "VEC3"
        },
        {
            "bufferView" : 19,
            "componentType" : 5126,
            "count" : 192,
            "type" : "VEC2"
        },
        {
            "bufferView" : 20,
            "componentType" : 5126,
            "count" : 192,
            "max" : [
                1,
                1,
                1
            ],
            "min" : [
                -1,
                -1,
                -1
            ],
            "type" : "VEC3"
        },
        {
            "bufferView" : 21,
            "componentType" : 5126,
            "count" : 192,
            "type" : "VEC3"
        },
        {
            "bufferView" : 22,
            "componentType" : 5126,
            "count" : 192,
            "type" : "VEC2"
        },
        {
            "bufferView" : 23,
            "componentType" : 5126,
            "count" : 192,
            "max" : [
                1,
                1,
                1
            ],
            "min" : [
                -1,
                -1,
                -1
            ],
            "type" : "VEC3"
        },
        {
            "bufferView" : 24,
            "componentType" : 5126,
            "count" : 192,
            "type" : "VEC3"
        },
        {
            "bufferView" : 25,
            "componentType" : 5126,
            "count" : 192,
            "type" : "VEC2"
        },
        {
            "bufferView" : 26,
            "componentType" : 5126,
            "count" : 130,
            "max" : [
                1,
                1,
                1
            ],
            "min" : [
                -1,
                -1,
                -1
            ],
            "type" : "VEC3"
        },
        {
            "bufferView" : 27,
            "componentType" : 5126,
            "count" : 130,
            "type" : "VEC3"
        },
        {
            "bufferView" : 28,
            "componentType" : 5126,
            "count" : 130,
            "type" : "VEC2"
        },
        {
            "bufferView" : 29,
            "componentType" : 5123,
            "count" : 372,
            "type" : "SCALAR"
        },
        {
            "bufferView" : 30,
            "componentType" : 5126,
            "count" : 192,
            "max" : [
                1,
                1,
                1
            ],
            "min" : [
                -1,
                -1,
                -1
            ],
            "type" : "VEC3"
        },
        {
            "bufferView" : 31,
            "componentType" : 5126,
            "count" : 192,
            "type" : "VEC3"
        },
        {
            "bufferView" : 32,
            "componentType" : 5126,
            "count" : 192,
            "type" : "VEC2"
        }
    ],
    "bufferViews" : [
        {
            "buffer" : 0,
            "byteLength" : 288,
            "byteOffset" : 0
        },
        {
            "buffer" : 0,
            "byteLength" : 288,
            "byteOffset" : 288
        },
        {
            "buffer" : 0,
            "byteLength" : 192,
            "byteOffset" : 576
        },
        {
            "buffer" : 0,
            "byteLength" : 72,
            "byteOffset" : 768
        },
        {
            "buffer" : 0,
            "byteLength" : 2304,
            "byteOffset" : 840
        },
        {
            "buffer" : 0,
            "byteLength" : 2304,
            "byteOffset" : 3144
        },
        {
            "buffer" : 0,
            "byteLength" : 1536,
            "byteOffset" : 5448
        },
        {
            "buffer" : 0,
            "byteLength" : 744,
            "byteOffset" : 6984
        },
        {
            "buffer" : 0,
            "byteLength" : 2304,
            "byteOffset" : 7728
        },
        {
            "buffer" : 0,
            "byteLength" : 2304,
            "byteOffset" : 10032
        },
        {
            "buffer" : 0,
            "byteLength" : 1536,
            "byteOffset" : 12336
        },
        {
            "buffer" : 0,
            "byteLength" : 2304,
            "byteOffset" : 13872
        },
        {
            "buffer" : 0,
            "byteLength" : 2304,
            "byteOffset" : 16176
        },
        {
            "buffer" : 0,
            "byteLength" : 1536,
            "byteOffset" : 18480
        },
        {
            "buffer" : 0,
            "byteLength" : 2304,
            "byteOffset" : 20016
        },
        {
            "buffer" : 0,
            "byteLength" : 2304,
            "byteOffset" : 22320
        },
        {
            "buffer" : 0,
            "byteLength" : 1536,
            "byteOffset" : 24624
        },
        {
            "buffer" : 0,
            "byteLength" : 2304,
            "byteOffset" : 26160
        },
        {
            "buffer" : 0,
            "byteLength" : 2304,
            "byteOffset" : 28464
        },
        {
            "buffer" : 0,
            "byteLength" : 1536,
            "byteOffset" : 30768
        },
        {
            "buffer" : 0,
            "byteLength" : 2304,
            "byteOffset" : 32304
        },
        {
            "buffer" : 0,
            "byteLength" : 2304,
            "byteOffset" : 34608
        },
        {
            "buffer" : 0,
            "byteLength" : 1536,
            "byteOffset" : 36912
        },
        {
            "buffer" : 0,
            "byteLength" : 2304,
            "byteOffset" : 38448
        },
        {
            "buffer" : 0,
            "byteLength" : 2304,
            "byteOffset" : 40752
        },
        {
            "buffer" : 0,
            "byteLength" : 1536,
            "byteOffset" : 43056
        },
        {
            "buffer" : 0,
            "byteLength" : 1560,
            "byteOffset" : 44592
        },
        {
            "buffer" : 0,
            "byteLength" : 1560,
            "byteOffset" : 46152
        },
        {
            "buffer" : 0,
            "byteLength" : 1040,
            "byteOffset" : 47712
        },
        {
            "buffer" : 0,
            "byteLength" : 744,
            "byteOffset" : 48752
        },
        {
            "buffer" : 0,
            "byteLength" : 2304,
            "byteOffset" : 49496
        },
        {
            "buffer" : 0,
            "byteLength" : 2304,
            "byteOffset" : 51800
        },
        {
            "buffer" : 0,
            "byteLength" : 1536,
            "byteOffset" : 54104
        }
    ],
    "buffers" : [
        {
            "byteLength" : 55640,
            "uri" : "data:application/octet-stream;base64,"
        }
    ]
}
