{
    "asset" : {
        "generator" : "Khronos glTF Blender I/O v1.6.16",
        "version" : "2.0"
    },
    "scene" : 0,
    "scenes" : [
        {
            "name" : "Scene",
            "nodes" : [
                0,
                1
            ]
        }
    ],
    "nodes" : [
        {
            "mesh" : 0,
            "name" : "\u67f1\u4f53",
            "scale" : [
                0.7817339301109314,
                0.9915180802345276,
                0.7817339301109314
            ],
            "translation" : [
                0,
                1.2519077062606812,
                0
            ]
        },
        {
            "mesh" : 1,
            "name" : "\u67f1\u4f53.001",
            "scale" : [
                0.7817339301109314,
                0.9915180802345276,
                0.7817339301109314
            ],
            "translation" : [
                0,
                1.2519077062606812,
                0
            ]
        }
    ],
    "materials" : [
        {
            "doubleSided" : true,
            "name" : "Material",
            "pbrMetallicRoughness" : {
                "baseColorFactor" : [
                    0.17701725661754608,
                    0.17701725661754608,
                    0.17701725661754608,
                    1
                ],
                "metallicFactor" : 0.0476190485060215,
                "roughnessFactor" : 0.7047619223594666
            }
        },
        {
            "doubleSided" : true,
            "name" : "\u6750\u8d28",
            "pbrMetallicRoughness" : {
                "baseColorFactor" : [
                    0.6738520264625549,
                    0.5290088653564453,
                    0.12988542020320892,
                    1
                ],
                "metallicFactor" : 0,
                "roughnessFactor" : 0.5190476179122925
            }
        }
    ],
    "meshes" : [
        {
            "name" : "\u67f1\u4f53.001",
            "primitives" : [
                {
                    "attributes" : {
                        "POSITION" : 0,
                        "NORMAL" : 1,
                        "TEXCOORD_0" : 2
                    },
                    "indices" : 3,
                    "material" : 0
                }
            ]
        },
        {
            "name" : "\u67f1\u4f53.002",
            "primitives" : [
                {
                    "attributes" : {
                        "POSITION" : 4,
                        "NORMAL" : 5,
                        "TEXCOORD_0" : 6
                    },
                    "indices" : 7,
                    "material" : 1
                }
            ]
        }
    ],
    "accessors" : [
        {
            "bufferView" : 0,
            "componentType" : 5126,
            "count" : 880,
            "max" : [
                0.13257557153701782,
                1.2612948417663574,
                0.13257557153701782
            ],
            "min" : [
                -0.13257557153701782,
                -1.3054803609848022,
                -0.13257557153701782
            ],
            "type" : "VEC3"
        },
        {
            "bufferView" : 1,
            "componentType" : 5126,
            "count" : 880,
            "type" : "VEC3"
        },
        {
            "bufferView" : 2,
            "componentType" : 5126,
            "count" : 880,
            "type" : "VEC2"
        },
        {
            "bufferView" : 3,
            "componentType" : 5123,
            "count" : 1524,
            "type" : "SCALAR"
        },
        {
            "bufferView" : 4,
            "componentType" : 5126,
            "count" : 456,
            "max" : [
                0.10000000149011612,
                1.1752434968948364,
                0.10000000149011612
            ],
            "min" : [
                -0.10000000149011612,
                -0.2748071849346161,
                -0.10000000149011612
            ],
            "type" : "VEC3"
        },
        {
            "bufferView" : 5,
            "componentType" : 5126,
            "count" : 456,
            "type" : "VEC3"
        },
        {
            "bufferView" : 6,
            "componentType" : 5126,
            "count" : 456,
            "type" : "VEC2"
        },
        {
            "bufferView" : 7,
            "componentType" : 5123,
            "count" : 768,
            "type" : "SCALAR"
        }
    ],
    "bufferViews" : [
        {
            "buffer" : 0,
            "byteLength" : 10560,
            "byteOffset" : 0
        },
        {
            "buffer" : 0,
            "byteLength" : 10560,
            "byteOffset" : 10560
        },
        {
            "buffer" : 0,
            "byteLength" : 7040,
            "byteOffset" : 21120
        },
        {
            "buffer" : 0,
            "byteLength" : 3048,
            "byteOffset" : 28160
        },
        {
            "buffer" : 0,
            "byteLength" : 5472,
            "byteOffset" : 31208
        },
        {
            "buffer" : 0,
            "byteLength" : 5472,
            "byteOffset" : 36680
        },
        {
            "buffer" : 0,
            "byteLength" : 3648,
            "byteOffset" : 42152
        },
        {
            "buffer" : 0,
            "byteLength" : 1536,
            "byteOffset" : 45800
        }
    ],
    "buffers" : [
        {
            "byteLength" : 47336,
            "uri" : "data:application/octet-stream;base64,"
        }
    ]
}
