{
    "asset" : {
        "generator" : "Khronos glTF Blender I/O v1.6.16",
        "version" : "2.0"
    },
    "scene" : 0,
    "scenes" : [
        {
            "name" : "Scene",
            "nodes" : [
                0,
                1,
                2,
                3,
                4,
                5,
                6,
                7,
                8,
                9,
                10
            ]
        }
    ],
    "nodes" : [
        {
            "mesh" : 0,
            "name" : "Cube",
            "rotation" : [
                0,
                0.7071068286895752,
                0,
                0.7071068286895752
            ],
            "scale" : [
                0.03749629482626915,
                0.02190881036221981,
                0.8347958326339722
            ],
            "translation" : [
                -0.2568463087081909,
                0,
                -0.20690995454788208
            ]
        },
        {
            "mesh" : 1,
            "name" : "Cube.001",
            "rotation" : [
                0,
                0.7071068286895752,
                0,
                0.7071068286895752
            ],
            "scale" : [
                0.037114452570676804,
                0.02190881036221981,
                0.8347958326339722
            ],
            "translation" : [
                -0.2568463087081909,
                0,
                -0.10263566672801971
            ]
        },
        {
            "mesh" : 2,
            "name" : "Cube.002",
            "rotation" : [
                0,
                0.7071068286895752,
                0,
                0.7071068286895752
            ],
            "scale" : [
                0.03688850253820419,
                0.02190881036221981,
                0.8347958326339722
            ],
            "translation" : [
                -0.2568463087081909,
                0,
                0.0003387606702744961
            ]
        },
        {
            "mesh" : 3,
            "name" : "Cube.003",
            "rotation" : [
                0,
                0.7071068286895752,
                0,
                0.7071068286895752
            ],
            "scale" : [
                0.04078396037220955,
                0.02190881036221981,
                0.8347958922386169
            ],
            "translation" : [
                -0.2568463087081909,
                0,
                0.10519978404045105
            ]
        },
        {
            "mesh" : 4,
            "name" : "Cube.004",
            "rotation" : [
                0,
                0.7071068286895752,
                0,
                0.7071068286895752
            ],
            "scale" : [
                0.05594212934374809,
                0.02190881036221981,
                0.8347958326339722
            ],
            "translation" : [
                -0.2568463087081909,
                0,
                -0.3316834568977356
            ]
        },
        {
            "mesh" : 5,
            "name" : "Cube.005",
            "rotation" : [
                -0.5,
                0.5,
                -0.4999999701976776,
                0.5
            ],
            "scale" : [
                0.03437015414237976,
                0.016489341855049133,
                0.8347958326339722
            ],
            "translation" : [
                -0.2568463087081909,
                0.1468525528907776,
                0.13514387607574463
            ]
        },
        {
            "mesh" : 6,
            "name" : "Cube.006",
            "rotation" : [
                -0.47761401534080505,
                0.5214258432388306,
                -0.47761398553848267,
                0.5214257836341858
            ],
            "scale" : [
                0.03470504656434059,
                0.01590307429432869,
                0.8347958326339722
            ],
            "translation" : [
                -0.2568463087081909,
                0.23995926976203918,
                0.1362038254737854
            ]
        },
        {
            "mesh" : 7,
            "name" : "Cube.007",
            "rotation" : [
                -0.4054379463195801,
                0.5793272852897644,
                -0.4054379463195801,
                0.5793272256851196
            ],
            "scale" : [
                0.03630776330828667,
                0.01636642776429653,
                0.8347958326339722
            ],
            "translation" : [
                -0.2568463087081909,
                0.34527668356895447,
                0.15740296244621277
            ]
        },
        {
            "mesh" : 8,
            "name" : "Cube.008",
            "rotation" : [
                -0.373506098985672,
                0.6004108786582947,
                -0.3735060691833496,
                0.6004108786582947
            ],
            "scale" : [
                0.04078396037220955,
                0.01364489272236824,
                0.8347958326339722
            ],
            "translation" : [
                -0.2568463087081909,
                0.44906777143478394,
                0.19450151920318604
            ]
        },
        {
            "mesh" : 9,
            "name" : "\u67f1\u4f53",
            "rotation" : [
                -0.7071068286895752,
                0.7071067690849304,
                0,
                -1.1520231879558196e-07
            ],
            "scale" : [
                0.3348207175731659,
                0.02574310079216957,
                0.3021429181098938
            ],
            "translation" : [
                -1.0995880365371704,
                -0.43981125950813293,
                -0.026115715503692627
            ]
        },
        {
            "mesh" : 10,
            "name" : "\u67f1\u4f53.002",
            "rotation" : [
                0,
                0,
                0.7071067690849304,
                -0.7071068286895752
            ],
            "scale" : [
                0.3348207175731659,
                0.031063493341207504,
                -0.3021429181098938
            ],
            "translation" : [
                0.5983303189277649,
                -0.43981125950813293,
                -0.026115834712982178
            ]
        }
    ],
    "materials" : [
        {
            "doubleSided" : true,
            "name" : "Material",
            "pbrMetallicRoughness" : {
                "baseColorFactor" : [
                    0.17335738241672516,
                    0.04590265452861786,
                    0.037013258785009384,
                    1
                ],
                "metallicFactor" : 0,
                "roughnessFactor" : 0.6666666865348816
            }
        },
        {
            "doubleSided" : true,
            "name" : "\u6750\u8d28",
            "pbrMetallicRoughness" : {
                "baseColorFactor" : [
                    0.019861668348312378,
                    0.019861668348312378,
                    0.019861668348312378,
                    1
                ],
                "metallicFactor" : 0.4095238149166107,
                "roughnessFactor" : 0.5666666626930237
            }
        }
    ],
    "meshes" : [
        {
            "name" : "Cube",
            "primitives" : [
                {
                    "attributes" : {
                        "POSITION" : 0,
                        "NORMAL" : 1,
                        "TEXCOORD_0" : 2
                    },
                    "indices" : 3,
                    "material" : 0
                }
            ]
        },
        {
            "name" : "Cube.001",
            "primitives" : [
                {
                    "attributes" : {
                        "POSITION" : 4,
                        "NORMAL" : 5,
                        "TEXCOORD_0" : 6
                    },
                    "indices" : 3,
                    "material" : 0
                }
            ]
        },
        {
            "name" : "Cube.002",
            "primitives" : [
                {
                    "attributes" : {
                        "POSITION" : 7,
                        "NORMAL" : 8,
                        "TEXCOORD_0" : 9
                    },
                    "indices" : 3,
                    "material" : 0
                }
            ]
        },
        {
            "name" : "Cube.003",
            "primitives" : [
                {
                    "attributes" : {
                        "POSITION" : 10,
                        "NORMAL" : 11,
                        "TEXCOORD_0" : 12
                    },
                    "indices" : 3,
                    "material" : 0
                }
            ]
        },
        {
            "name" : "Cube.004",
            "primitives" : [
                {
                    "attributes" : {
                        "POSITION" : 13,
                        "NORMAL" : 14,
                        "TEXCOORD_0" : 15
                    },
                    "indices" : 16,
                    "material" : 0
                }
            ]
        },
        {
            "name" : "Cube.005",
            "primitives" : [
                {
                    "attributes" : {
                        "POSITION" : 17,
                        "NORMAL" : 18,
                        "TEXCOORD_0" : 19
                    },
                    "indices" : 3,
                    "material" : 0
                }
            ]
        },
        {
            "name" : "Cube.006",
            "primitives" : [
                {
                    "attributes" : {
                        "POSITION" : 20,
                        "NORMAL" : 21,
                        "TEXCOORD_0" : 22
                    },
                    "indices" : 3,
                    "material" : 0
                }
            ]
        },
        {
            "name" : "Cube.007",
            "primitives" : [
                {
                    "attributes" : {
                        "POSITION" : 23,
                        "NORMAL" : 24,
                        "TEXCOORD_0" : 25
                    },
                    "indices" : 3,
                    "material" : 0
                }
            ]
        },
        {
            "name" : "Cube.008",
            "primitives" : [
                {
                    "attributes" : {
                        "POSITION" : 26,
                        "NORMAL" : 27,
                        "TEXCOORD_0" : 28
                    },
                    "indices" : 3,
                    "material" : 0
                }
            ]
        },
        {
            "name" : "\u67f1\u4f53",
            "primitives" : [
                {
                    "attributes" : {
                        "POSITION" : 29,
                        "NORMAL" : 30,
                        "TEXCOORD_0" : 31,
                        "TEXCOORD_1" : 32
                    },
                    "indices" : 33,
                    "material" : 1
                }
            ]
        },
        {
            "name" : "\u67f1\u4f53.003",
            "primitives" : [
                {
                    "attributes" : {
                        "POSITION" : 34,
                        "NORMAL" : 35,
                        "TEXCOORD_0" : 36,
                        "TEXCOORD_1" : 37
                    },
                    "indices" : 33,
                    "material" : 1
                }
            ]
        }
    ],
    "accessors" : [
        {
            "bufferView" : 0,
            "componentType" : 5126,
            "count" : 24,
            "max" : [
                1,
                1,
                1
            ],
            "min" : [
                -1,
                -1,
                -1
            ],
            "type" : "VEC3"
        },
        {
            "bufferView" : 1,
            "componentType" : 5126,
            "count" : 24,
            "type" : "VEC3"
        },
        {
            "bufferView" : 2,
            "componentType" : 5126,
            "count" : 24,
            "type" : "VEC2"
        },
        {
            "bufferView" : 3,
            "componentType" : 5123,
            "count" : 36,
            "type" : "SCALAR"
        },
        {
            "bufferView" : 4,
            "componentType" : 5126,
            "count" : 24,
            "max" : [
                1,
                1,
                1
            ],
            "min" : [
                -1,
                -1,
                -1
            ],
            "type" : "VEC3"
        },
        {
            "bufferView" : 5,
            "componentType" : 5126,
            "count" : 24,
            "type" : "VEC3"
        },
        {
            "bufferView" : 6,
            "componentType" : 5126,
            "count" : 24,
            "type" : "VEC2"
        },
        {
            "bufferView" : 7,
            "componentType" : 5126,
            "count" : 24,
            "max" : [
                1,
                1,
                1
            ],
            "min" : [
                -1,
                -1,
                -1
            ],
            "type" : "VEC3"
        },
        {
            "bufferView" : 8,
            "componentType" : 5126,
            "count" : 24,
            "type" : "VEC3"
        },
        {
            "bufferView" : 9,
            "componentType" : 5126,
            "count" : 24,
            "type" : "VEC2"
        },
        {
            "bufferView" : 10,
            "componentType" : 5126,
            "count" : 24,
            "max" : [
                1,
                1,
                1
            ],
            "min" : [
                -1,
                -1,
                -1
            ],
            "type" : "VEC3"
        },
        {
            "bufferView" : 11,
            "componentType" : 5126,
            "count" : 24,
            "type" : "VEC3"
        },
        {
            "bufferView" : 12,
            "componentType" : 5126,
            "count" : 24,
            "type" : "VEC2"
        },
        {
            "bufferView" : 13,
            "componentType" : 5126,
            "count" : 52,
            "max" : [
                1,
                1,
                1.0000001192092896
            ],
            "min" : [
                -1,
                -1.1823469400405884,
                -1.0000001192092896
            ],
            "type" : "VEC3"
        },
        {
            "bufferView" : 14,
            "componentType" : 5126,
            "count" : 52,
            "type" : "VEC3"
        },
        {
            "bufferView" : 15,
            "componentType" : 5126,
            "count" : 52,
            "type" : "VEC2"
        },
        {
            "bufferView" : 16,
            "componentType" : 5123,
            "count" : 84,
            "type" : "SCALAR"
        },
        {
            "bufferView" : 17,
            "componentType" : 5126,
            "count" : 24,
            "max" : [
                1,
                1,
                1
            ],
            "min" : [
                -1,
                -1,
                -1
            ],
            "type" : "VEC3"
        },
        {
            "bufferView" : 18,
            "componentType" : 5126,
            "count" : 24,
            "type" : "VEC3"
        },
        {
            "bufferView" : 19,
            "componentType" : 5126,
            "count" : 24,
            "type" : "VEC2"
        },
        {
            "bufferView" : 20,
            "componentType" : 5126,
            "count" : 24,
            "max" : [
                1,
                1,
                1
            ],
            "min" : [
                -1,
                -1,
                -1
            ],
            "type" : "VEC3"
        },
        {
            "bufferView" : 21,
            "componentType" : 5126,
            "count" : 24,
            "type" : "VEC3"
        },
        {
            "bufferView" : 22,
            "componentType" : 5126,
            "count" : 24,
            "type" : "VEC2"
        },
        {
            "bufferView" : 23,
            "componentType" : 5126,
            "count" : 24,
            "max" : [
                1,
                1,
                1
            ],
            "min" : [
                -1,
                -1,
                -1
            ],
            "type" : "VEC3"
        },
        {
            "bufferView" : 24,
            "componentType" : 5126,
            "count" : 24,
            "type" : "VEC3"
        },
        {
            "bufferView" : 25,
            "componentType" : 5126,
            "count" : 24,
            "type" : "VEC2"
        },
        {
            "bufferView" : 26,
            "componentType" : 5126,
            "count" : 24,
            "max" : [
                1,
                1,
                1
            ],
            "min" : [
                -1,
                -1,
                -1
            ],
            "type" : "VEC3"
        },
        {
            "bufferView" : 27,
            "componentType" : 5126,
            "count" : 24,
            "type" : "VEC3"
        },
        {
            "bufferView" : 28,
            "componentType" : 5126,
            "count" : 24,
            "type" : "VEC2"
        },
        {
            "bufferView" : 29,
            "componentType" : 5126,
            "count" : 1736,
            "max" : [
                -0.36338862776756287,
                1.4780160188674927,
                1.2220673561096191
            ],
            "min" : [
                -2.788149833679199,
                -1.4549099206924438,
                -0.9269007444381714
            ],
            "type" : "VEC3"
        },
        {
            "bufferView" : 30,
            "componentType" : 5126,
            "count" : 1736,
            "type" : "VEC3"
        },
        {
            "bufferView" : 31,
            "componentType" : 5126,
            "count" : 1736,
            "type" : "VEC2"
        },
        {
            "bufferView" : 32,
            "componentType" : 5126,
            "count" : 1736,
            "type" : "VEC2"
        },
        {
            "bufferView" : 33,
            "componentType" : 5123,
            "count" : 2712,
            "type" : "SCALAR"
        },
        {
            "bufferView" : 34,
            "componentType" : 5126,
            "count" : 1736,
            "max" : [
                -0.36338862776756287,
                1.4780160188674927,
                1.2220673561096191
            ],
            "min" : [
                -2.788149833679199,
                -1.4549099206924438,
                -0.9269007444381714
            ],
            "type" : "VEC3"
        },
        {
            "bufferView" : 35,
            "componentType" : 5126,
            "count" : 1736,
            "type" : "VEC3"
        },
        {
            "bufferView" : 36,
            "componentType" : 5126,
            "count" : 1736,
            "type" : "VEC2"
        },
        {
            "bufferView" : 37,
            "componentType" : 5126,
            "count" : 1736,
            "type" : "VEC2"
        }
    ],
    "bufferViews" : [
        {
            "buffer" : 0,
            "byteLength" : 288,
            "byteOffset" : 0
        },
        {
            "buffer" : 0,
            "byteLength" : 288,
            "byteOffset" : 288
        },
        {
            "buffer" : 0,
            "byteLength" : 192,
            "byteOffset" : 576
        },
        {
            "buffer" : 0,
            "byteLength" : 72,
            "byteOffset" : 768
        },
        {
            "buffer" : 0,
            "byteLength" : 288,
            "byteOffset" : 840
        },
        {
            "buffer" : 0,
            "byteLength" : 288,
            "byteOffset" : 1128
        },
        {
            "buffer" : 0,
            "byteLength" : 192,
            "byteOffset" : 1416
        },
        {
            "buffer" : 0,
            "byteLength" : 288,
            "byteOffset" : 1608
        },
        {
            "buffer" : 0,
            "byteLength" : 288,
            "byteOffset" : 1896
        },
        {
            "buffer" : 0,
            "byteLength" : 192,
            "byteOffset" : 2184
        },
        {
            "buffer" : 0,
            "byteLength" : 288,
            "byteOffset" : 2376
        },
        {
            "buffer" : 0,
            "byteLength" : 288,
            "byteOffset" : 2664
        },
        {
            "buffer" : 0,
            "byteLength" : 192,
            "byteOffset" : 2952
        },
        {
            "buffer" : 0,
            "byteLength" : 624,
            "byteOffset" : 3144
        },
        {
            "buffer" : 0,
            "byteLength" : 624,
            "byteOffset" : 3768
        },
        {
            "buffer" : 0,
            "byteLength" : 416,
            "byteOffset" : 4392
        },
        {
            "buffer" : 0,
            "byteLength" : 168,
            "byteOffset" : 4808
        },
        {
            "buffer" : 0,
            "byteLength" : 288,
            "byteOffset" : 4976
        },
        {
            "buffer" : 0,
            "byteLength" : 288,
            "byteOffset" : 5264
        },
        {
            "buffer" : 0,
            "byteLength" : 192,
            "byteOffset" : 5552
        },
        {
            "buffer" : 0,
            "byteLength" : 288,
            "byteOffset" : 5744
        },
        {
            "buffer" : 0,
            "byteLength" : 288,
            "byteOffset" : 6032
        },
        {
            "buffer" : 0,
            "byteLength" : 192,
            "byteOffset" : 6320
        },
        {
            "buffer" : 0,
            "byteLength" : 288,
            "byteOffset" : 6512
        },
        {
            "buffer" : 0,
            "byteLength" : 288,
            "byteOffset" : 6800
        },
        {
            "buffer" : 0,
            "byteLength" : 192,
            "byteOffset" : 7088
        },
        {
            "buffer" : 0,
            "byteLength" : 288,
            "byteOffset" : 7280
        },
        {
            "buffer" : 0,
            "byteLength" : 288,
            "byteOffset" : 7568
        },
        {
            "buffer" : 0,
            "byteLength" : 192,
            "byteOffset" : 7856
        },
        {
            "buffer" : 0,
            "byteLength" : 20832,
            "byteOffset" : 8048
        },
        {
            "buffer" : 0,
            "byteLength" : 20832,
            "byteOffset" : 28880
        },
        {
            "buffer" : 0,
            "byteLength" : 13888,
            "byteOffset" : 49712
        },
        {
            "buffer" : 0,
            "byteLength" : 13888,
            "byteOffset" : 63600
        },
        {
            "buffer" : 0,
            "byteLength" : 5424,
            "byteOffset" : 77488
        },
        {
            "buffer" : 0,
            "byteLength" : 20832,
            "byteOffset" : 82912
        },
        {
            "buffer" : 0,
            "byteLength" : 20832,
            "byteOffset" : 103744
        },
        {
            "buffer" : 0,
            "byteLength" : 13888,
            "byteOffset" : 124576
        },
        {
            "buffer" : 0,
            "byteLength" : 13888,
            "byteOffset" : 138464
        }
    ],
    "buffers" : [
        {
            "byteLength" : 152352,
            "uri" : "data:application/octet-stream;base64,"
        }
    ]
}
