{
    "asset" : {
        "generator" : "Khronos glTF Blender I/O v1.6.16",
        "version" : "2.0"
    },
    "scene" : 0,
    "scenes" : [
        {
            "name" : "Scene",
            "nodes" : [
                0,
                1,
                2,
                3,
                4,
                5,
                6,
                7,
                8,
                9,
                10
            ]
        }
    ],
    "nodes" : [
        {
            "mesh" : 0,
            "name" : "Cube",
            "scale" : [
                1.0986580848693848,
                0.806182324886322,
                0.8653520345687866
            ],
            "translation" : [
                0,
                -0.11278878897428513,
                0
            ]
        },
        {
            "mesh" : 1,
            "name" : "\u7acb\u65b9\u4f53",
            "scale" : [
                0.07217159867286682,
                0.16600100696086884,
                2.6103665828704834
            ],
            "translation" : [
                -1.0090250968933105,
                0.529822051525116,
                -2.439143419265747
            ]
        },
        {
            "mesh" : 2,
            "name" : "\u7acb\u65b9\u4f53.001",
            "scale" : [
                0.07204917073249817,
                0.15208108723163605,
                0.521410346031189
            ],
            "translation" : [
                -0.8666699528694153,
                0.532130241394043,
                -0.350355863571167
            ]
        },
        {
            "mesh" : 3,
            "name" : "\u7acb\u65b9\u4f53.002",
            "scale" : [
                0.07204917073249817,
                0.15208108723163605,
                0.521410346031189
            ],
            "translation" : [
                -0.8666699528694153,
                0.532130241394043,
                -4.519774913787842
            ]
        },
        {
            "mesh" : 4,
            "name" : "\u7acb\u65b9\u4f53.003",
            "scale" : [
                1.1050941944122314,
                0.041968345642089844,
                0.5080601572990417
            ],
            "translation" : [
                0,
                0.31421422958374023,
                -0.35662776231765747
            ]
        },
        {
            "mesh" : 5,
            "name" : "\u7acb\u65b9\u4f53.004",
            "scale" : [
                1.1050941944122314,
                0.041968345642089844,
                0.5080601572990417
            ],
            "translation" : [
                0,
                0.31421422958374023,
                -4.530510902404785
            ]
        },
        {
            "mesh" : 6,
            "name" : "Cube.002",
            "rotation" : [
                0,
                1,
                0,
                -1.6292068494294654e-07
            ],
            "scale" : [
                1.0986580848693848,
                0.806182324886322,
                0.8653520345687866
            ],
            "translation" : [
                0,
                -0.11278878897428513,
                -4.878413677215576
            ]
        },
        {
            "mesh" : 7,
            "name" : "\u67f1\u4f53",
            "rotation" : [
                0,
                0,
                -0.7071067690849304,
                0.7071068286895752
            ],
            "scale" : [
                0.04798951745033264,
                1.1022536754608154,
                0.04798951745033264
            ],
            "translation" : [
                0,
                0.5301440358161926,
                0
            ]
        },
        {
            "mesh" : 8,
            "name" : "\u67f1\u4f53.001",
            "rotation" : [
                0,
                0,
                -0.7071067690849304,
                0.7071068286895752
            ],
            "scale" : [
                0.04798951745033264,
                1.1022536754608154,
                0.04798951745033264
            ],
            "translation" : [
                0,
                0.5301440358161926,
                -0.64155113697052
            ]
        },
        {
            "mesh" : 9,
            "name" : "\u67f1\u4f53.002",
            "rotation" : [
                0,
                0,
                -0.7071067690849304,
                0.7071068286895752
            ],
            "scale" : [
                0.04798951745033264,
                1.1022536754608154,
                0.04798951745033264
            ],
            "translation" : [
                0,
                0.5301440358161926,
                -4.133586883544922
            ]
        },
        {
            "mesh" : 10,
            "name" : "\u67f1\u4f53.003",
            "rotation" : [
                0,
                0,
                -0.7071067690849304,
                0.7071068286895752
            ],
            "scale" : [
                0.04798951745033264,
                1.1022536754608154,
                0.04798951745033264
            ],
            "translation" : [
                0,
                0.5301440358161926,
                -4.771296501159668
            ]
        }
    ],
    "materials" : [
        {
            "doubleSided" : true,
            "name" : "Material",
            "pbrMetallicRoughness" : {
                "baseColorTexture" : {
                    "index" : 0
                },
                "metallicFactor" : 0,
                "roughnessFactor" : 0.8245989084243774
            }
        },
        {
            "doubleSided" : true,
            "name" : "\u6750\u8d28",
            "pbrMetallicRoughness" : {
                "baseColorTexture" : {
                    "index" : 1
                },
                "metallicFactor" : 0,
                "roughnessFactor" : 0.5
            }
        },
        {
            "doubleSided" : true,
            "name" : "\u6750\u8d28.002",
            "pbrMetallicRoughness" : {
                "baseColorFactor" : [
                    0.21610036492347717,
                    0.21610036492347717,
                    0.21610036492347717,
                    1
                ],
                "metallicFactor" : 0
            }
        },
        {
            "doubleSided" : true,
            "name" : "\u6750\u8d28.001",
            "pbrMetallicRoughness" : {
                "baseColorFactor" : [
                    0.04696277529001236,
                    0.04696277529001236,
                    0.04696277529001236,
                    1
                ],
                "metallicFactor" : 0.5196078419685364,
                "roughnessFactor" : 0.343137264251709
            }
        }
    ],
    "meshes" : [
        {
            "name" : "Cube",
            "primitives" : [
                {
                    "attributes" : {
                        "POSITION" : 0,
                        "NORMAL" : 1,
                        "TEXCOORD_0" : 2
                    },
                    "indices" : 3,
                    "material" : 0
                }
            ]
        },
        {
            "name" : "\u7acb\u65b9\u4f53",
            "primitives" : [
                {
                    "attributes" : {
                        "POSITION" : 4,
                        "NORMAL" : 5,
                        "TEXCOORD_0" : 6
                    },
                    "indices" : 7,
                    "material" : 1
                }
            ]
        },
        {
            "name" : "\u7acb\u65b9\u4f53.001",
            "primitives" : [
                {
                    "attributes" : {
                        "POSITION" : 8,
                        "NORMAL" : 9,
                        "TEXCOORD_0" : 10
                    },
                    "indices" : 7,
                    "material" : 1
                }
            ]
        },
        {
            "name" : "\u7acb\u65b9\u4f53.002",
            "primitives" : [
                {
                    "attributes" : {
                        "POSITION" : 11,
                        "NORMAL" : 12,
                        "TEXCOORD_0" : 13
                    },
                    "indices" : 7,
                    "material" : 1
                }
            ]
        },
        {
            "name" : "\u7acb\u65b9\u4f53.003",
            "primitives" : [
                {
                    "attributes" : {
                        "POSITION" : 14,
                        "NORMAL" : 15,
                        "TEXCOORD_0" : 16
                    },
                    "indices" : 7,
                    "material" : 2
                }
            ]
        },
        {
            "name" : "\u7acb\u65b9\u4f53.004",
            "primitives" : [
                {
                    "attributes" : {
                        "POSITION" : 17,
                        "NORMAL" : 18,
                        "TEXCOORD_0" : 19
                    },
                    "indices" : 7,
                    "material" : 2
                }
            ]
        },
        {
            "name" : "Cube.002",
            "primitives" : [
                {
                    "attributes" : {
                        "POSITION" : 20,
                        "NORMAL" : 21,
                        "TEXCOORD_0" : 22
                    },
                    "indices" : 23,
                    "material" : 0
                }
            ]
        },
        {
            "name" : "\u67f1\u4f53",
            "primitives" : [
                {
                    "attributes" : {
                        "POSITION" : 24,
                        "NORMAL" : 25,
                        "TEXCOORD_0" : 26
                    },
                    "indices" : 27,
                    "material" : 3
                }
            ]
        },
        {
            "name" : "\u67f1\u4f53.002",
            "primitives" : [
                {
                    "attributes" : {
                        "POSITION" : 28,
                        "NORMAL" : 29,
                        "TEXCOORD_0" : 30
                    },
                    "indices" : 27,
                    "material" : 3
                }
            ]
        },
        {
            "name" : "\u67f1\u4f53.003",
            "primitives" : [
                {
                    "attributes" : {
                        "POSITION" : 31,
                        "NORMAL" : 32,
                        "TEXCOORD_0" : 33
                    },
                    "indices" : 27,
                    "material" : 3
                }
            ]
        },
        {
            "name" : "\u67f1\u4f53.004",
            "primitives" : [
                {
                    "attributes" : {
                        "POSITION" : 34,
                        "NORMAL" : 35,
                        "TEXCOORD_0" : 36
                    },
                    "indices" : 27,
                    "material" : 3
                }
            ]
        }
    ],
    "textures" : [
        {
            "sampler" : 0,
            "source" : 0
        },
        {
            "sampler" : 0,
            "source" : 1
        }
    ],
    "images" : [
        {
            "bufferView" : 4,
            "mimeType" : "image/jpeg",
            "name" : "6"
        },
        {
            "bufferView" : 9,
            "mimeType" : "image/jpeg",
            "name" : "7"
        }
    ],
    "accessors" : [
        {
            "bufferView" : 0,
            "componentType" : 5126,
            "count" : 48,
            "max" : [
                1,
                1,
                1
            ],
            "min" : [
                -1,
                -1,
                -1
            ],
            "type" : "VEC3"
        },
        {
            "bufferView" : 1,
            "componentType" : 5126,
            "count" : 48,
            "type" : "VEC3"
        },
        {
            "bufferView" : 2,
            "componentType" : 5126,
            "count" : 48,
            "type" : "VEC2"
        },
        {
            "bufferView" : 3,
            "componentType" : 5123,
            "count" : 84,
            "type" : "SCALAR"
        },
        {
            "bufferView" : 5,
            "componentType" : 5126,
            "count" : 24,
            "max" : [
                1,
                1,
                1
            ],
            "min" : [
                -1,
                -1,
                -1
            ],
            "type" : "VEC3"
        },
        {
            "bufferView" : 6,
            "componentType" : 5126,
            "count" : 24,
            "type" : "VEC3"
        },
        {
            "bufferView" : 7,
            "componentType" : 5126,
            "count" : 24,
            "type" : "VEC2"
        },
        {
            "bufferView" : 8,
            "componentType" : 5123,
            "count" : 36,
            "type" : "SCALAR"
        },
        {
            "bufferView" : 10,
            "componentType" : 5126,
            "count" : 24,
            "max" : [
                1,
                1,
                1
            ],
            "min" : [
                -1,
                -1,
                -1
            ],
            "type" : "VEC3"
        },
        {
            "bufferView" : 11,
            "componentType" : 5126,
            "count" : 24,
            "type" : "VEC3"
        },
        {
            "bufferView" : 12,
            "componentType" : 5126,
            "count" : 24,
            "type" : "VEC2"
        },
        {
            "bufferView" : 13,
            "componentType" : 5126,
            "count" : 24,
            "max" : [
                1,
                1,
                1
            ],
            "min" : [
                -1,
                -1,
                -1
            ],
            "type" : "VEC3"
        },
        {
            "bufferView" : 14,
            "componentType" : 5126,
            "count" : 24,
            "type" : "VEC3"
        },
        {
            "bufferView" : 15,
            "componentType" : 5126,
            "count" : 24,
            "type" : "VEC2"
        },
        {
            "bufferView" : 16,
            "componentType" : 5126,
            "count" : 24,
            "max" : [
                1,
                1,
                1
            ],
            "min" : [
                -1,
                -1,
                -1
            ],
            "type" : "VEC3"
        },
        {
            "bufferView" : 17,
            "componentType" : 5126,
            "count" : 24,
            "type" : "VEC3"
        },
        {
            "bufferView" : 18,
            "componentType" : 5126,
            "count" : 24,
            "type" : "VEC2"
        },
        {
            "bufferView" : 19,
            "componentType" : 5126,
            "count" : 24,
            "max" : [
                1,
                1,
                1
            ],
            "min" : [
                -1,
                -1,
                -1
            ],
            "type" : "VEC3"
        },
        {
            "bufferView" : 20,
            "componentType" : 5126,
            "count" : 24,
            "type" : "VEC3"
        },
        {
            "bufferView" : 21,
            "componentType" : 5126,
            "count" : 24,
            "type" : "VEC2"
        },
        {
            "bufferView" : 22,
            "componentType" : 5126,
            "count" : 50,
            "max" : [
                1,
                1,
                1
            ],
            "min" : [
                -1,
                -1,
                -1
            ],
            "type" : "VEC3"
        },
        {
            "bufferView" : 23,
            "componentType" : 5126,
            "count" : 50,
            "type" : "VEC3"
        },
        {
            "bufferView" : 24,
            "componentType" : 5126,
            "count" : 50,
            "type" : "VEC2"
        },
        {
            "bufferView" : 25,
            "componentType" : 5123,
            "count" : 84,
            "type" : "SCALAR"
        },
        {
            "bufferView" : 26,
            "componentType" : 5126,
            "count" : 192,
            "max" : [
                1,
                1,
                1
            ],
            "min" : [
                -1,
                -1,
                -1
            ],
            "type" : "VEC3"
        },
        {
            "bufferView" : 27,
            "componentType" : 5126,
            "count" : 192,
            "type" : "VEC3"
        },
        {
            "bufferView" : 28,
            "componentType" : 5126,
            "count" : 192,
            "type" : "VEC2"
        },
        {
            "bufferView" : 29,
            "componentType" : 5123,
            "count" : 372,
            "type" : "SCALAR"
        },
        {
            "bufferView" : 30,
            "componentType" : 5126,
            "count" : 192,
            "max" : [
                1,
                1,
                1
            ],
            "min" : [
                -1,
                -1,
                -1
            ],
            "type" : "VEC3"
        },
        {
            "bufferView" : 31,
            "componentType" : 5126,
            "count" : 192,
            "type" : "VEC3"
        },
        {
            "bufferView" : 32,
            "componentType" : 5126,
            "count" : 192,
            "type" : "VEC2"
        },
        {
            "bufferView" : 33,
            "componentType" : 5126,
            "count" : 192,
            "max" : [
                1,
                1,
                1
            ],
            "min" : [
                -1,
                -1,
                -1
            ],
            "type" : "VEC3"
        },
        {
            "bufferView" : 34,
            "componentType" : 5126,
            "count" : 192,
            "type" : "VEC3"
        },
        {
            "bufferView" : 35,
            "componentType" : 5126,
            "count" : 192,
            "type" : "VEC2"
        },
        {
            "bufferView" : 36,
            "componentType" : 5126,
            "count" : 192,
            "max" : [
                1,
                1,
                1
            ],
            "min" : [
                -1,
                -1,
                -1
            ],
            "type" : "VEC3"
        },
        {
            "bufferView" : 37,
            "componentType" : 5126,
            "count" : 192,
            "type" : "VEC3"
        },
        {
            "bufferView" : 38,
            "componentType" : 5126,
            "count" : 192,
            "type" : "VEC2"
        }
    ],
    "bufferViews" : [
        {
            "buffer" : 0,
            "byteLength" : 576,
            "byteOffset" : 0
        },
        {
            "buffer" : 0,
            "byteLength" : 576,
            "byteOffset" : 576
        },
        {
            "buffer" : 0,
            "byteLength" : 384,
            "byteOffset" : 1152
        },
        {
            "buffer" : 0,
            "byteLength" : 168,
            "byteOffset" : 1536
        },
        {
            "buffer" : 0,
            "byteLength" : 35884,
            "byteOffset" : 1704
        },
        {
            "buffer" : 0,
            "byteLength" : 288,
            "byteOffset" : 37588
        },
        {
            "buffer" : 0,
            "byteLength" : 288,
            "byteOffset" : 37876
        },
        {
            "buffer" : 0,
            "byteLength" : 192,
            "byteOffset" : 38164
        },
        {
            "buffer" : 0,
            "byteLength" : 72,
            "byteOffset" : 38356
        },
        {
            "buffer" : 0,
            "byteLength" : 39128,
            "byteOffset" : 38428
        },
        {
            "buffer" : 0,
            "byteLength" : 288,
            "byteOffset" : 77556
        },
        {
            "buffer" : 0,
            "byteLength" : 288,
            "byteOffset" : 77844
        },
        {
            "buffer" : 0,
            "byteLength" : 192,
            "byteOffset" : 78132
        },
        {
            "buffer" : 0,
            "byteLength" : 288,
            "byteOffset" : 78324
        },
        {
            "buffer" : 0,
            "byteLength" : 288,
            "byteOffset" : 78612
        },
        {
            "buffer" : 0,
            "byteLength" : 192,
            "byteOffset" : 78900
        },
        {
            "buffer" : 0,
            "byteLength" : 288,
            "byteOffset" : 79092
        },
        {
            "buffer" : 0,
            "byteLength" : 288,
            "byteOffset" : 79380
        },
        {
            "buffer" : 0,
            "byteLength" : 192,
            "byteOffset" : 79668
        },
        {
            "buffer" : 0,
            "byteLength" : 288,
            "byteOffset" : 79860
        },
        {
            "buffer" : 0,
            "byteLength" : 288,
            "byteOffset" : 80148
        },
        {
            "buffer" : 0,
            "byteLength" : 192,
            "byteOffset" : 80436
        },
        {
            "buffer" : 0,
            "byteLength" : 600,
            "byteOffset" : 80628
        },
        {
            "buffer" : 0,
            "byteLength" : 600,
            "byteOffset" : 81228
        },
        {
            "buffer" : 0,
            "byteLength" : 400,
            "byteOffset" : 81828
        },
        {
            "buffer" : 0,
            "byteLength" : 168,
            "byteOffset" : 82228
        },
        {
            "buffer" : 0,
            "byteLength" : 2304,
            "byteOffset" : 82396
        },
        {
            "buffer" : 0,
            "byteLength" : 2304,
            "byteOffset" : 84700
        },
        {
            "buffer" : 0,
            "byteLength" : 1536,
            "byteOffset" : 87004
        },
        {
            "buffer" : 0,
            "byteLength" : 744,
            "byteOffset" : 88540
        },
        {
            "buffer" : 0,
            "byteLength" : 2304,
            "byteOffset" : 89284
        },
        {
            "buffer" : 0,
            "byteLength" : 2304,
            "byteOffset" : 91588
        },
        {
            "buffer" : 0,
            "byteLength" : 1536,
            "byteOffset" : 93892
        },
        {
            "buffer" : 0,
            "byteLength" : 2304,
            "byteOffset" : 95428
        },
        {
            "buffer" : 0,
            "byteLength" : 2304,
            "byteOffset" : 97732
        },
        {
            "buffer" : 0,
            "byteLength" : 1536,
            "byteOffset" : 100036
        },
        {
            "buffer" : 0,
            "byteLength" : 2304,
            "byteOffset" : 101572
        },
        {
            "buffer" : 0,
            "byteLength" : 2304,
            "byteOffset" : 103876
        },
        {
            "buffer" : 0,
            "byteLength" : 1536,
            "byteOffset" : 106180
        }
    ],
    "samplers" : [
        {
            "magFilter" : 9729,
            "minFilter" : 9987
        }
    ],
    "buffers" : [
        {
            "byteLength" : 107716,
            "uri" : "data:application/octet-stream;base64,"
        }
    ]
}
