{
    "asset" : {
        "generator" : "Khronos glTF Blender I/O v1.6.16",
        "version" : "2.0"
    },
    "scene" : 0,
    "scenes" : [
        {
            "name" : "Scene",
            "nodes" : [
                0,
                1,
                2,
                3,
                4,
                5,
                6,
                7,
                8,
                9
            ]
        }
    ],
    "nodes" : [
        {
            "name" : "Camera",
            "rotation" : [
                0.483536034822464,
                0.33687159419059753,
                -0.20870360732078552,
                0.7804827094078064
            ],
            "translation" : [
                7.358891487121582,
                4.958309173583984,
                6.925790786743164
            ]
        },
        {
            "mesh" : 0,
            "name" : "\u7acb\u65b9\u4f53",
            "scale" : [
                1,
                1,
                0.21249563992023468
            ]
        },
        {
            "mesh" : 1,
            "name" : "\u7acb\u65b9\u4f53.002",
            "scale" : [
                1,
                1,
                0.9879581332206726
            ],
            "translation" : [
                0,
                0.22417284548282623,
                -0.008539377711713314
            ]
        },
        {
            "mesh" : 2,
            "name" : "\u7acb\u65b9\u4f53.003",
            "scale" : [
                1,
                1,
                0.9879581332206726
            ],
            "translation" : [
                0.2215513288974762,
                0.22417284548282623,
                -0.008539377711713314
            ]
        },
        {
            "mesh" : 3,
            "name" : "\u7acb\u65b9\u4f53.004",
            "scale" : [
                1,
                1,
                0.9879581332206726
            ],
            "translation" : [
                0.14242586493492126,
                0.22417284548282623,
                -0.008539377711713314
            ]
        },
        {
            "mesh" : 4,
            "name" : "\u7acb\u65b9\u4f53.005",
            "scale" : [
                1,
                1,
                0.9879581332206726
            ],
            "translation" : [
                0.07385045289993286,
                0.22417284548282623,
                -0.008539377711713314
            ]
        },
        {
            "mesh" : 5,
            "name" : "\u7acb\u65b9\u4f53.006",
            "scale" : [
                1,
                1,
                0.9879581332206726
            ],
            "translation" : [
                -0.2215513288974762,
                0.22417284548282623,
                -0.008539377711713314
            ]
        },
        {
            "mesh" : 6,
            "name" : "\u7acb\u65b9\u4f53.007",
            "scale" : [
                1,
                1,
                0.9879581332206726
            ],
            "translation" : [
                -0.0685754120349884,
                0.22417284548282623,
                -0.008539377711713314
            ]
        },
        {
            "mesh" : 7,
            "name" : "\u7acb\u65b9\u4f53.008",
            "scale" : [
                1,
                1,
                0.9879581332206726
            ],
            "translation" : [
                -0.14242586493492126,
                0.22417284548282623,
                -0.008539377711713314
            ]
        },
        {
            "mesh" : 8,
            "name" : "\u7acb\u65b9\u4f53.001",
            "scale" : [
                1,
                1,
                0.21249563992023468
            ],
            "translation" : [
                0,
                0,
                -1.527796745300293
            ]
        }
    ],
    "materials" : [
        {
            "doubleSided" : true,
            "name" : "\u6750\u8d28",
            "pbrMetallicRoughness" : {
                "baseColorFactor" : [
                    0.04528230428695679,
                    0.04528230428695679,
                    0.04528230428695679,
                    1
                ],
                "metallicFactor" : 0
            }
        },
        {
            "doubleSided" : true,
            "name" : "\u6750\u8d28.001",
            "pbrMetallicRoughness" : {
                "baseColorFactor" : [
                    0.22446590662002563,
                    0.07442135363817215,
                    0.017021216452121735,
                    1
                ],
                "metallicFactor" : 0,
                "roughnessFactor" : 0.6619047522544861
            }
        }
    ],
    "meshes" : [
        {
            "name" : "\u7acb\u65b9\u4f53",
            "primitives" : [
                {
                    "attributes" : {
                        "POSITION" : 0,
                        "NORMAL" : 1,
                        "TEXCOORD_0" : 2
                    },
                    "indices" : 3,
                    "material" : 0
                }
            ]
        },
        {
            "name" : "\u7acb\u65b9\u4f53.002",
            "primitives" : [
                {
                    "attributes" : {
                        "POSITION" : 4,
                        "NORMAL" : 5,
                        "TEXCOORD_0" : 6
                    },
                    "indices" : 7,
                    "material" : 1
                }
            ]
        },
        {
            "name" : "\u7acb\u65b9\u4f53.003",
            "primitives" : [
                {
                    "attributes" : {
                        "POSITION" : 8,
                        "NORMAL" : 9,
                        "TEXCOORD_0" : 10
                    },
                    "indices" : 7,
                    "material" : 1
                }
            ]
        },
        {
            "name" : "\u7acb\u65b9\u4f53.004",
            "primitives" : [
                {
                    "attributes" : {
                        "POSITION" : 11,
                        "NORMAL" : 12,
                        "TEXCOORD_0" : 13
                    },
                    "indices" : 7,
                    "material" : 1
                }
            ]
        },
        {
            "name" : "\u7acb\u65b9\u4f53.005",
            "primitives" : [
                {
                    "attributes" : {
                        "POSITION" : 14,
                        "NORMAL" : 15,
                        "TEXCOORD_0" : 16
                    },
                    "indices" : 7,
                    "material" : 1
                }
            ]
        },
        {
            "name" : "\u7acb\u65b9\u4f53.006",
            "primitives" : [
                {
                    "attributes" : {
                        "POSITION" : 17,
                        "NORMAL" : 18,
                        "TEXCOORD_0" : 19
                    },
                    "indices" : 7,
                    "material" : 1
                }
            ]
        },
        {
            "name" : "\u7acb\u65b9\u4f53.007",
            "primitives" : [
                {
                    "attributes" : {
                        "POSITION" : 20,
                        "NORMAL" : 21,
                        "TEXCOORD_0" : 22
                    },
                    "indices" : 7,
                    "material" : 1
                }
            ]
        },
        {
            "name" : "\u7acb\u65b9\u4f53.008",
            "primitives" : [
                {
                    "attributes" : {
                        "POSITION" : 23,
                        "NORMAL" : 24,
                        "TEXCOORD_0" : 25
                    },
                    "indices" : 7,
                    "material" : 1
                }
            ]
        },
        {
            "name" : "\u7acb\u65b9\u4f53.009",
            "primitives" : [
                {
                    "attributes" : {
                        "POSITION" : 26,
                        "NORMAL" : 27,
                        "TEXCOORD_0" : 28
                    },
                    "indices" : 3,
                    "material" : 0
                }
            ]
        }
    ],
    "accessors" : [
        {
            "bufferView" : 0,
            "componentType" : 5126,
            "count" : 24,
            "max" : [
                0.25,
                0.25,
                0.25
            ],
            "min" : [
                -0.25,
                -0.25,
                -0.25
            ],
            "type" : "VEC3"
        },
        {
            "bufferView" : 1,
            "componentType" : 5126,
            "count" : 24,
            "type" : "VEC3"
        },
        {
            "bufferView" : 2,
            "componentType" : 5126,
            "count" : 24,
            "type" : "VEC2"
        },
        {
            "bufferView" : 3,
            "componentType" : 5123,
            "count" : 36,
            "type" : "SCALAR"
        },
        {
            "bufferView" : 4,
            "componentType" : 5126,
            "count" : 32,
            "max" : [
                0.02500000037252903,
                0.02500000037252903,
                0.02500000037252903
            ],
            "min" : [
                -0.02500000037252903,
                -0.02500000037252903,
                -1.524999976158142
            ],
            "type" : "VEC3"
        },
        {
            "bufferView" : 5,
            "componentType" : 5126,
            "count" : 32,
            "type" : "VEC3"
        },
        {
            "bufferView" : 6,
            "componentType" : 5126,
            "count" : 32,
            "type" : "VEC2"
        },
        {
            "bufferView" : 7,
            "componentType" : 5123,
            "count" : 60,
            "type" : "SCALAR"
        },
        {
            "bufferView" : 8,
            "componentType" : 5126,
            "count" : 32,
            "max" : [
                0.02500000037252903,
                0.02500000037252903,
                0.02500000037252903
            ],
            "min" : [
                -0.02500000037252903,
                -0.02500000037252903,
                -1.524999976158142
            ],
            "type" : "VEC3"
        },
        {
            "bufferView" : 9,
            "componentType" : 5126,
            "count" : 32,
            "type" : "VEC3"
        },
        {
            "bufferView" : 10,
            "componentType" : 5126,
            "count" : 32,
            "type" : "VEC2"
        },
        {
            "bufferView" : 11,
            "componentType" : 5126,
            "count" : 32,
            "max" : [
                0.02500000037252903,
                0.02500000037252903,
                0.02500000037252903
            ],
            "min" : [
                -0.02500000037252903,
                -0.02500000037252903,
                -1.524999976158142
            ],
            "type" : "VEC3"
        },
        {
            "bufferView" : 12,
            "componentType" : 5126,
            "count" : 32,
            "type" : "VEC3"
        },
        {
            "bufferView" : 13,
            "componentType" : 5126,
            "count" : 32,
            "type" : "VEC2"
        },
        {
            "bufferView" : 14,
            "componentType" : 5126,
            "count" : 32,
            "max" : [
                0.02500000037252903,
                0.02500000037252903,
                0.02500000037252903
            ],
            "min" : [
                -0.02500000037252903,
                -0.02500000037252903,
                -1.524999976158142
            ],
            "type" : "VEC3"
        },
        {
            "bufferView" : 15,
            "componentType" : 5126,
            "count" : 32,
            "type" : "VEC3"
        },
        {
            "bufferView" : 16,
            "componentType" : 5126,
            "count" : 32,
            "type" : "VEC2"
        },
        {
            "bufferView" : 17,
            "componentType" : 5126,
            "count" : 32,
            "max" : [
                0.02500000037252903,
                0.02500000037252903,
                0.02500000037252903
            ],
            "min" : [
                -0.02500000037252903,
                -0.02500000037252903,
                -1.524999976158142
            ],
            "type" : "VEC3"
        },
        {
            "bufferView" : 18,
            "componentType" : 5126,
            "count" : 32,
            "type" : "VEC3"
        },
        {
            "bufferView" : 19,
            "componentType" : 5126,
            "count" : 32,
            "type" : "VEC2"
        },
        {
            "bufferView" : 20,
            "componentType" : 5126,
            "count" : 32,
            "max" : [
                0.02500000037252903,
                0.02500000037252903,
                0.02500000037252903
            ],
            "min" : [
                -0.02500000037252903,
                -0.02500000037252903,
                -1.524999976158142
            ],
            "type" : "VEC3"
        },
        {
            "bufferView" : 21,
            "componentType" : 5126,
            "count" : 32,
            "type" : "VEC3"
        },
        {
            "bufferView" : 22,
            "componentType" : 5126,
            "count" : 32,
            "type" : "VEC2"
        },
        {
            "bufferView" : 23,
            "componentType" : 5126,
            "count" : 32,
            "max" : [
                0.02500000037252903,
                0.02500000037252903,
                0.02500000037252903
            ],
            "min" : [
                -0.02500000037252903,
                -0.02500000037252903,
                -1.524999976158142
            ],
            "type" : "VEC3"
        },
        {
            "bufferView" : 24,
            "componentType" : 5126,
            "count" : 32,
            "type" : "VEC3"
        },
        {
            "bufferView" : 25,
            "componentType" : 5126,
            "count" : 32,
            "type" : "VEC2"
        },
        {
            "bufferView" : 26,
            "componentType" : 5126,
            "count" : 24,
            "max" : [
                0.25,
                0.25,
                0.25
            ],
            "min" : [
                -0.25,
                -0.25,
                -0.25
            ],
            "type" : "VEC3"
        },
        {
            "bufferView" : 27,
            "componentType" : 5126,
            "count" : 24,
            "type" : "VEC3"
        },
        {
            "bufferView" : 28,
            "componentType" : 5126,
            "count" : 24,
            "type" : "VEC2"
        }
    ],
    "bufferViews" : [
        {
            "buffer" : 0,
            "byteLength" : 288,
            "byteOffset" : 0
        },
        {
            "buffer" : 0,
            "byteLength" : 288,
            "byteOffset" : 288
        },
        {
            "buffer" : 0,
            "byteLength" : 192,
            "byteOffset" : 576
        },
        {
            "buffer" : 0,
            "byteLength" : 72,
            "byteOffset" : 768
        },
        {
            "buffer" : 0,
            "byteLength" : 384,
            "byteOffset" : 840
        },
        {
            "buffer" : 0,
            "byteLength" : 384,
            "byteOffset" : 1224
        },
        {
            "buffer" : 0,
            "byteLength" : 256,
            "byteOffset" : 1608
        },
        {
            "buffer" : 0,
            "byteLength" : 120,
            "byteOffset" : 1864
        },
        {
            "buffer" : 0,
            "byteLength" : 384,
            "byteOffset" : 1984
        },
        {
            "buffer" : 0,
            "byteLength" : 384,
            "byteOffset" : 2368
        },
        {
            "buffer" : 0,
            "byteLength" : 256,
            "byteOffset" : 2752
        },
        {
            "buffer" : 0,
            "byteLength" : 384,
            "byteOffset" : 3008
        },
        {
            "buffer" : 0,
            "byteLength" : 384,
            "byteOffset" : 3392
        },
        {
            "buffer" : 0,
            "byteLength" : 256,
            "byteOffset" : 3776
        },
        {
            "buffer" : 0,
            "byteLength" : 384,
            "byteOffset" : 4032
        },
        {
            "buffer" : 0,
            "byteLength" : 384,
            "byteOffset" : 4416
        },
        {
            "buffer" : 0,
            "byteLength" : 256,
            "byteOffset" : 4800
        },
        {
            "buffer" : 0,
            "byteLength" : 384,
            "byteOffset" : 5056
        },
        {
            "buffer" : 0,
            "byteLength" : 384,
            "byteOffset" : 5440
        },
        {
            "buffer" : 0,
            "byteLength" : 256,
            "byteOffset" : 5824
        },
        {
            "buffer" : 0,
            "byteLength" : 384,
            "byteOffset" : 6080
        },
        {
            "buffer" : 0,
            "byteLength" : 384,
            "byteOffset" : 6464
        },
        {
            "buffer" : 0,
            "byteLength" : 256,
            "byteOffset" : 6848
        },
        {
            "buffer" : 0,
            "byteLength" : 384,
            "byteOffset" : 7104
        },
        {
            "buffer" : 0,
            "byteLength" : 384,
            "byteOffset" : 7488
        },
        {
            "buffer" : 0,
            "byteLength" : 256,
            "byteOffset" : 7872
        },
        {
            "buffer" : 0,
            "byteLength" : 288,
            "byteOffset" : 8128
        },
        {
            "buffer" : 0,
            "byteLength" : 288,
            "byteOffset" : 8416
        },
        {
            "buffer" : 0,
            "byteLength" : 192,
            "byteOffset" : 8704
        }
    ],
    "buffers" : [
        {
            "byteLength" : 8896,
            "uri" : "data:application/octet-stream;base64,"
        }
    ]
}
