{
    "asset" : {
        "generator" : "Khronos glTF Blender I/O v1.6.16",
        "version" : "2.0"
    },
    "scene" : 0,
    "scenes" : [
        {
            "name" : "Scene",
            "nodes" : [
                0,
                1
            ]
        }
    ],
    "nodes" : [
        {
            "name" : "Camera",
            "rotation" : [
                0.483536034822464,
                0.33687159419059753,
                -0.20870360732078552,
                0.7804827094078064
            ],
            "translation" : [
                7.358891487121582,
                4.958309173583984,
                6.925790786743164
            ]
        },
        {
            "mesh" : 0,
            "name" : "\u67f1\u4f53",
            "rotation" : [
                -0.7070747017860413,
                -0.006739798001945019,
                0.006739798001945019,
                0.7070746421813965
            ]
        }
    ],
    "materials" : [
        {
            "doubleSided" : true,
            "name" : "\u6750\u8d28",
            "pbrMetallicRoughness" : {
                "baseColorFactor" : [
                    0.3290156126022339,
                    0,
                    0.0015876954421401024,
                    1
                ],
                "metallicFactor" : 0.16190476715564728,
                "roughnessFactor" : 0.30000001192092896
            }
        }
    ],
    "meshes" : [
        {
            "name" : "\u67f1\u4f53.001",
            "primitives" : [
                {
                    "attributes" : {
                        "POSITION" : 0,
                        "NORMAL" : 1,
                        "TEXCOORD_0" : 2
                    },
                    "indices" : 3,
                    "material" : 0
                }
            ]
        }
    ],
    "accessors" : [
        {
            "bufferView" : 0,
            "componentType" : 5126,
            "count" : 2874,
            "max" : [
                0.800000011920929,
                0.01915440522134304,
                0.800000011920929
            ],
            "min" : [
                -0.800000011920929,
                -0.01915440522134304,
                -0.9569205045700073
            ],
            "type" : "VEC3"
        },
        {
            "bufferView" : 1,
            "componentType" : 5126,
            "count" : 2874,
            "type" : "VEC3"
        },
        {
            "bufferView" : 2,
            "componentType" : 5126,
            "count" : 2874,
            "type" : "VEC2"
        },
        {
            "bufferView" : 3,
            "componentType" : 5123,
            "count" : 4602,
            "type" : "SCALAR"
        }
    ],
    "bufferViews" : [
        {
            "buffer" : 0,
            "byteLength" : 34488,
            "byteOffset" : 0
        },
        {
            "buffer" : 0,
            "byteLength" : 34488,
            "byteOffset" : 34488
        },
        {
            "buffer" : 0,
            "byteLength" : 22992,
            "byteOffset" : 68976
        },
        {
            "buffer" : 0,
            "byteLength" : 9204,
            "byteOffset" : 91968
        }
    ],
    "buffers" : [
        {
            "byteLength" : 101172,
            "uri" : "data:application/octet-stream;base64,"
        }
    ]
}
