{
    "asset" : {
        "generator" : "Khronos glTF Blender I/O v1.6.16",
        "version" : "2.0"
    },
    "scene" : 0,
    "scenes" : [
        {
            "name" : "Scene",
            "nodes" : [
                0,
                1,
                2,
                3,
                4,
                5,
                6,
                7,
                8
            ]
        }
    ],
    "nodes" : [
        {
            "name" : "Light",
            "rotation" : [
                0.16907575726509094,
                0.7558803558349609,
                -0.27217137813568115,
                0.570947527885437
            ],
            "translation" : [
                4.076245307922363,
                5.903861999511719,
                -1.0054539442062378
            ]
        },
        {
            "name" : "Camera",
            "rotation" : [
                0.483536034822464,
                0.33687159419059753,
                -0.20870360732078552,
                0.7804827094078064
            ],
            "translation" : [
                7.358891487121582,
                4.958309173583984,
                6.925790786743164
            ]
        },
        {
            "mesh" : 0,
            "name" : "\u7403\u4f53",
            "rotation" : [
                1,
                0,
                0,
                -1.6292068494294654e-07
            ],
            "scale" : [
                1,
                0.6695449352264404,
                1
            ],
            "translation" : [
                0,
                0,
                0.44120097160339355
            ]
        },
        {
            "mesh" : 1,
            "name" : "\u7403\u4f53.001",
            "rotation" : [
                0,
                -0.9409958124160767,
                0,
                0.338418185710907
            ],
            "scale" : [
                0.4981900751590729,
                0.38569578528404236,
                0.7600818276405334
            ],
            "translation" : [
                -0.7445610165596008,
                -0.33163541555404663,
                2.1271986961364746
            ]
        },
        {
            "mesh" : 2,
            "name" : "\u7acb\u65b9\u4f53",
            "rotation" : [
                0,
                -0.9953306913375854,
                0,
                0.09652353078126907
            ],
            "scale" : [
                0.024632364511489868,
                0.024632364511489868,
                0.024632364511489868
            ],
            "translation" : [
                -0.8195347785949707,
                -0.47942590713500977,
                1.187509298324585
            ]
        },
        {
            "mesh" : 3,
            "name" : "\u7acb\u65b9\u4f53.001",
            "rotation" : [
                0,
                0.7334835529327393,
                0,
                0.6797071695327759
            ],
            "scale" : [
                2.6664557456970215,
                2.6664555072784424,
                2.6664557456970215
            ],
            "translation" : [
                -0.7914212942123413,
                -0.4842822551727295,
                1.299504280090332
            ]
        },
        {
            "mesh" : 4,
            "name" : "\u7acb\u65b9\u4f53.002",
            "rotation" : [
                -0.1259973794221878,
                0.2391161173582077,
                -0.09723784029483795,
                0.9578585028648376
            ],
            "scale" : [
                1.9854410886764526,
                1.985440731048584,
                1.9854408502578735
            ],
            "translation" : [
                -0.16301241517066956,
                -0.49271103739738464,
                -0.5841805934906006
            ]
        },
        {
            "mesh" : 5,
            "name" : "\u7acb\u65b9\u4f53.003",
            "rotation" : [
                -0.07395917922258377,
                -0.8613451719284058,
                0.13130789995193481,
                0.48515254259109497
            ],
            "scale" : [
                1.4953309297561646,
                0.9389436841011047,
                1.4953309297561646
            ],
            "translation" : [
                -0.20161402225494385,
                -0.4987868070602417,
                -0.5802344679832458
            ]
        },
        {
            "mesh" : 6,
            "name" : "\u7acb\u65b9\u4f53.004",
            "rotation" : [
                0.04645051807165146,
                -0.738552987575531,
                0.2234303206205368,
                0.6343979239463806
            ],
            "scale" : [
                1.4953309297561646,
                0.9389436841011047,
                1.4953309297561646
            ],
            "translation" : [
                -0.73298579454422,
                -0.5634993314743042,
                1.2253257036209106
            ]
        }
    ],
    "materials" : [
        {
            "doubleSided" : true,
            "name" : "\u6750\u8d28",
            "pbrMetallicRoughness" : {
                "baseColorFactor" : [
                    0.08353285491466522,
                    0.07862281054258347,
                    0.07650047540664673,
                    1
                ],
                "metallicFactor" : 0,
                "roughnessFactor" : 0.5809524059295654
            }
        },
        {
            "doubleSided" : true,
            "name" : "\u6750\u8d28.001",
            "pbrMetallicRoughness" : {
                "baseColorFactor" : [
                    0.10208182781934738,
                    0.42002779245376587,
                    0.004326061345636845,
                    1
                ],
                "metallicFactor" : 0,
                "roughnessFactor" : 0.7571429014205933
            }
        }
    ],
    "meshes" : [
        {
            "name" : "\u7403\u4f53.001",
            "primitives" : [
                {
                    "attributes" : {
                        "POSITION" : 0,
                        "NORMAL" : 1,
                        "TEXCOORD_0" : 2
                    },
                    "indices" : 3,
                    "material" : 0
                }
            ]
        },
        {
            "name" : "\u7403\u4f53.002",
            "primitives" : [
                {
                    "attributes" : {
                        "POSITION" : 4,
                        "NORMAL" : 5,
                        "TEXCOORD_0" : 6
                    },
                    "indices" : 7,
                    "material" : 0
                }
            ]
        },
        {
            "name" : "\u7acb\u65b9\u4f53.001",
            "primitives" : [
                {
                    "attributes" : {
                        "POSITION" : 8,
                        "NORMAL" : 9,
                        "TEXCOORD_0" : 10
                    },
                    "indices" : 11,
                    "material" : 1
                }
            ]
        },
        {
            "name" : "\u7acb\u65b9\u4f53.002",
            "primitives" : [
                {
                    "attributes" : {
                        "POSITION" : 12,
                        "NORMAL" : 13,
                        "TEXCOORD_0" : 14
                    },
                    "indices" : 15,
                    "material" : 1
                }
            ]
        },
        {
            "name" : "\u7acb\u65b9\u4f53.003",
            "primitives" : [
                {
                    "attributes" : {
                        "POSITION" : 16,
                        "NORMAL" : 17,
                        "TEXCOORD_0" : 18
                    },
                    "indices" : 15,
                    "material" : 1
                }
            ]
        },
        {
            "name" : "\u7acb\u65b9\u4f53.004",
            "primitives" : [
                {
                    "attributes" : {
                        "POSITION" : 19,
                        "NORMAL" : 20,
                        "TEXCOORD_0" : 21
                    },
                    "indices" : 22,
                    "material" : 1
                }
            ]
        },
        {
            "name" : "\u7acb\u65b9\u4f53.005",
            "primitives" : [
                {
                    "attributes" : {
                        "POSITION" : 23,
                        "NORMAL" : 24,
                        "TEXCOORD_0" : 25
                    },
                    "indices" : 22,
                    "material" : 1
                }
            ]
        }
    ],
    "accessors" : [
        {
            "bufferView" : 0,
            "componentType" : 5126,
            "count" : 287,
            "max" : [
                1.17496657371521,
                1.0407990217208862,
                1.177294135093689
            ],
            "min" : [
                -1.0896904468536377,
                -1.0659070014953613,
                -1.5625184774398804
            ],
            "type" : "VEC3"
        },
        {
            "bufferView" : 1,
            "componentType" : 5126,
            "count" : 287,
            "type" : "VEC3"
        },
        {
            "bufferView" : 2,
            "componentType" : 5126,
            "count" : 287,
            "type" : "VEC2"
        },
        {
            "bufferView" : 3,
            "componentType" : 5123,
            "count" : 1440,
            "type" : "SCALAR"
        },
        {
            "bufferView" : 4,
            "componentType" : 5126,
            "count" : 439,
            "max" : [
                1.2630071640014648,
                1.3592618703842163,
                1.0480140447616577
            ],
            "min" : [
                -1.4011667966842651,
                -1.0002065896987915,
                -1.1016945838928223
            ],
            "type" : "VEC3"
        },
        {
            "bufferView" : 5,
            "componentType" : 5126,
            "count" : 439,
            "type" : "VEC3"
        },
        {
            "bufferView" : 6,
            "componentType" : 5126,
            "count" : 439,
            "type" : "VEC2"
        },
        {
            "bufferView" : 7,
            "componentType" : 5123,
            "count" : 2280,
            "type" : "SCALAR"
        },
        {
            "bufferView" : 8,
            "componentType" : 5126,
            "count" : 98,
            "max" : [
                5.311097145080566,
                8.853256225585938,
                13.251898765563965
            ],
            "min" : [
                -1.5590617656707764,
                -3.8699467182159424,
                -1.042202353477478
            ],
            "type" : "VEC3"
        },
        {
            "bufferView" : 9,
            "componentType" : 5126,
            "count" : 98,
            "type" : "VEC3"
        },
        {
            "bufferView" : 10,
            "componentType" : 5126,
            "count" : 98,
            "type" : "VEC2"
        },
        {
            "bufferView" : 11,
            "componentType" : 5123,
            "count" : 468,
            "type" : "SCALAR"
        },
        {
            "bufferView" : 12,
            "componentType" : 5126,
            "count" : 80,
            "max" : [
                0.018703492358326912,
                0.18678848445415497,
                0.018581850454211235
            ],
            "min" : [
                -0.023204151540994644,
                -0.02499999850988388,
                -0.20232929289340973
            ],
            "type" : "VEC3"
        },
        {
            "bufferView" : 13,
            "componentType" : 5126,
            "count" : 80,
            "type" : "VEC3"
        },
        {
            "bufferView" : 14,
            "componentType" : 5126,
            "count" : 80,
            "type" : "VEC2"
        },
        {
            "bufferView" : 15,
            "componentType" : 5123,
            "count" : 372,
            "type" : "SCALAR"
        },
        {
            "bufferView" : 16,
            "componentType" : 5126,
            "count" : 80,
            "max" : [
                0.016876114532351494,
                0.18678848445415497,
                0.016719147562980652
            ],
            "min" : [
                -0.023204151540994644,
                -0.02500000037252903,
                -0.20232929289340973
            ],
            "type" : "VEC3"
        },
        {
            "bufferView" : 17,
            "componentType" : 5126,
            "count" : 80,
            "type" : "VEC3"
        },
        {
            "bufferView" : 18,
            "componentType" : 5126,
            "count" : 80,
            "type" : "VEC2"
        },
        {
            "bufferView" : 19,
            "componentType" : 5126,
            "count" : 98,
            "max" : [
                0.04293033480644226,
                0.7294580340385437,
                0.29215866327285767
            ],
            "min" : [
                -0.02500000037252903,
                -0.02500000037252903,
                -0.03853671997785568
            ],
            "type" : "VEC3"
        },
        {
            "bufferView" : 20,
            "componentType" : 5126,
            "count" : 98,
            "type" : "VEC3"
        },
        {
            "bufferView" : 21,
            "componentType" : 5126,
            "count" : 98,
            "type" : "VEC2"
        },
        {
            "bufferView" : 22,
            "componentType" : 5123,
            "count" : 468,
            "type" : "SCALAR"
        },
        {
            "bufferView" : 23,
            "componentType" : 5126,
            "count" : 98,
            "max" : [
                0.04293033480644226,
                0.7294580340385437,
                0.29215866327285767
            ],
            "min" : [
                -0.02500000037252903,
                -0.02500000037252903,
                -0.03853671997785568
            ],
            "type" : "VEC3"
        },
        {
            "bufferView" : 24,
            "componentType" : 5126,
            "count" : 98,
            "type" : "VEC3"
        },
        {
            "bufferView" : 25,
            "componentType" : 5126,
            "count" : 98,
            "type" : "VEC2"
        }
    ],
    "bufferViews" : [
        {
            "buffer" : 0,
            "byteLength" : 3444,
            "byteOffset" : 0
        },
        {
            "buffer" : 0,
            "byteLength" : 3444,
            "byteOffset" : 3444
        },
        {
            "buffer" : 0,
            "byteLength" : 2296,
            "byteOffset" : 6888
        },
        {
            "buffer" : 0,
            "byteLength" : 2880,
            "byteOffset" : 9184
        },
        {
            "buffer" : 0,
            "byteLength" : 5268,
            "byteOffset" : 12064
        },
        {
            "buffer" : 0,
            "byteLength" : 5268,
            "byteOffset" : 17332
        },
        {
            "buffer" : 0,
            "byteLength" : 3512,
            "byteOffset" : 22600
        },
        {
            "buffer" : 0,
            "byteLength" : 4560,
            "byteOffset" : 26112
        },
        {
            "buffer" : 0,
            "byteLength" : 1176,
            "byteOffset" : 30672
        },
        {
            "buffer" : 0,
            "byteLength" : 1176,
            "byteOffset" : 31848
        },
        {
            "buffer" : 0,
            "byteLength" : 784,
            "byteOffset" : 33024
        },
        {
            "buffer" : 0,
            "byteLength" : 936,
            "byteOffset" : 33808
        },
        {
            "buffer" : 0,
            "byteLength" : 960,
            "byteOffset" : 34744
        },
        {
            "buffer" : 0,
            "byteLength" : 960,
            "byteOffset" : 35704
        },
        {
            "buffer" : 0,
            "byteLength" : 640,
            "byteOffset" : 36664
        },
        {
            "buffer" : 0,
            "byteLength" : 744,
            "byteOffset" : 37304
        },
        {
            "buffer" : 0,
            "byteLength" : 960,
            "byteOffset" : 38048
        },
        {
            "buffer" : 0,
            "byteLength" : 960,
            "byteOffset" : 39008
        },
        {
            "buffer" : 0,
            "byteLength" : 640,
            "byteOffset" : 39968
        },
        {
            "buffer" : 0,
            "byteLength" : 1176,
            "byteOffset" : 40608
        },
        {
            "buffer" : 0,
            "byteLength" : 1176,
            "byteOffset" : 41784
        },
        {
            "buffer" : 0,
            "byteLength" : 784,
            "byteOffset" : 42960
        },
        {
            "buffer" : 0,
            "byteLength" : 936,
            "byteOffset" : 43744
        },
        {
            "buffer" : 0,
            "byteLength" : 1176,
            "byteOffset" : 44680
        },
        {
            "buffer" : 0,
            "byteLength" : 1176,
            "byteOffset" : 45856
        },
        {
            "buffer" : 0,
            "byteLength" : 784,
            "byteOffset" : 47032
        }
    ],
    "buffers" : [
        {
            "byteLength" : 47816,
            "uri" : "data:application/octet-stream;base64,"
        }
    ]
}
