{
    "asset" : {
        "generator" : "Khronos glTF Blender I/O v1.6.16",
        "version" : "2.0"
    },
    "scene" : 0,
    "scenes" : [
        {
            "name" : "Scene",
            "nodes" : [
                0,
                1,
                2,
                3
            ]
        }
    ],
    "nodes" : [
        {
            "mesh" : 0,
            "name" : "\u7acb\u65b9\u4f53"
        },
        {
            "mesh" : 1,
            "name" : "hua",
            "rotation" : [
                0,
                0.5877852439880371,
                0,
                0.80901700258255
            ],
            "scale" : [
                11.504992485046387,
                11.504988670349121,
                11.504992485046387
            ],
            "translation" : [
                -0.5478442907333374,
                0.764105498790741,
                0.23418617248535156
            ]
        },
        {
            "mesh" : 2,
            "name" : "\u7acb\u65b9\u4f53.001",
            "rotation" : [
                0.2428964525461197,
                0.09306302666664124,
                -0.5713028311729431,
                0.7784302830696106
            ],
            "scale" : [
                0.662425696849823,
                0.6290369033813477,
                0.662425696849823
            ],
            "translation" : [
                -0.4678589701652527,
                1.65701162815094,
                -0.019697144627571106
            ]
        },
        {
            "mesh" : 3,
            "name" : "\u7acb\u65b9\u4f53.002",
            "rotation" : [
                0.6645835638046265,
                -0.742038369178772,
                -0.05416586250066757,
                -0.06909273564815521
            ],
            "scale" : [
                0.662425696849823,
                0.6290369033813477,
                0.662425696849823
            ],
            "translation" : [
                0.3948397934436798,
                2.077133893966675,
                -0.05391785502433777
            ]
        }
    ],
    "materials" : [
        {
            "doubleSided" : true,
            "name" : "\u6750\u8d28.001",
            "pbrMetallicRoughness" : {
                "baseColorFactor" : [
                    0.050430670380592346,
                    0.040427546948194504,
                    0.026622122153639793,
                    1
                ],
                "metallicFactor" : 0
            }
        },
        {
            "doubleSided" : true,
            "name" : "\u6750\u8d28",
            "pbrMetallicRoughness" : {
                "baseColorFactor" : [
                    1,
                    0.3573782444000244,
                    0.5795886516571045,
                    1
                ],
                "metallicFactor" : 0,
                "roughnessFactor" : 0.6047618985176086
            }
        }
    ],
    "meshes" : [
        {
            "name" : "\u7acb\u65b9\u4f53",
            "primitives" : [
                {
                    "attributes" : {
                        "POSITION" : 0,
                        "NORMAL" : 1,
                        "TEXCOORD_0" : 2
                    },
                    "indices" : 3,
                    "material" : 0
                }
            ]
        },
        {
            "name" : "\u5e73\u9762.001",
            "primitives" : [
                {
                    "attributes" : {
                        "POSITION" : 4,
                        "NORMAL" : 5,
                        "TEXCOORD_0" : 6
                    },
                    "indices" : 7,
                    "material" : 1
                }
            ]
        },
        {
            "name" : "\u7acb\u65b9\u4f53.001",
            "primitives" : [
                {
                    "attributes" : {
                        "POSITION" : 8,
                        "NORMAL" : 9,
                        "TEXCOORD_0" : 10
                    },
                    "indices" : 11,
                    "material" : 0
                }
            ]
        },
        {
            "name" : "\u7acb\u65b9\u4f53.002",
            "primitives" : [
                {
                    "attributes" : {
                        "POSITION" : 12,
                        "NORMAL" : 13,
                        "TEXCOORD_0" : 14
                    },
                    "indices" : 11,
                    "material" : 0
                }
            ]
        }
    ],
    "accessors" : [
        {
            "bufferView" : 0,
            "componentType" : 5126,
            "count" : 761,
            "max" : [
                0.9979546666145325,
                3.5422396659851074,
                1.565374493598938
            ],
            "min" : [
                -1.5163499116897583,
                -0.15000000596046448,
                -1.8540153503417969
            ],
            "type" : "VEC3"
        },
        {
            "bufferView" : 1,
            "componentType" : 5126,
            "count" : 761,
            "type" : "VEC3"
        },
        {
            "bufferView" : 2,
            "componentType" : 5126,
            "count" : 761,
            "type" : "VEC2"
        },
        {
            "bufferView" : 3,
            "componentType" : 5123,
            "count" : 3660,
            "type" : "SCALAR"
        },
        {
            "bufferView" : 4,
            "componentType" : 5126,
            "count" : 139,
            "max" : [
                0.01063857413828373,
                0.0005565881729125977,
                0.005833206232637167
            ],
            "min" : [
                -0.011670844629406929,
                -0.00015556812286376953,
                -0.015283426269888878
            ],
            "type" : "VEC3"
        },
        {
            "bufferView" : 5,
            "componentType" : 5126,
            "count" : 139,
            "type" : "VEC3"
        },
        {
            "bufferView" : 6,
            "componentType" : 5126,
            "count" : 139,
            "type" : "VEC2"
        },
        {
            "bufferView" : 7,
            "componentType" : 5123,
            "count" : 300,
            "type" : "SCALAR"
        },
        {
            "bufferView" : 8,
            "componentType" : 5126,
            "count" : 730,
            "max" : [
                0.9979546666145325,
                3.5422396659851074,
                1.565374493598938
            ],
            "min" : [
                -1.5163499116897583,
                0.7848836779594421,
                -1.8540153503417969
            ],
            "type" : "VEC3"
        },
        {
            "bufferView" : 9,
            "componentType" : 5126,
            "count" : 730,
            "type" : "VEC3"
        },
        {
            "bufferView" : 10,
            "componentType" : 5126,
            "count" : 730,
            "type" : "VEC2"
        },
        {
            "bufferView" : 11,
            "componentType" : 5123,
            "count" : 3516,
            "type" : "SCALAR"
        },
        {
            "bufferView" : 12,
            "componentType" : 5126,
            "count" : 730,
            "max" : [
                0.9979546666145325,
                3.5422396659851074,
                1.565374493598938
            ],
            "min" : [
                -1.5163499116897583,
                0.7848836779594421,
                -1.8540153503417969
            ],
            "type" : "VEC3"
        },
        {
            "bufferView" : 13,
            "componentType" : 5126,
            "count" : 730,
            "type" : "VEC3"
        },
        {
            "bufferView" : 14,
            "componentType" : 5126,
            "count" : 730,
            "type" : "VEC2"
        }
    ],
    "bufferViews" : [
        {
            "buffer" : 0,
            "byteLength" : 9132,
            "byteOffset" : 0
        },
        {
            "buffer" : 0,
            "byteLength" : 9132,
            "byteOffset" : 9132
        },
        {
            "buffer" : 0,
            "byteLength" : 6088,
            "byteOffset" : 18264
        },
        {
            "buffer" : 0,
            "byteLength" : 7320,
            "byteOffset" : 24352
        },
        {
            "buffer" : 0,
            "byteLength" : 1668,
            "byteOffset" : 31672
        },
        {
            "buffer" : 0,
            "byteLength" : 1668,
            "byteOffset" : 33340
        },
        {
            "buffer" : 0,
            "byteLength" : 1112,
            "byteOffset" : 35008
        },
        {
            "buffer" : 0,
            "byteLength" : 600,
            "byteOffset" : 36120
        },
        {
            "buffer" : 0,
            "byteLength" : 8760,
            "byteOffset" : 36720
        },
        {
            "buffer" : 0,
            "byteLength" : 8760,
            "byteOffset" : 45480
        },
        {
            "buffer" : 0,
            "byteLength" : 5840,
            "byteOffset" : 54240
        },
        {
            "buffer" : 0,
            "byteLength" : 7032,
            "byteOffset" : 60080
        },
        {
            "buffer" : 0,
            "byteLength" : 8760,
            "byteOffset" : 67112
        },
        {
            "buffer" : 0,
            "byteLength" : 8760,
            "byteOffset" : 75872
        },
        {
            "buffer" : 0,
            "byteLength" : 5840,
            "byteOffset" : 84632
        }
    ],
    "buffers" : [
        {
            "byteLength" : 90472,
            "uri" : "data:application/octet-stream;base64,"
        }
    ]
}
