{
    "asset" : {
        "generator" : "Khronos glTF Blender I/O v1.6.16",
        "version" : "2.0"
    },
    "scene" : 0,
    "scenes" : [
        {
            "name" : "Scene",
            "nodes" : [
                0,
                1,
                2,
                3,
                4,
                5
            ]
        }
    ],
    "nodes" : [
        {
            "name" : "Camera",
            "rotation" : [
                0.483536034822464,
                0.33687159419059753,
                -0.20870360732078552,
                0.7804827094078064
            ],
            "translation" : [
                7.358891487121582,
                4.958309173583984,
                6.925790786743164
            ]
        },
        {
            "mesh" : 0,
            "name" : "\u67f1\u4f53",
            "scale" : [
                0.2880043685436249,
                3.3159098625183105,
                0.2781922221183777
            ],
            "translation" : [
                0,
                3.0710103511810303,
                0
            ]
        },
        {
            "mesh" : 1,
            "name" : "\u9525\u4f53",
            "rotation" : [
                0,
                0.2514805793762207,
                0,
                0.9678623676300049
            ],
            "scale" : [
                1.108407735824585,
                0.5930092334747314,
                1
            ],
            "translation" : [
                0,
                2.6205739974975586,
                0
            ]
        },
        {
            "mesh" : 2,
            "name" : "\u9525\u4f53.001",
            "scale" : [
                1.0621731281280518,
                0.602355420589447,
                1.166548490524292
            ],
            "translation" : [
                0,
                3.849470853805542,
                0
            ]
        },
        {
            "mesh" : 3,
            "name" : "\u9525\u4f53.002",
            "scale" : [
                0.5539395809173584,
                0.5373159646987915,
                0.6413320302963257
            ],
            "translation" : [
                0,
                6.187629222869873,
                0
            ]
        },
        {
            "mesh" : 4,
            "name" : "\u9525\u4f53.003",
            "rotation" : [
                0,
                -0.6537808179855347,
                0,
                0.7566839456558228
            ],
            "scale" : [
                0.9686875343322754,
                0.5213607549667358,
                0.8518096804618835
            ],
            "translation" : [
                0,
                5.042396545410156,
                0
            ]
        }
    ],
    "materials" : [
        {
            "doubleSided" : true,
            "name" : "\u6750\u8d28.001",
            "pbrMetallicRoughness" : {
                "baseColorTexture" : {
                    "index" : 0
                },
                "metallicFactor" : 0
            }
        },
        {
            "doubleSided" : true,
            "name" : "\u6750\u8d28",
            "pbrMetallicRoughness" : {
                "baseColorFactor" : [
                    0,
                    0.035906579345464706,
                    0.002261762972921133,
                    1
                ],
                "metallicFactor" : 0
            }
        }
    ],
    "meshes" : [
        {
            "name" : "\u67f1\u4f53",
            "primitives" : [
                {
                    "attributes" : {
                        "POSITION" : 0,
                        "NORMAL" : 1,
                        "TEXCOORD_0" : 2
                    },
                    "indices" : 3,
                    "material" : 0
                }
            ]
        },
        {
            "name" : "\u9525\u4f53",
            "primitives" : [
                {
                    "attributes" : {
                        "POSITION" : 4,
                        "NORMAL" : 5,
                        "TEXCOORD_0" : 6
                    },
                    "indices" : 7,
                    "material" : 1
                }
            ]
        },
        {
            "name" : "\u9525\u4f53.001",
            "primitives" : [
                {
                    "attributes" : {
                        "POSITION" : 8,
                        "NORMAL" : 9,
                        "TEXCOORD_0" : 10
                    },
                    "indices" : 11,
                    "material" : 1
                }
            ]
        },
        {
            "name" : "\u9525\u4f53.002",
            "primitives" : [
                {
                    "attributes" : {
                        "POSITION" : 12,
                        "NORMAL" : 13,
                        "TEXCOORD_0" : 14
                    },
                    "indices" : 15,
                    "material" : 1
                }
            ]
        },
        {
            "name" : "\u9525\u4f53.003",
            "primitives" : [
                {
                    "attributes" : {
                        "POSITION" : 16,
                        "NORMAL" : 17,
                        "TEXCOORD_0" : 18
                    },
                    "indices" : 19,
                    "material" : 1
                }
            ]
        }
    ],
    "textures" : [
        {
            "sampler" : 0,
            "source" : 0
        }
    ],
    "images" : [
        {
            "bufferView" : 4,
            "mimeType" : "image/jpeg",
            "name" : "4"
        }
    ],
    "accessors" : [
        {
            "bufferView" : 0,
            "componentType" : 5126,
            "count" : 46,
            "max" : [
                0.9898214340209961,
                1,
                0.9594930410385132
            ],
            "min" : [
                -0.9898214936256409,
                -1,
                -1
            ],
            "type" : "VEC3"
        },
        {
            "bufferView" : 1,
            "componentType" : 5126,
            "count" : 46,
            "type" : "VEC3"
        },
        {
            "bufferView" : 2,
            "componentType" : 5126,
            "count" : 46,
            "type" : "VEC2"
        },
        {
            "bufferView" : 3,
            "componentType" : 5123,
            "count" : 120,
            "type" : "SCALAR"
        },
        {
            "bufferView" : 5,
            "componentType" : 5126,
            "count" : 65,
            "max" : [
                3.0218429565429688,
                1,
                3.0468316078186035
            ],
            "min" : [
                -3.359001636505127,
                -2.3826851844787598,
                -3.029813766479492
            ],
            "type" : "VEC3"
        },
        {
            "bufferView" : 6,
            "componentType" : 5126,
            "count" : 65,
            "type" : "VEC3"
        },
        {
            "bufferView" : 7,
            "componentType" : 5126,
            "count" : 65,
            "type" : "VEC2"
        },
        {
            "bufferView" : 8,
            "componentType" : 5123,
            "count" : 186,
            "type" : "SCALAR"
        },
        {
            "bufferView" : 9,
            "componentType" : 5126,
            "count" : 128,
            "max" : [
                2.9653611183166504,
                1,
                3.141007423400879
            ],
            "min" : [
                -3.004098892211914,
                -2.336477756500244,
                -3.1450979709625244
            ],
            "type" : "VEC3"
        },
        {
            "bufferView" : 10,
            "componentType" : 5126,
            "count" : 128,
            "type" : "VEC3"
        },
        {
            "bufferView" : 11,
            "componentType" : 5126,
            "count" : 128,
            "type" : "VEC2"
        },
        {
            "bufferView" : 12,
            "componentType" : 5123,
            "count" : 186,
            "type" : "SCALAR"
        },
        {
            "bufferView" : 13,
            "componentType" : 5126,
            "count" : 128,
            "max" : [
                2.9423558712005615,
                1,
                3.403074264526367
            ],
            "min" : [
                -3.481621265411377,
                -2.0512547492980957,
                -3.4289517402648926
            ],
            "type" : "VEC3"
        },
        {
            "bufferView" : 14,
            "componentType" : 5126,
            "count" : 128,
            "type" : "VEC3"
        },
        {
            "bufferView" : 15,
            "componentType" : 5126,
            "count" : 128,
            "type" : "VEC2"
        },
        {
            "bufferView" : 16,
            "componentType" : 5123,
            "count" : 186,
            "type" : "SCALAR"
        },
        {
            "bufferView" : 17,
            "componentType" : 5126,
            "count" : 128,
            "max" : [
                3.1337904930114746,
                1,
                3.499086618423462
            ],
            "min" : [
                -3.3108274936676025,
                -2.5171332359313965,
                -3.8855557441711426
            ],
            "type" : "VEC3"
        },
        {
            "bufferView" : 18,
            "componentType" : 5126,
            "count" : 128,
            "type" : "VEC3"
        },
        {
            "bufferView" : 19,
            "componentType" : 5126,
            "count" : 128,
            "type" : "VEC2"
        },
        {
            "bufferView" : 20,
            "componentType" : 5123,
            "count" : 186,
            "type" : "SCALAR"
        }
    ],
    "bufferViews" : [
        {
            "buffer" : 0,
            "byteLength" : 552,
            "byteOffset" : 0
        },
        {
            "buffer" : 0,
            "byteLength" : 552,
            "byteOffset" : 552
        },
        {
            "buffer" : 0,
            "byteLength" : 368,
            "byteOffset" : 1104
        },
        {
            "buffer" : 0,
            "byteLength" : 240,
            "byteOffset" : 1472
        },
        {
            "buffer" : 0,
            "byteLength" : 25023,
            "byteOffset" : 1712
        },
        {
            "buffer" : 0,
            "byteLength" : 780,
            "byteOffset" : 26736
        },
        {
            "buffer" : 0,
            "byteLength" : 780,
            "byteOffset" : 27516
        },
        {
            "buffer" : 0,
            "byteLength" : 520,
            "byteOffset" : 28296
        },
        {
            "buffer" : 0,
            "byteLength" : 372,
            "byteOffset" : 28816
        },
        {
            "buffer" : 0,
            "byteLength" : 1536,
            "byteOffset" : 29188
        },
        {
            "buffer" : 0,
            "byteLength" : 1536,
            "byteOffset" : 30724
        },
        {
            "buffer" : 0,
            "byteLength" : 1024,
            "byteOffset" : 32260
        },
        {
            "buffer" : 0,
            "byteLength" : 372,
            "byteOffset" : 33284
        },
        {
            "buffer" : 0,
            "byteLength" : 1536,
            "byteOffset" : 33656
        },
        {
            "buffer" : 0,
            "byteLength" : 1536,
            "byteOffset" : 35192
        },
        {
            "buffer" : 0,
            "byteLength" : 1024,
            "byteOffset" : 36728
        },
        {
            "buffer" : 0,
            "byteLength" : 372,
            "byteOffset" : 37752
        },
        {
            "buffer" : 0,
            "byteLength" : 1536,
            "byteOffset" : 38124
        },
        {
            "buffer" : 0,
            "byteLength" : 1536,
            "byteOffset" : 39660
        },
        {
            "buffer" : 0,
            "byteLength" : 1024,
            "byteOffset" : 41196
        },
        {
            "buffer" : 0,
            "byteLength" : 372,
            "byteOffset" : 42220
        }
    ],
    "samplers" : [
        {
            "magFilter" : 9729,
            "minFilter" : 9987
        }
    ],
    "buffers" : [
        {
            "byteLength" : 42592,
            "uri" : "data:application/octet-stream;base64,"
        }
    ]
}
