{
    "asset" : {
        "generator" : "Khronos glTF Blender I/O v1.6.16",
        "version" : "2.0"
    },
    "scene" : 0,
    "scenes" : [
        {
            "name" : "Scene",
            "nodes" : [
                0,
                1,
                2,
                3,
                4
            ]
        }
    ],
    "nodes" : [
        {
            "name" : "Light",
            "rotation" : [
                0.16907575726509094,
                0.7558803558349609,
                -0.27217137813568115,
                0.570947527885437
            ],
            "translation" : [
                4.076245307922363,
                5.903861999511719,
                -1.0054539442062378
            ]
        },
        {
            "name" : "Camera",
            "rotation" : [
                0.483536034822464,
                0.33687159419059753,
                -0.20870360732078552,
                0.7804827094078064
            ],
            "translation" : [
                7.358891487121582,
                4.958309173583984,
                6.925790786743164
            ]
        },
        {
            "mesh" : 0,
            "name" : "\u7acb\u65b9\u4f53",
            "scale" : [
                1.1698442697525024,
                1.5345103740692139,
                1.263749361038208
            ]
        },
        {
            "mesh" : 1,
            "name" : "leaf",
            "rotation" : [
                0,
                0.2896742820739746,
                0,
                0.9571253061294556
            ],
            "scale" : [
                -0.04497510567307472,
                -0.04497509449720383,
                -0.05558926984667778
            ],
            "translation" : [
                -0.9928305149078369,
                0.46052446961402893,
                -3.7835617065429688
            ]
        },
        {
            "mesh" : 2,
            "name" : "\u7acb\u65b9\u4f53.001",
            "rotation" : [
                0.3412115275859833,
                0.27717551589012146,
                0.5663207173347473,
                0.6971580982208252
            ],
            "scale" : [
                0.9901685118675232,
                1.114031434059143,
                1.0696507692337036
            ],
            "translation" : [
                0.702247679233551,
                2.2795932292938232,
                -1.022857666015625
            ]
        }
    ],
    "materials" : [
        {
            "doubleSided" : true,
            "name" : "\u6750\u8d28.001",
            "pbrMetallicRoughness" : {
                "baseColorTexture" : {
                    "index" : 0
                },
                "metallicFactor" : 0,
                "roughnessFactor" : 0.5
            }
        },
        {
            "doubleSided" : true,
            "name" : "\u6750\u8d28",
            "pbrMetallicRoughness" : {
                "baseColorFactor" : [
                    0,
                    0.13286836445331573,
                    0,
                    1
                ],
                "metallicFactor" : 0,
                "roughnessFactor" : 0.5
            }
        }
    ],
    "meshes" : [
        {
            "name" : "\u7acb\u65b9\u4f53",
            "primitives" : [
                {
                    "attributes" : {
                        "POSITION" : 0,
                        "NORMAL" : 1,
                        "TEXCOORD_0" : 2
                    },
                    "indices" : 3,
                    "material" : 0
                }
            ]
        },
        {
            "name" : "\u5e73\u9762",
            "primitives" : [
                {
                    "attributes" : {
                        "POSITION" : 4,
                        "NORMAL" : 5,
                        "TEXCOORD_0" : 6
                    },
                    "indices" : 7,
                    "material" : 1
                }
            ]
        },
        {
            "name" : "\u7acb\u65b9\u4f53.001",
            "primitives" : [
                {
                    "attributes" : {
                        "POSITION" : 8,
                        "NORMAL" : 9,
                        "TEXCOORD_0" : 10
                    },
                    "indices" : 11,
                    "material" : 0
                }
            ]
        }
    ],
    "textures" : [
        {
            "sampler" : 0,
            "source" : 0
        }
    ],
    "images" : [
        {
            "bufferView" : 4,
            "mimeType" : "image/jpeg",
            "name" : "4"
        }
    ],
    "accessors" : [
        {
            "bufferView" : 0,
            "componentType" : 5126,
            "count" : 4120,
            "max" : [
                1.49578058719635,
                3.0804553031921387,
                0.9343356490135193
            ],
            "min" : [
                -1.3418868780136108,
                0.04771411418914795,
                -1.231347680091858
            ],
            "type" : "VEC3"
        },
        {
            "bufferView" : 1,
            "componentType" : 5126,
            "count" : 4120,
            "type" : "VEC3"
        },
        {
            "bufferView" : 2,
            "componentType" : 5126,
            "count" : 4120,
            "type" : "VEC2"
        },
        {
            "bufferView" : 3,
            "componentType" : 5123,
            "count" : 6180,
            "type" : "SCALAR"
        },
        {
            "bufferView" : 5,
            "componentType" : 5126,
            "count" : 277,
            "max" : [
                4.9501824378967285,
                0.6036977171897888,
                2.0703020095825195
            ],
            "min" : [
                -4.666203022003174,
                -1.5473545789718628,
                -5.363377094268799
            ],
            "type" : "VEC3"
        },
        {
            "bufferView" : 6,
            "componentType" : 5126,
            "count" : 277,
            "type" : "VEC3"
        },
        {
            "bufferView" : 7,
            "componentType" : 5126,
            "count" : 277,
            "type" : "VEC2"
        },
        {
            "bufferView" : 8,
            "componentType" : 5123,
            "count" : 504,
            "type" : "SCALAR"
        },
        {
            "bufferView" : 9,
            "componentType" : 5126,
            "count" : 3988,
            "max" : [
                1.49578058719635,
                3.0804553031921387,
                0.9343356490135193
            ],
            "min" : [
                -1.3418868780136108,
                1.122138500213623,
                -1.231347680091858
            ],
            "type" : "VEC3"
        },
        {
            "bufferView" : 10,
            "componentType" : 5126,
            "count" : 3988,
            "type" : "VEC3"
        },
        {
            "bufferView" : 11,
            "componentType" : 5126,
            "count" : 3988,
            "type" : "VEC2"
        },
        {
            "bufferView" : 12,
            "componentType" : 5123,
            "count" : 5988,
            "type" : "SCALAR"
        }
    ],
    "bufferViews" : [
        {
            "buffer" : 0,
            "byteLength" : 49440,
            "byteOffset" : 0
        },
        {
            "buffer" : 0,
            "byteLength" : 49440,
            "byteOffset" : 49440
        },
        {
            "buffer" : 0,
            "byteLength" : 32960,
            "byteOffset" : 98880
        },
        {
            "buffer" : 0,
            "byteLength" : 12360,
            "byteOffset" : 131840
        },
        {
            "buffer" : 0,
            "byteLength" : 25023,
            "byteOffset" : 144200
        },
        {
            "buffer" : 0,
            "byteLength" : 3324,
            "byteOffset" : 169224
        },
        {
            "buffer" : 0,
            "byteLength" : 3324,
            "byteOffset" : 172548
        },
        {
            "buffer" : 0,
            "byteLength" : 2216,
            "byteOffset" : 175872
        },
        {
            "buffer" : 0,
            "byteLength" : 1008,
            "byteOffset" : 178088
        },
        {
            "buffer" : 0,
            "byteLength" : 47856,
            "byteOffset" : 179096
        },
        {
            "buffer" : 0,
            "byteLength" : 47856,
            "byteOffset" : 226952
        },
        {
            "buffer" : 0,
            "byteLength" : 31904,
            "byteOffset" : 274808
        },
        {
            "buffer" : 0,
            "byteLength" : 11976,
            "byteOffset" : 306712
        }
    ],
    "samplers" : [
        {
            "magFilter" : 9729,
            "minFilter" : 9987
        }
    ],
    "buffers" : [
        {
            "byteLength" : 318688,
            "uri" : "data:application/octet-stream;base64,"
        }
    ]
}
