{
    "asset" : {
        "generator" : "Khronos glTF Blender I/O v1.6.16",
        "version" : "2.0"
    },
    "scene" : 0,
    "scenes" : [
        {
            "name" : "Scene",
            "nodes" : [
                0,
                1,
                2,
                3,
                4,
                5,
                6
            ]
        }
    ],
    "nodes" : [
        {
            "mesh" : 0,
            "name" : "top",
            "scale" : [
                0.34845176339149475,
                0.04194572940468788,
                0.6556413173675537
            ],
            "translation" : [
                0,
                1.2187107801437378,
                0
            ]
        },
        {
            "mesh" : 1,
            "name" : "bin",
            "scale" : [
                0.3248021602630615,
                0.44587260484695435,
                0.6471636891365051
            ],
            "translation" : [
                0,
                0.4517907202243805,
                0
            ]
        },
        {
            "mesh" : 2,
            "name" : "\u67f1\u4f53",
            "rotation" : [
                0.6280325651168823,
                -0.775534987449646,
                -0.05467832833528519,
                -0.033628590404987335
            ],
            "scale" : [
                0.01925465278327465,
                0.00394270708784461,
                0.01925465278327465
            ],
            "translation" : [
                -0.35839495062828064,
                0.49603673815727234,
                -0.15715688467025757
            ]
        },
        {
            "mesh" : 3,
            "name" : "\u67f1\u4f53.001",
            "rotation" : [
                0.6261587142944336,
                -0.7751529812812805,
                0.05984960123896599,
                0.059001218527555466
            ],
            "scale" : [
                0.01738615520298481,
                0.003560100682079792,
                0.01738615147769451
            ],
            "translation" : [
                -0.35839495062828064,
                0.49603673815727234,
                0.1468612253665924
            ]
        },
        {
            "mesh" : 4,
            "name" : "blue",
            "scale" : [
                0.3248021602630615,
                0.44587260484695435,
                0.6471636891365051
            ],
            "translation" : [
                0,
                0.4517907202243805,
                0
            ]
        },
        {
            "mesh" : 5,
            "name" : "yellow",
            "scale" : [
                0.3248021602630615,
                0.44587260484695435,
                0.6471636891365051
            ],
            "translation" : [
                0,
                0.4517907202243805,
                0
            ]
        },
        {
            "mesh" : 6,
            "name" : "top.001",
            "rotation" : [
                0,
                1,
                0,
                -1.6292068494294654e-07
            ],
            "scale" : [
                0.34845176339149475,
                0.04194572940468788,
                0.6556413173675537
            ],
            "translation" : [
                0,
                1.2187107801437378,
                0
            ]
        }
    ],
    "materials" : [
        {
            "doubleSided" : true,
            "name" : "Material",
            "pbrMetallicRoughness" : {
                "baseColorFactor" : [
                    0.03594090789556503,
                    0.0031419401057064533,
                    0.0011481482069939375,
                    1
                ],
                "metallicFactor" : 0.44761908054351807,
                "roughnessFactor" : 0.17142857611179352
            }
        },
        {
            "doubleSided" : true,
            "name" : "\u6750\u8d28",
            "pbrMetallicRoughness" : {
                "baseColorFactor" : [
                    0.21198615431785583,
                    0.21198615431785583,
                    0.21198615431785583,
                    1
                ],
                "metallicFactor" : 0.8952381014823914,
                "roughnessFactor" : 0.23333331942558289
            }
        },
        {
            "doubleSided" : true,
            "name" : "\u6750\u8d28.001",
            "pbrMetallicRoughness" : {
                "baseColorFactor" : [
                    0.001960940659046173,
                    0,
                    0.12074487656354904,
                    1
                ],
                "metallicFactor" : 0.2380952388048172,
                "roughnessFactor" : 0.34761905670166016
            }
        },
        {
            "doubleSided" : true,
            "name" : "\u6750\u8d28.002",
            "pbrMetallicRoughness" : {
                "baseColorFactor" : [
                    0.6038274168968201,
                    0.25625354051589966,
                    0.0017713129054754972,
                    1
                ],
                "metallicFactor" : 0.20952381193637848,
                "roughnessFactor" : 0.22380951046943665
            }
        }
    ],
    "meshes" : [
        {
            "name" : "Cube",
            "primitives" : [
                {
                    "attributes" : {
                        "POSITION" : 0,
                        "NORMAL" : 1,
                        "TEXCOORD_0" : 2
                    },
                    "indices" : 3,
                    "material" : 0
                }
            ]
        },
        {
            "name" : "\u7acb\u65b9\u4f53",
            "primitives" : [
                {
                    "attributes" : {
                        "POSITION" : 4,
                        "NORMAL" : 5,
                        "TEXCOORD_0" : 6
                    },
                    "indices" : 7,
                    "material" : 0
                }
            ]
        },
        {
            "name" : "\u67f1\u4f53",
            "primitives" : [
                {
                    "attributes" : {
                        "POSITION" : 8,
                        "NORMAL" : 9,
                        "TEXCOORD_0" : 10
                    },
                    "indices" : 11,
                    "material" : 1
                }
            ]
        },
        {
            "name" : "\u67f1\u4f53.001",
            "primitives" : [
                {
                    "attributes" : {
                        "POSITION" : 12,
                        "NORMAL" : 13,
                        "TEXCOORD_0" : 14
                    },
                    "indices" : 11,
                    "material" : 1
                }
            ]
        },
        {
            "name" : "\u7acb\u65b9\u4f53.001",
            "primitives" : [
                {
                    "attributes" : {
                        "POSITION" : 15,
                        "NORMAL" : 16,
                        "TEXCOORD_0" : 17
                    },
                    "indices" : 18,
                    "material" : 2
                }
            ]
        },
        {
            "name" : "\u7acb\u65b9\u4f53.002",
            "primitives" : [
                {
                    "attributes" : {
                        "POSITION" : 19,
                        "NORMAL" : 20,
                        "TEXCOORD_0" : 21
                    },
                    "indices" : 22,
                    "material" : 3
                }
            ]
        },
        {
            "name" : "Cube.001",
            "primitives" : [
                {
                    "attributes" : {
                        "POSITION" : 23,
                        "NORMAL" : 24,
                        "TEXCOORD_0" : 25
                    },
                    "indices" : 3,
                    "material" : 0
                }
            ]
        }
    ],
    "accessors" : [
        {
            "bufferView" : 0,
            "componentType" : 5126,
            "count" : 339,
            "max" : [
                -0.001776576042175293,
                1,
                1
            ],
            "min" : [
                -1,
                -7.841205596923828,
                -1
            ],
            "type" : "VEC3"
        },
        {
            "bufferView" : 1,
            "componentType" : 5126,
            "count" : 339,
            "type" : "VEC3"
        },
        {
            "bufferView" : 2,
            "componentType" : 5126,
            "count" : 339,
            "type" : "VEC2"
        },
        {
            "bufferView" : 3,
            "componentType" : 5123,
            "count" : 612,
            "type" : "SCALAR"
        },
        {
            "bufferView" : 4,
            "componentType" : 5126,
            "count" : 236,
            "max" : [
                1.0793074369430542,
                1,
                1.0560787916183472
            ],
            "min" : [
                -1.0793074369430542,
                -1,
                -1.0560787916183472
            ],
            "type" : "VEC3"
        },
        {
            "bufferView" : 5,
            "componentType" : 5126,
            "count" : 236,
            "type" : "VEC3"
        },
        {
            "bufferView" : 6,
            "componentType" : 5126,
            "count" : 236,
            "type" : "VEC2"
        },
        {
            "bufferView" : 7,
            "componentType" : 5123,
            "count" : 432,
            "type" : "SCALAR"
        },
        {
            "bufferView" : 8,
            "componentType" : 5126,
            "count" : 296,
            "max" : [
                3.6154074668884277,
                1,
                1
            ],
            "min" : [
                -1,
                -4.091436862945557,
                -1
            ],
            "type" : "VEC3"
        },
        {
            "bufferView" : 9,
            "componentType" : 5126,
            "count" : 296,
            "type" : "VEC3"
        },
        {
            "bufferView" : 10,
            "componentType" : 5126,
            "count" : 296,
            "type" : "VEC2"
        },
        {
            "bufferView" : 11,
            "componentType" : 5123,
            "count" : 1248,
            "type" : "SCALAR"
        },
        {
            "bufferView" : 12,
            "componentType" : 5126,
            "count" : 296,
            "max" : [
                3.6154074668884277,
                1,
                1
            ],
            "min" : [
                -1,
                -4.091436862945557,
                -1
            ],
            "type" : "VEC3"
        },
        {
            "bufferView" : 13,
            "componentType" : 5126,
            "count" : 296,
            "type" : "VEC3"
        },
        {
            "bufferView" : 14,
            "componentType" : 5126,
            "count" : 296,
            "type" : "VEC2"
        },
        {
            "bufferView" : 15,
            "componentType" : 5126,
            "count" : 12,
            "max" : [
                1,
                0.834319531917572,
                -0.15662023425102234
            ],
            "min" : [
                -1,
                -0.7869822382926941,
                -1
            ],
            "type" : "VEC3"
        },
        {
            "bufferView" : 16,
            "componentType" : 5126,
            "count" : 12,
            "type" : "VEC3"
        },
        {
            "bufferView" : 17,
            "componentType" : 5126,
            "count" : 12,
            "type" : "VEC2"
        },
        {
            "bufferView" : 18,
            "componentType" : 5123,
            "count" : 18,
            "type" : "SCALAR"
        },
        {
            "bufferView" : 19,
            "componentType" : 5126,
            "count" : 12,
            "max" : [
                1,
                0.834319531917572,
                1
            ],
            "min" : [
                -1,
                -0.7869822382926941,
                0.1463414579629898
            ],
            "type" : "VEC3"
        },
        {
            "bufferView" : 20,
            "componentType" : 5126,
            "count" : 12,
            "type" : "VEC3"
        },
        {
            "bufferView" : 21,
            "componentType" : 5126,
            "count" : 12,
            "type" : "VEC2"
        },
        {
            "bufferView" : 22,
            "componentType" : 5123,
            "count" : 18,
            "type" : "SCALAR"
        },
        {
            "bufferView" : 23,
            "componentType" : 5126,
            "count" : 339,
            "max" : [
                -0.001776576042175293,
                1,
                1
            ],
            "min" : [
                -1,
                -7.841205596923828,
                -1
            ],
            "type" : "VEC3"
        },
        {
            "bufferView" : 24,
            "componentType" : 5126,
            "count" : 339,
            "type" : "VEC3"
        },
        {
            "bufferView" : 25,
            "componentType" : 5126,
            "count" : 339,
            "type" : "VEC2"
        }
    ],
    "bufferViews" : [
        {
            "buffer" : 0,
            "byteLength" : 4068,
            "byteOffset" : 0
        },
        {
            "buffer" : 0,
            "byteLength" : 4068,
            "byteOffset" : 4068
        },
        {
            "buffer" : 0,
            "byteLength" : 2712,
            "byteOffset" : 8136
        },
        {
            "buffer" : 0,
            "byteLength" : 1224,
            "byteOffset" : 10848
        },
        {
            "buffer" : 0,
            "byteLength" : 2832,
            "byteOffset" : 12072
        },
        {
            "buffer" : 0,
            "byteLength" : 2832,
            "byteOffset" : 14904
        },
        {
            "buffer" : 0,
            "byteLength" : 1888,
            "byteOffset" : 17736
        },
        {
            "buffer" : 0,
            "byteLength" : 864,
            "byteOffset" : 19624
        },
        {
            "buffer" : 0,
            "byteLength" : 3552,
            "byteOffset" : 20488
        },
        {
            "buffer" : 0,
            "byteLength" : 3552,
            "byteOffset" : 24040
        },
        {
            "buffer" : 0,
            "byteLength" : 2368,
            "byteOffset" : 27592
        },
        {
            "buffer" : 0,
            "byteLength" : 2496,
            "byteOffset" : 29960
        },
        {
            "buffer" : 0,
            "byteLength" : 3552,
            "byteOffset" : 32456
        },
        {
            "buffer" : 0,
            "byteLength" : 3552,
            "byteOffset" : 36008
        },
        {
            "buffer" : 0,
            "byteLength" : 2368,
            "byteOffset" : 39560
        },
        {
            "buffer" : 0,
            "byteLength" : 144,
            "byteOffset" : 41928
        },
        {
            "buffer" : 0,
            "byteLength" : 144,
            "byteOffset" : 42072
        },
        {
            "buffer" : 0,
            "byteLength" : 96,
            "byteOffset" : 42216
        },
        {
            "buffer" : 0,
            "byteLength" : 36,
            "byteOffset" : 42312
        },
        {
            "buffer" : 0,
            "byteLength" : 144,
            "byteOffset" : 42348
        },
        {
            "buffer" : 0,
            "byteLength" : 144,
            "byteOffset" : 42492
        },
        {
            "buffer" : 0,
            "byteLength" : 96,
            "byteOffset" : 42636
        },
        {
            "buffer" : 0,
            "byteLength" : 36,
            "byteOffset" : 42732
        },
        {
            "buffer" : 0,
            "byteLength" : 4068,
            "byteOffset" : 42768
        },
        {
            "buffer" : 0,
            "byteLength" : 4068,
            "byteOffset" : 46836
        },
        {
            "buffer" : 0,
            "byteLength" : 2712,
            "byteOffset" : 50904
        }
    ],
    "buffers" : [
        {
            "byteLength" : 53616,
            "uri" : "data:application/octet-stream;base64,"
        }
    ]
}
