{
    "asset" : {
        "generator" : "Khronos glTF Blender I/O v1.6.16",
        "version" : "2.0"
    },
    "scene" : 0,
    "scenes" : [
        {
            "name" : "Scene",
            "nodes" : [
                0,
                1
            ]
        }
    ],
    "nodes" : [
        {
            "mesh" : 0,
            "name" : "Cube",
            "scale" : [
                0.2892490029335022,
                0.34610211849212646,
                0.5514177083969116
            ],
            "translation" : [
                0,
                0.4648778736591339,
                0
            ]
        },
        {
            "mesh" : 1,
            "name" : "green",
            "scale" : [
                0.2892490029335022,
                0.34610211849212646,
                0.5514177083969116
            ],
            "translation" : [
                0,
                0.4648778736591339,
                0
            ]
        }
    ],
    "materials" : [
        {
            "doubleSided" : true,
            "name" : "Material",
            "pbrMetallicRoughness" : {
                "baseColorFactor" : [
                    0.16617052257061005,
                    0.16617052257061005,
                    0.16617052257061005,
                    1
                ],
                "metallicFactor" : 0.9238095283508301,
                "roughnessFactor" : 0.10476189106702805
            }
        },
        {
            "doubleSided" : true,
            "name" : "\u6750\u8d28",
            "pbrMetallicRoughness" : {
                "baseColorFactor" : [
                    0.0008824027027003467,
                    0.005604911595582962,
                    5.202832835493609e-05,
                    1
                ],
                "metallicFactor" : 0.01904761791229248,
                "roughnessFactor" : 0.4047619104385376
            }
        }
    ],
    "meshes" : [
        {
            "name" : "Cube",
            "primitives" : [
                {
                    "attributes" : {
                        "POSITION" : 0,
                        "NORMAL" : 1,
                        "TEXCOORD_0" : 2
                    },
                    "indices" : 3,
                    "material" : 0
                }
            ]
        },
        {
            "name" : "Cube.002",
            "primitives" : [
                {
                    "attributes" : {
                        "POSITION" : 4,
                        "NORMAL" : 5,
                        "TEXCOORD_0" : 6
                    },
                    "indices" : 7,
                    "material" : 1
                }
            ]
        }
    ],
    "accessors" : [
        {
            "bufferView" : 0,
            "componentType" : 5126,
            "count" : 686,
            "max" : [
                1,
                1.9325987100601196,
                1
            ],
            "min" : [
                -1,
                -1.1360039710998535,
                -1
            ],
            "type" : "VEC3"
        },
        {
            "bufferView" : 1,
            "componentType" : 5126,
            "count" : 686,
            "type" : "VEC3"
        },
        {
            "bufferView" : 2,
            "componentType" : 5126,
            "count" : 686,
            "type" : "VEC2"
        },
        {
            "bufferView" : 3,
            "componentType" : 5123,
            "count" : 1416,
            "type" : "SCALAR"
        },
        {
            "bufferView" : 4,
            "componentType" : 5126,
            "count" : 56,
            "max" : [
                0.9612579345703125,
                0.7451053261756897,
                0.876288652420044
            ],
            "min" : [
                -0.9612579345703125,
                -0.7495501637458801,
                -0.8917525410652161
            ],
            "type" : "VEC3"
        },
        {
            "bufferView" : 5,
            "componentType" : 5126,
            "count" : 56,
            "type" : "VEC3"
        },
        {
            "bufferView" : 6,
            "componentType" : 5126,
            "count" : 56,
            "type" : "VEC2"
        },
        {
            "bufferView" : 7,
            "componentType" : 5123,
            "count" : 84,
            "type" : "SCALAR"
        }
    ],
    "bufferViews" : [
        {
            "buffer" : 0,
            "byteLength" : 8232,
            "byteOffset" : 0
        },
        {
            "buffer" : 0,
            "byteLength" : 8232,
            "byteOffset" : 8232
        },
        {
            "buffer" : 0,
            "byteLength" : 5488,
            "byteOffset" : 16464
        },
        {
            "buffer" : 0,
            "byteLength" : 2832,
            "byteOffset" : 21952
        },
        {
            "buffer" : 0,
            "byteLength" : 672,
            "byteOffset" : 24784
        },
        {
            "buffer" : 0,
            "byteLength" : 672,
            "byteOffset" : 25456
        },
        {
            "buffer" : 0,
            "byteLength" : 448,
            "byteOffset" : 26128
        },
        {
            "buffer" : 0,
            "byteLength" : 168,
            "byteOffset" : 26576
        }
    ],
    "buffers" : [
        {
            "byteLength" : 26744,
            "uri" : "data:application/octet-stream;base64,"
        }
    ]
}
