{
    "asset" : {
        "generator" : "Khronos glTF Blender I/O v1.6.16",
        "version" : "2.0"
    },
    "scene" : 0,
    "scenes" : [
        {
            "name" : "Scene",
            "nodes" : [
                0,
                1,
                2,
                3,
                4
            ]
        }
    ],
    "nodes" : [
        {
            "mesh" : 0,
            "name" : "Cube",
            "scale" : [
                0.5764711499214172,
                1.5969815254211426,
                1
            ],
            "translation" : [
                0,
                1.8314546346664429,
                0
            ]
        },
        {
            "mesh" : 1,
            "name" : "\u7acb\u65b9\u4f53",
            "scale" : [
                0.04931390658020973,
                1.5274494886398315,
                0.9403718113899231
            ],
            "translation" : [
                0.611787736415863,
                1.8157328367233276,
                0
            ]
        },
        {
            "mesh" : 2,
            "name" : "\u7acb\u65b9\u4f53.001",
            "rotation" : [
                -0.3144923150539398,
                -0.17495621740818024,
                -0.05909239873290062,
                0.9311246871948242
            ],
            "scale" : [
                0.029394909739494324,
                0.05800449848175049,
                0.06586901843547821
            ],
            "translation" : [
                0.6703971028327942,
                2.41450834274292,
                0.9872179627418518
            ]
        },
        {
            "mesh" : 3,
            "name" : "\u67f1\u4f53",
            "rotation" : [
                -0.35082128643989563,
                -0.1400427222251892,
                -0.06296005845069885,
                0.9237687587738037
            ],
            "scale" : [
                0.009650296531617641,
                -0.043658431619405746,
                0.009650296531617641
            ],
            "translation" : [
                0.6791372299194336,
                2.5087859630584717,
                0.9676138758659363
            ]
        },
        {
            "mesh" : 4,
            "name" : "\u7acb\u65b9\u4f53.002",
            "scale" : [
                0.10416122525930405,
                0.04072890803217888,
                0.010444062761962414
            ],
            "translation" : [
                0.6309064626693726,
                2.5880959033966064,
                1.0067986249923706
            ]
        }
    ],
    "materials" : [
        {
            "doubleSided" : true,
            "name" : "Material",
            "pbrMetallicRoughness" : {
                "baseColorFactor" : [
                    0.0709032341837883,
                    0.09421497583389282,
                    0.0985054299235344,
                    1
                ],
                "metallicFactor" : 0.38235294818878174,
                "roughnessFactor" : 0.40980392694473267
            }
        },
        {
            "doubleSided" : true,
            "name" : "\u6750\u8d28",
            "pbrMetallicRoughness" : {
                "baseColorFactor" : [
                    0.17701753973960876,
                    0.17411622405052185,
                    0.08443986624479294,
                    1
                ],
                "metallicFactor" : 0.4313725531101227,
                "roughnessFactor" : 0.28431373834609985
            }
        },
        {
            "doubleSided" : true,
            "name" : "\u6750\u8d28.001",
            "pbrMetallicRoughness" : {
                "baseColorFactor" : [
                    0.0959102213382721,
                    0.0959102213382721,
                    0.0959102213382721,
                    1
                ],
                "metallicFactor" : 0.5294121503829956,
                "roughnessFactor" : 0.2450980246067047
            }
        }
    ],
    "meshes" : [
        {
            "name" : "Cube",
            "primitives" : [
                {
                    "attributes" : {
                        "POSITION" : 0,
                        "NORMAL" : 1,
                        "TEXCOORD_0" : 2
                    },
                    "indices" : 3,
                    "material" : 0
                }
            ]
        },
        {
            "name" : "\u7acb\u65b9\u4f53",
            "primitives" : [
                {
                    "attributes" : {
                        "POSITION" : 4,
                        "NORMAL" : 5,
                        "TEXCOORD_0" : 6
                    },
                    "indices" : 7,
                    "material" : 0
                }
            ]
        },
        {
            "name" : "\u7acb\u65b9\u4f53.001",
            "primitives" : [
                {
                    "attributes" : {
                        "POSITION" : 8,
                        "NORMAL" : 9,
                        "TEXCOORD_0" : 10
                    },
                    "indices" : 11,
                    "material" : 1
                }
            ]
        },
        {
            "name" : "\u67f1\u4f53",
            "primitives" : [
                {
                    "attributes" : {
                        "POSITION" : 12,
                        "NORMAL" : 13,
                        "TEXCOORD_0" : 14
                    },
                    "indices" : 15,
                    "material" : 2
                }
            ]
        },
        {
            "name" : "\u7acb\u65b9\u4f53.002",
            "primitives" : [
                {
                    "attributes" : {
                        "POSITION" : 16,
                        "NORMAL" : 17,
                        "TEXCOORD_0" : 18
                    },
                    "indices" : 7,
                    "material" : 0
                }
            ]
        }
    ],
    "accessors" : [
        {
            "bufferView" : 0,
            "componentType" : 5126,
            "count" : 108,
            "max" : [
                1.171066403388977,
                1.088642954826355,
                1.1028918027877808
            ],
            "min" : [
                -1.171066403388977,
                -1.0825297832489014,
                -1.1028918027877808
            ],
            "type" : "VEC3"
        },
        {
            "bufferView" : 1,
            "componentType" : 5126,
            "count" : 108,
            "type" : "VEC3"
        },
        {
            "bufferView" : 2,
            "componentType" : 5126,
            "count" : 108,
            "type" : "VEC2"
        },
        {
            "bufferView" : 3,
            "componentType" : 5123,
            "count" : 204,
            "type" : "SCALAR"
        },
        {
            "bufferView" : 4,
            "componentType" : 5126,
            "count" : 24,
            "max" : [
                1,
                1,
                1
            ],
            "min" : [
                -1,
                -1,
                -1
            ],
            "type" : "VEC3"
        },
        {
            "bufferView" : 5,
            "componentType" : 5126,
            "count" : 24,
            "type" : "VEC3"
        },
        {
            "bufferView" : 6,
            "componentType" : 5126,
            "count" : 24,
            "type" : "VEC2"
        },
        {
            "bufferView" : 7,
            "componentType" : 5123,
            "count" : 36,
            "type" : "SCALAR"
        },
        {
            "bufferView" : 8,
            "componentType" : 5126,
            "count" : 56,
            "max" : [
                0.9341436624526978,
                1,
                1
            ],
            "min" : [
                -0.9341439008712769,
                -1,
                -1
            ],
            "type" : "VEC3"
        },
        {
            "bufferView" : 9,
            "componentType" : 5126,
            "count" : 56,
            "type" : "VEC3"
        },
        {
            "bufferView" : 10,
            "componentType" : 5126,
            "count" : 56,
            "type" : "VEC2"
        },
        {
            "bufferView" : 11,
            "componentType" : 5123,
            "count" : 108,
            "type" : "SCALAR"
        },
        {
            "bufferView" : 12,
            "componentType" : 5126,
            "count" : 1344,
            "max" : [
                7.677075386047363,
                1,
                9.47818374633789
            ],
            "min" : [
                -1,
                -1.9308741092681885,
                -1
            ],
            "type" : "VEC3"
        },
        {
            "bufferView" : 13,
            "componentType" : 5126,
            "count" : 1344,
            "type" : "VEC3"
        },
        {
            "bufferView" : 14,
            "componentType" : 5126,
            "count" : 1344,
            "type" : "VEC2"
        },
        {
            "bufferView" : 15,
            "componentType" : 5123,
            "count" : 2100,
            "type" : "SCALAR"
        },
        {
            "bufferView" : 16,
            "componentType" : 5126,
            "count" : 24,
            "max" : [
                1,
                1,
                1
            ],
            "min" : [
                -1,
                -1,
                -1
            ],
            "type" : "VEC3"
        },
        {
            "bufferView" : 17,
            "componentType" : 5126,
            "count" : 24,
            "type" : "VEC3"
        },
        {
            "bufferView" : 18,
            "componentType" : 5126,
            "count" : 24,
            "type" : "VEC2"
        }
    ],
    "bufferViews" : [
        {
            "buffer" : 0,
            "byteLength" : 1296,
            "byteOffset" : 0
        },
        {
            "buffer" : 0,
            "byteLength" : 1296,
            "byteOffset" : 1296
        },
        {
            "buffer" : 0,
            "byteLength" : 864,
            "byteOffset" : 2592
        },
        {
            "buffer" : 0,
            "byteLength" : 408,
            "byteOffset" : 3456
        },
        {
            "buffer" : 0,
            "byteLength" : 288,
            "byteOffset" : 3864
        },
        {
            "buffer" : 0,
            "byteLength" : 288,
            "byteOffset" : 4152
        },
        {
            "buffer" : 0,
            "byteLength" : 192,
            "byteOffset" : 4440
        },
        {
            "buffer" : 0,
            "byteLength" : 72,
            "byteOffset" : 4632
        },
        {
            "buffer" : 0,
            "byteLength" : 672,
            "byteOffset" : 4704
        },
        {
            "buffer" : 0,
            "byteLength" : 672,
            "byteOffset" : 5376
        },
        {
            "buffer" : 0,
            "byteLength" : 448,
            "byteOffset" : 6048
        },
        {
            "buffer" : 0,
            "byteLength" : 216,
            "byteOffset" : 6496
        },
        {
            "buffer" : 0,
            "byteLength" : 16128,
            "byteOffset" : 6712
        },
        {
            "buffer" : 0,
            "byteLength" : 16128,
            "byteOffset" : 22840
        },
        {
            "buffer" : 0,
            "byteLength" : 10752,
            "byteOffset" : 38968
        },
        {
            "buffer" : 0,
            "byteLength" : 4200,
            "byteOffset" : 49720
        },
        {
            "buffer" : 0,
            "byteLength" : 288,
            "byteOffset" : 53920
        },
        {
            "buffer" : 0,
            "byteLength" : 288,
            "byteOffset" : 54208
        },
        {
            "buffer" : 0,
            "byteLength" : 192,
            "byteOffset" : 54496
        }
    ],
    "buffers" : [
        {
            "byteLength" : 54688,
            "uri" : "data:application/octet-stream;base64,"
        }
    ]
}
