{
    "asset" : {
        "generator" : "Khronos glTF Blender I/O v1.6.16",
        "version" : "2.0"
    },
    "scene" : 0,
    "scenes" : [
        {
            "name" : "Scene",
            "nodes" : [
                0,
                1,
                2,
                3,
                4,
                5,
                6,
                7,
                8
            ]
        }
    ],
    "nodes" : [
        {
            "mesh" : 0,
            "name" : "Spiral",
            "rotation" : [
                0.35103458166122437,
                -0.6138197779655457,
                -0.6138197779655457,
                0.35103458166122437
            ]
        },
        {
            "mesh" : 1,
            "name" : "\u67f1\u4f53",
            "rotation" : [
                0.7071068286895752,
                0,
                0,
                0.7071068286895752
            ],
            "scale" : [
                0.09137918055057526,
                9.992780685424805,
                0.09137918055057526
            ],
            "translation" : [
                -0.6306940913200378,
                -1.000435471534729,
                9.873233795166016
            ]
        },
        {
            "mesh" : 2,
            "name" : "\u67f1\u4f53.001",
            "rotation" : [
                0.7071068286895752,
                0,
                0,
                0.7071068286895752
            ],
            "scale" : [
                0.09137918055057526,
                9.992780685424805,
                0.09137918055057526
            ],
            "translation" : [
                0.6270737648010254,
                -1.000435471534729,
                9.873233795166016
            ]
        },
        {
            "mesh" : 3,
            "name" : "\u7acb\u65b9\u4f53",
            "scale" : [
                0.5280557870864868,
                0.048082366585731506,
                0.1840534508228302
            ],
            "translation" : [
                0,
                -0.7446813583374023,
                0
            ]
        },
        {
            "mesh" : 4,
            "name" : "\u67f1\u4f53.002",
            "scale" : [
                0.06546128541231155,
                0.06546128541231155,
                0.06546128541231155
            ],
            "translation" : [
                0.8229061961174011,
                -1.1233727931976318,
                0
            ]
        },
        {
            "mesh" : 5,
            "name" : "\u67f1\u4f53.003",
            "scale" : [
                0.06546128541231155,
                0.06546128541231155,
                0.06546128541231155
            ],
            "translation" : [
                -0.8314322233200073,
                -1.1233727931976318,
                0
            ]
        },
        {
            "mesh" : 6,
            "name" : "\u67f1\u4f53.004",
            "scale" : [
                0.06546128541231155,
                0.06546128541231155,
                0.06546128541231155
            ],
            "translation" : [
                0.8229061961174011,
                -1.1233727931976318,
                19.742507934570312
            ]
        },
        {
            "mesh" : 7,
            "name" : "\u67f1\u4f53.005",
            "scale" : [
                0.06546128541231155,
                0.06546128541231155,
                0.06546128541231155
            ],
            "translation" : [
                -0.8314322233200073,
                -1.1233727931976318,
                19.742507934570312
            ]
        },
        {
            "mesh" : 8,
            "name" : "\u7acb\u65b9\u4f53.001",
            "scale" : [
                0.5280557870864868,
                0.048082366585731506,
                0.1840534508228302
            ],
            "translation" : [
                0,
                -0.7446813583374023,
                19.782014846801758
            ]
        }
    ],
    "materials" : [
        {
            "doubleSided" : true,
            "name" : "\u6750\u8d28",
            "pbrMetallicRoughness" : {
                "baseColorFactor" : [
                    0.2738335430622101,
                    0.2738335430622101,
                    0.2738335430622101,
                    1
                ],
                "metallicFactor" : 0.22857142984867096,
                "roughnessFactor" : 0.5
            }
        },
        {
            "doubleSided" : true,
            "name" : "\u6750\u8d28.001",
            "pbrMetallicRoughness" : {
                "baseColorFactor" : [
                    0.01108776219189167,
                    0.01108776219189167,
                    0.01108776219189167,
                    1
                ],
                "metallicFactor" : 0.8285714387893677,
                "roughnessFactor" : 0.5
            }
        }
    ],
    "meshes" : [
        {
            "name" : "Spiral",
            "primitives" : [
                {
                    "attributes" : {
                        "POSITION" : 0,
                        "NORMAL" : 1,
                        "TEXCOORD_0" : 2
                    },
                    "indices" : 3,
                    "material" : 0
                }
            ]
        },
        {
            "name" : "\u67f1\u4f53",
            "primitives" : [
                {
                    "attributes" : {
                        "POSITION" : 4,
                        "NORMAL" : 5,
                        "TEXCOORD_0" : 6
                    },
                    "indices" : 7,
                    "material" : 0
                }
            ]
        },
        {
            "name" : "\u67f1\u4f53.001",
            "primitives" : [
                {
                    "attributes" : {
                        "POSITION" : 8,
                        "NORMAL" : 9,
                        "TEXCOORD_0" : 10
                    },
                    "indices" : 7,
                    "material" : 0
                }
            ]
        },
        {
            "name" : "\u7acb\u65b9\u4f53",
            "primitives" : [
                {
                    "attributes" : {
                        "POSITION" : 11,
                        "NORMAL" : 12,
                        "TEXCOORD_0" : 13
                    },
                    "indices" : 14,
                    "material" : 0
                }
            ]
        },
        {
            "name" : "\u67f1\u4f53.002",
            "primitives" : [
                {
                    "attributes" : {
                        "POSITION" : 15,
                        "NORMAL" : 16,
                        "TEXCOORD_0" : 17
                    },
                    "indices" : 7,
                    "material" : 1
                }
            ]
        },
        {
            "name" : "\u67f1\u4f53.004",
            "primitives" : [
                {
                    "attributes" : {
                        "POSITION" : 18,
                        "NORMAL" : 19,
                        "TEXCOORD_0" : 20
                    },
                    "indices" : 7,
                    "material" : 1
                }
            ]
        },
        {
            "name" : "\u67f1\u4f53.005",
            "primitives" : [
                {
                    "attributes" : {
                        "POSITION" : 21,
                        "NORMAL" : 22,
                        "TEXCOORD_0" : 23
                    },
                    "indices" : 7,
                    "material" : 1
                }
            ]
        },
        {
            "name" : "\u67f1\u4f53.006",
            "primitives" : [
                {
                    "attributes" : {
                        "POSITION" : 24,
                        "NORMAL" : 25,
                        "TEXCOORD_0" : 26
                    },
                    "indices" : 7,
                    "material" : 1
                }
            ]
        },
        {
            "name" : "\u7acb\u65b9\u4f53.002",
            "primitives" : [
                {
                    "attributes" : {
                        "POSITION" : 27,
                        "NORMAL" : 28,
                        "TEXCOORD_0" : 29
                    },
                    "indices" : 14,
                    "material" : 0
                }
            ]
        }
    ],
    "accessors" : [
        {
            "bufferView" : 0,
            "componentType" : 5126,
            "count" : 61789,
            "max" : [
                1.0999999046325684,
                19.947656631469727,
                1.0999828577041626
            ],
            "min" : [
                -1.0999919176101685,
                -0.09874080121517181,
                -1.0999975204467773
            ],
            "type" : "VEC3"
        },
        {
            "bufferView" : 1,
            "componentType" : 5126,
            "count" : 61789,
            "type" : "VEC3"
        },
        {
            "bufferView" : 2,
            "componentType" : 5126,
            "count" : 61789,
            "type" : "VEC2"
        },
        {
            "bufferView" : 3,
            "componentType" : 5123,
            "count" : 342144,
            "type" : "SCALAR"
        },
        {
            "bufferView" : 4,
            "componentType" : 5126,
            "count" : 192,
            "max" : [
                1,
                1,
                1
            ],
            "min" : [
                -1,
                -1,
                -1
            ],
            "type" : "VEC3"
        },
        {
            "bufferView" : 5,
            "componentType" : 5126,
            "count" : 192,
            "type" : "VEC3"
        },
        {
            "bufferView" : 6,
            "componentType" : 5126,
            "count" : 192,
            "type" : "VEC2"
        },
        {
            "bufferView" : 7,
            "componentType" : 5123,
            "count" : 372,
            "type" : "SCALAR"
        },
        {
            "bufferView" : 8,
            "componentType" : 5126,
            "count" : 192,
            "max" : [
                1,
                1,
                1
            ],
            "min" : [
                -1,
                -1,
                -1
            ],
            "type" : "VEC3"
        },
        {
            "bufferView" : 9,
            "componentType" : 5126,
            "count" : 192,
            "type" : "VEC3"
        },
        {
            "bufferView" : 10,
            "componentType" : 5126,
            "count" : 192,
            "type" : "VEC2"
        },
        {
            "bufferView" : 11,
            "componentType" : 5126,
            "count" : 144,
            "max" : [
                1.8680261373519897,
                1,
                1
            ],
            "min" : [
                -1.8680261373519897,
                -9.346776962280273,
                -1
            ],
            "type" : "VEC3"
        },
        {
            "bufferView" : 12,
            "componentType" : 5126,
            "count" : 144,
            "type" : "VEC3"
        },
        {
            "bufferView" : 13,
            "componentType" : 5126,
            "count" : 144,
            "type" : "VEC2"
        },
        {
            "bufferView" : 14,
            "componentType" : 5123,
            "count" : 300,
            "type" : "SCALAR"
        },
        {
            "bufferView" : 15,
            "componentType" : 5126,
            "count" : 192,
            "max" : [
                1,
                1,
                1
            ],
            "min" : [
                -1,
                -1,
                -1
            ],
            "type" : "VEC3"
        },
        {
            "bufferView" : 16,
            "componentType" : 5126,
            "count" : 192,
            "type" : "VEC3"
        },
        {
            "bufferView" : 17,
            "componentType" : 5126,
            "count" : 192,
            "type" : "VEC2"
        },
        {
            "bufferView" : 18,
            "componentType" : 5126,
            "count" : 192,
            "max" : [
                1,
                1,
                1
            ],
            "min" : [
                -1,
                -1,
                -1
            ],
            "type" : "VEC3"
        },
        {
            "bufferView" : 19,
            "componentType" : 5126,
            "count" : 192,
            "type" : "VEC3"
        },
        {
            "bufferView" : 20,
            "componentType" : 5126,
            "count" : 192,
            "type" : "VEC2"
        },
        {
            "bufferView" : 21,
            "componentType" : 5126,
            "count" : 192,
            "max" : [
                1,
                1,
                1
            ],
            "min" : [
                -1,
                -1,
                -1
            ],
            "type" : "VEC3"
        },
        {
            "bufferView" : 22,
            "componentType" : 5126,
            "count" : 192,
            "type" : "VEC3"
        },
        {
            "bufferView" : 23,
            "componentType" : 5126,
            "count" : 192,
            "type" : "VEC2"
        },
        {
            "bufferView" : 24,
            "componentType" : 5126,
            "count" : 192,
            "max" : [
                1,
                1,
                1
            ],
            "min" : [
                -1,
                -1,
                -1
            ],
            "type" : "VEC3"
        },
        {
            "bufferView" : 25,
            "componentType" : 5126,
            "count" : 192,
            "type" : "VEC3"
        },
        {
            "bufferView" : 26,
            "componentType" : 5126,
            "count" : 192,
            "type" : "VEC2"
        },
        {
            "bufferView" : 27,
            "componentType" : 5126,
            "count" : 144,
            "max" : [
                1.8680261373519897,
                1,
                1
            ],
            "min" : [
                -1.8680261373519897,
                -9.346776962280273,
                -1
            ],
            "type" : "VEC3"
        },
        {
            "bufferView" : 28,
            "componentType" : 5126,
            "count" : 144,
            "type" : "VEC3"
        },
        {
            "bufferView" : 29,
            "componentType" : 5126,
            "count" : 144,
            "type" : "VEC2"
        }
    ],
    "bufferViews" : [
        {
            "buffer" : 0,
            "byteLength" : 741468,
            "byteOffset" : 0
        },
        {
            "buffer" : 0,
            "byteLength" : 741468,
            "byteOffset" : 741468
        },
        {
            "buffer" : 0,
            "byteLength" : 494312,
            "byteOffset" : 1482936
        },
        {
            "buffer" : 0,
            "byteLength" : 684288,
            "byteOffset" : 1977248
        },
        {
            "buffer" : 0,
            "byteLength" : 2304,
            "byteOffset" : 2661536
        },
        {
            "buffer" : 0,
            "byteLength" : 2304,
            "byteOffset" : 2663840
        },
        {
            "buffer" : 0,
            "byteLength" : 1536,
            "byteOffset" : 2666144
        },
        {
            "buffer" : 0,
            "byteLength" : 744,
            "byteOffset" : 2667680
        },
        {
            "buffer" : 0,
            "byteLength" : 2304,
            "byteOffset" : 2668424
        },
        {
            "buffer" : 0,
            "byteLength" : 2304,
            "byteOffset" : 2670728
        },
        {
            "buffer" : 0,
            "byteLength" : 1536,
            "byteOffset" : 2673032
        },
        {
            "buffer" : 0,
            "byteLength" : 1728,
            "byteOffset" : 2674568
        },
        {
            "buffer" : 0,
            "byteLength" : 1728,
            "byteOffset" : 2676296
        },
        {
            "buffer" : 0,
            "byteLength" : 1152,
            "byteOffset" : 2678024
        },
        {
            "buffer" : 0,
            "byteLength" : 600,
            "byteOffset" : 2679176
        },
        {
            "buffer" : 0,
            "byteLength" : 2304,
            "byteOffset" : 2679776
        },
        {
            "buffer" : 0,
            "byteLength" : 2304,
            "byteOffset" : 2682080
        },
        {
            "buffer" : 0,
            "byteLength" : 1536,
            "byteOffset" : 2684384
        },
        {
            "buffer" : 0,
            "byteLength" : 2304,
            "byteOffset" : 2685920
        },
        {
            "buffer" : 0,
            "byteLength" : 2304,
            "byteOffset" : 2688224
        },
        {
            "buffer" : 0,
            "byteLength" : 1536,
            "byteOffset" : 2690528
        },
        {
            "buffer" : 0,
            "byteLength" : 2304,
            "byteOffset" : 2692064
        },
        {
            "buffer" : 0,
            "byteLength" : 2304,
            "byteOffset" : 2694368
        },
        {
            "buffer" : 0,
            "byteLength" : 1536,
            "byteOffset" : 2696672
        },
        {
            "buffer" : 0,
            "byteLength" : 2304,
            "byteOffset" : 2698208
        },
        {
            "buffer" : 0,
            "byteLength" : 2304,
            "byteOffset" : 2700512
        },
        {
            "buffer" : 0,
            "byteLength" : 1536,
            "byteOffset" : 2702816
        },
        {
            "buffer" : 0,
            "byteLength" : 1728,
            "byteOffset" : 2704352
        },
        {
            "buffer" : 0,
            "byteLength" : 1728,
            "byteOffset" : 2706080
        },
        {
            "buffer" : 0,
            "byteLength" : 1152,
            "byteOffset" : 2707808
        }
    ],
    "buffers" : [
        {
            "byteLength" : 2708960,
            "uri" : "data:application/octet-stream;base64,"
        }
    ]
}
