{
    "asset" : {
        "generator" : "Khronos glTF Blender I/O v1.6.16",
        "version" : "2.0"
    },
    "scene" : 0,
    "scenes" : [
        {
            "name" : "Scene",
            "nodes" : [
                0,
                1,
                2
            ]
        }
    ],
    "nodes" : [
        {
            "mesh" : 0,
            "name" : "\u67f1\u4f53",
            "scale" : [
                0.03382929414510727,
                1.014459252357483,
                0.03382929414510727
            ],
            "translation" : [
                0,
                1.0060213804244995,
                0
            ]
        },
        {
            "mesh" : 1,
            "name" : "\u67f1\u4f53.001",
            "rotation" : [
                0.7071068286895752,
                0,
                0,
                0.7071068286895752
            ],
            "scale" : [
                0.2615854740142822,
                0.0072470312006771564,
                0.2615854740142822
            ],
            "translation" : [
                0,
                2.02117657661438,
                -0.03983153775334358
            ]
        },
        {
            "mesh" : 2,
            "name" : "\u67f1\u4f53.002",
            "rotation" : [
                0.7071068286895752,
                0,
                0,
                0.7071068286895752
            ],
            "scale" : [
                0.2615854740142822,
                0.007002351805567741,
                0.2615854740142822
            ],
            "translation" : [
                0,
                2.02117657661438,
                0.0379660502076149
            ]
        }
    ],
    "materials" : [
        {
            "doubleSided" : true,
            "name" : "\u6750\u8d28",
            "pbrMetallicRoughness" : {
                "baseColorTexture" : {
                    "index" : 0
                },
                "roughnessFactor" : 0.3857142925262451
            }
        }
    ],
    "meshes" : [
        {
            "name" : "\u67f1\u4f53",
            "primitives" : [
                {
                    "attributes" : {
                        "POSITION" : 0,
                        "NORMAL" : 1
                    },
                    "indices" : 2,
                    "material" : 0
                }
            ]
        },
        {
            "name" : "\u67f1\u4f53.001",
            "primitives" : [
                {
                    "attributes" : {
                        "POSITION" : 3,
                        "NORMAL" : 4,
                        "TEXCOORD_0" : 5
                    },
                    "indices" : 6,
                    "material" : 0
                }
            ]
        },
        {
            "name" : "\u67f1\u4f53.002",
            "primitives" : [
                {
                    "attributes" : {
                        "POSITION" : 7,
                        "NORMAL" : 8,
                        "TEXCOORD_0" : 9
                    },
                    "indices" : 10,
                    "material" : 0
                }
            ]
        }
    ],
    "textures" : [
        {
            "sampler" : 0,
            "source" : 0
        }
    ],
    "images" : [
        {
            "bufferView" : 3,
            "mimeType" : "image/jpeg",
            "name" : "1"
        }
    ],
    "accessors" : [
        {
            "bufferView" : 0,
            "componentType" : 5126,
            "count" : 64,
            "max" : [
                1,
                1,
                1
            ],
            "min" : [
                -1,
                -1,
                -1
            ],
            "type" : "VEC3"
        },
        {
            "bufferView" : 1,
            "componentType" : 5126,
            "count" : 64,
            "type" : "VEC3"
        },
        {
            "bufferView" : 2,
            "componentType" : 5123,
            "count" : 372,
            "type" : "SCALAR"
        },
        {
            "bufferView" : 4,
            "componentType" : 5126,
            "count" : 96,
            "max" : [
                1,
                1,
                1
            ],
            "min" : [
                -1,
                -1,
                -1
            ],
            "type" : "VEC3"
        },
        {
            "bufferView" : 5,
            "componentType" : 5126,
            "count" : 96,
            "type" : "VEC3"
        },
        {
            "bufferView" : 6,
            "componentType" : 5126,
            "count" : 96,
            "type" : "VEC2"
        },
        {
            "bufferView" : 7,
            "componentType" : 5123,
            "count" : 372,
            "type" : "SCALAR"
        },
        {
            "bufferView" : 8,
            "componentType" : 5126,
            "count" : 96,
            "max" : [
                1,
                1,
                1
            ],
            "min" : [
                -1,
                -1,
                -1
            ],
            "type" : "VEC3"
        },
        {
            "bufferView" : 9,
            "componentType" : 5126,
            "count" : 96,
            "type" : "VEC3"
        },
        {
            "bufferView" : 10,
            "componentType" : 5126,
            "count" : 96,
            "type" : "VEC2"
        },
        {
            "bufferView" : 11,
            "componentType" : 5123,
            "count" : 372,
            "type" : "SCALAR"
        }
    ],
    "bufferViews" : [
        {
            "buffer" : 0,
            "byteLength" : 768,
            "byteOffset" : 0
        },
        {
            "buffer" : 0,
            "byteLength" : 768,
            "byteOffset" : 768
        },
        {
            "buffer" : 0,
            "byteLength" : 744,
            "byteOffset" : 1536
        },
        {
            "buffer" : 0,
            "byteLength" : 28951,
            "byteOffset" : 2280
        },
        {
            "buffer" : 0,
            "byteLength" : 1152,
            "byteOffset" : 31232
        },
        {
            "buffer" : 0,
            "byteLength" : 1152,
            "byteOffset" : 32384
        },
        {
            "buffer" : 0,
            "byteLength" : 768,
            "byteOffset" : 33536
        },
        {
            "buffer" : 0,
            "byteLength" : 744,
            "byteOffset" : 34304
        },
        {
            "buffer" : 0,
            "byteLength" : 1152,
            "byteOffset" : 35048
        },
        {
            "buffer" : 0,
            "byteLength" : 1152,
            "byteOffset" : 36200
        },
        {
            "buffer" : 0,
            "byteLength" : 768,
            "byteOffset" : 37352
        },
        {
            "buffer" : 0,
            "byteLength" : 744,
            "byteOffset" : 38120
        }
    ],
    "samplers" : [
        {
            "magFilter" : 9729,
            "minFilter" : 9987
        }
    ],
    "buffers" : [
        {
            "byteLength" : 38864,
            "uri" : "data:application/octet-stream;base64,"
        }
    ]
}
