{
    "asset" : {
        "generator" : "Khronos glTF Blender I/O v1.6.16",
        "version" : "2.0"
    },
    "scene" : 0,
    "scenes" : [
        {
            "name" : "Scene",
            "nodes" : [
                0,
                1,
                2,
                3,
                4,
                5
            ]
        }
    ],
    "nodes" : [
        {
            "mesh" : 0,
            "name" : "Cube",
            "scale" : [
                0.019131382927298546,
                0.09732582420110703,
                0.447645902633667
            ],
            "translation" : [
                0,
                1.8686094284057617,
                0
            ]
        },
        {
            "mesh" : 1,
            "name" : "\u67f1\u4f53",
            "scale" : [
                1.5228468179702759,
                0.829635739326477,
                1.5123814344406128
            ],
            "translation" : [
                0,
                0.8591873645782471,
                0
            ]
        },
        {
            "mesh" : 2,
            "name" : "\u67f1\u4f53.001",
            "rotation" : [
                -0.4085077941417694,
                0,
                0,
                0.9127548336982727
            ],
            "scale" : [
                1,
                0.23190194368362427,
                1
            ],
            "translation" : [
                0,
                1.7374149560928345,
                -0.1797531098127365
            ]
        },
        {
            "mesh" : 3,
            "name" : "\u67f1\u4f53.002",
            "rotation" : [
                0.4098513126373291,
                0,
                0,
                0.9121523499488831
            ],
            "scale" : [
                1,
                0.23190194368362427,
                1
            ],
            "translation" : [
                0,
                1.7374149560928345,
                0.17907381057739258
            ]
        },
        {
            "mesh" : 4,
            "name" : "\u68f1\u89d2\u7403",
            "scale" : [
                1.2146189212799072,
                1.2146189212799072,
                1.2146189212799072
            ],
            "translation" : [
                0,
                1.7011617422103882,
                0
            ]
        },
        {
            "mesh" : 5,
            "name" : "green",
            "scale" : [
                0.019131382927298546,
                0.09732582420110703,
                0.447645902633667
            ],
            "translation" : [
                0,
                1.8686094284057617,
                0
            ]
        }
    ],
    "materials" : [
        {
            "doubleSided" : true,
            "name" : "\u6750\u8d28",
            "pbrMetallicRoughness" : {
                "baseColorFactor" : [
                    0.18447144329547882,
                    0.18447144329547882,
                    0.18447144329547882,
                    1
                ],
                "metallicFactor" : 0.8380952477455139,
                "roughnessFactor" : 0.27142855525016785
            }
        },
        {
            "doubleSided" : true,
            "name" : "\u6750\u8d28.001",
            "pbrMetallicRoughness" : {
                "baseColorFactor" : [
                    0,
                    0.04696255922317505,
                    0.004401444923132658,
                    1
                ],
                "metallicFactor" : 0.08571428805589676,
                "roughnessFactor" : 0.22380951046943665
            }
        }
    ],
    "meshes" : [
        {
            "name" : "Cube",
            "primitives" : [
                {
                    "attributes" : {
                        "POSITION" : 0,
                        "NORMAL" : 1,
                        "TEXCOORD_0" : 2
                    },
                    "indices" : 3,
                    "material" : 0
                }
            ]
        },
        {
            "name" : "\u67f1\u4f53",
            "primitives" : [
                {
                    "attributes" : {
                        "POSITION" : 4,
                        "NORMAL" : 5,
                        "TEXCOORD_0" : 6
                    },
                    "indices" : 7,
                    "material" : 0
                }
            ]
        },
        {
            "name" : "\u67f1\u4f53.001",
            "primitives" : [
                {
                    "attributes" : {
                        "POSITION" : 8,
                        "NORMAL" : 9,
                        "TEXCOORD_0" : 10
                    },
                    "indices" : 7,
                    "material" : 0
                }
            ]
        },
        {
            "name" : "\u67f1\u4f53.002",
            "primitives" : [
                {
                    "attributes" : {
                        "POSITION" : 11,
                        "NORMAL" : 12,
                        "TEXCOORD_0" : 13
                    },
                    "indices" : 7,
                    "material" : 0
                }
            ]
        },
        {
            "name" : "\u68f1\u89d2\u7403",
            "primitives" : [
                {
                    "attributes" : {
                        "POSITION" : 14,
                        "NORMAL" : 15,
                        "TEXCOORD_0" : 16
                    },
                    "indices" : 17,
                    "material" : 0
                }
            ]
        },
        {
            "name" : "Cube.001",
            "primitives" : [
                {
                    "attributes" : {
                        "POSITION" : 18,
                        "NORMAL" : 19,
                        "TEXCOORD_0" : 20
                    },
                    "indices" : 21,
                    "material" : 1
                }
            ]
        }
    ],
    "accessors" : [
        {
            "bufferView" : 0,
            "componentType" : 5126,
            "count" : 79,
            "max" : [
                1,
                1,
                1
            ],
            "min" : [
                -1,
                -1,
                -1
            ],
            "type" : "VEC3"
        },
        {
            "bufferView" : 1,
            "componentType" : 5126,
            "count" : 79,
            "type" : "VEC3"
        },
        {
            "bufferView" : 2,
            "componentType" : 5126,
            "count" : 79,
            "type" : "VEC2"
        },
        {
            "bufferView" : 3,
            "componentType" : 5123,
            "count" : 336,
            "type" : "SCALAR"
        },
        {
            "bufferView" : 4,
            "componentType" : 5126,
            "count" : 130,
            "max" : [
                0.009999999776482582,
                1,
                0.009999999776482582
            ],
            "min" : [
                -0.009999999776482582,
                -1,
                -0.009999999776482582
            ],
            "type" : "VEC3"
        },
        {
            "bufferView" : 5,
            "componentType" : 5126,
            "count" : 130,
            "type" : "VEC3"
        },
        {
            "bufferView" : 6,
            "componentType" : 5126,
            "count" : 130,
            "type" : "VEC2"
        },
        {
            "bufferView" : 7,
            "componentType" : 5123,
            "count" : 372,
            "type" : "SCALAR"
        },
        {
            "bufferView" : 8,
            "componentType" : 5126,
            "count" : 130,
            "max" : [
                0.009999999776482582,
                1,
                0.009999999776482582
            ],
            "min" : [
                -0.009999999776482582,
                -1,
                -0.009999999776482582
            ],
            "type" : "VEC3"
        },
        {
            "bufferView" : 9,
            "componentType" : 5126,
            "count" : 130,
            "type" : "VEC3"
        },
        {
            "bufferView" : 10,
            "componentType" : 5126,
            "count" : 130,
            "type" : "VEC2"
        },
        {
            "bufferView" : 11,
            "componentType" : 5126,
            "count" : 130,
            "max" : [
                0.009999999776482582,
                1,
                0.009999999776482582
            ],
            "min" : [
                -0.009999999776482582,
                -1,
                -0.009999999776482582
            ],
            "type" : "VEC3"
        },
        {
            "bufferView" : 12,
            "componentType" : 5126,
            "count" : 130,
            "type" : "VEC3"
        },
        {
            "bufferView" : 13,
            "componentType" : 5126,
            "count" : 130,
            "type" : "VEC2"
        },
        {
            "bufferView" : 14,
            "componentType" : 5126,
            "count" : 63,
            "max" : [
                0.019021160900592804,
                0.019999999552965164,
                0.019999999552965164
            ],
            "min" : [
                -0.019021160900592804,
                -0.019999999552965164,
                -0.019999999552965164
            ],
            "type" : "VEC3"
        },
        {
            "bufferView" : 15,
            "componentType" : 5126,
            "count" : 63,
            "type" : "VEC3"
        },
        {
            "bufferView" : 16,
            "componentType" : 5126,
            "count" : 63,
            "type" : "VEC2"
        },
        {
            "bufferView" : 17,
            "componentType" : 5123,
            "count" : 240,
            "type" : "SCALAR"
        },
        {
            "bufferView" : 18,
            "componentType" : 5126,
            "count" : 18,
            "max" : [
                0.5786610245704651,
                0.8530558943748474,
                0.9545178413391113
            ],
            "min" : [
                -0.5276927351951599,
                -0.8530558943748474,
                -0.9545178413391113
            ],
            "type" : "VEC3"
        },
        {
            "bufferView" : 19,
            "componentType" : 5126,
            "count" : 18,
            "type" : "VEC3"
        },
        {
            "bufferView" : 20,
            "componentType" : 5126,
            "count" : 18,
            "type" : "VEC2"
        },
        {
            "bufferView" : 21,
            "componentType" : 5123,
            "count" : 48,
            "type" : "SCALAR"
        }
    ],
    "bufferViews" : [
        {
            "buffer" : 0,
            "byteLength" : 948,
            "byteOffset" : 0
        },
        {
            "buffer" : 0,
            "byteLength" : 948,
            "byteOffset" : 948
        },
        {
            "buffer" : 0,
            "byteLength" : 632,
            "byteOffset" : 1896
        },
        {
            "buffer" : 0,
            "byteLength" : 672,
            "byteOffset" : 2528
        },
        {
            "buffer" : 0,
            "byteLength" : 1560,
            "byteOffset" : 3200
        },
        {
            "buffer" : 0,
            "byteLength" : 1560,
            "byteOffset" : 4760
        },
        {
            "buffer" : 0,
            "byteLength" : 1040,
            "byteOffset" : 6320
        },
        {
            "buffer" : 0,
            "byteLength" : 744,
            "byteOffset" : 7360
        },
        {
            "buffer" : 0,
            "byteLength" : 1560,
            "byteOffset" : 8104
        },
        {
            "buffer" : 0,
            "byteLength" : 1560,
            "byteOffset" : 9664
        },
        {
            "buffer" : 0,
            "byteLength" : 1040,
            "byteOffset" : 11224
        },
        {
            "buffer" : 0,
            "byteLength" : 1560,
            "byteOffset" : 12264
        },
        {
            "buffer" : 0,
            "byteLength" : 1560,
            "byteOffset" : 13824
        },
        {
            "buffer" : 0,
            "byteLength" : 1040,
            "byteOffset" : 15384
        },
        {
            "buffer" : 0,
            "byteLength" : 756,
            "byteOffset" : 16424
        },
        {
            "buffer" : 0,
            "byteLength" : 756,
            "byteOffset" : 17180
        },
        {
            "buffer" : 0,
            "byteLength" : 504,
            "byteOffset" : 17936
        },
        {
            "buffer" : 0,
            "byteLength" : 480,
            "byteOffset" : 18440
        },
        {
            "buffer" : 0,
            "byteLength" : 216,
            "byteOffset" : 18920
        },
        {
            "buffer" : 0,
            "byteLength" : 216,
            "byteOffset" : 19136
        },
        {
            "buffer" : 0,
            "byteLength" : 144,
            "byteOffset" : 19352
        },
        {
            "buffer" : 0,
            "byteLength" : 96,
            "byteOffset" : 19496
        }
    ],
    "buffers" : [
        {
            "byteLength" : 19592,
            "uri" : "data:application/octet-stream;base64,"
        }
    ]
}
