{
    "asset" : {
        "generator" : "Khronos glTF Blender I/O v1.6.16",
        "version" : "2.0"
    },
    "scene" : 0,
    "scenes" : [
        {
            "name" : "Scene",
            "nodes" : [
                0,
                1,
                2
            ]
        }
    ],
    "nodes" : [
        {
            "mesh" : 0,
            "name" : "\u67f1\u4f53",
            "scale" : [
                1.3957164287567139,
                0.16394123435020447,
                1.3957164287567139
            ]
        },
        {
            "mesh" : 1,
            "name" : "\u67f1\u4f53.001",
            "scale" : [
                1.3957164287567139,
                0.16394123435020447,
                1.3957164287567139
            ]
        },
        {
            "mesh" : 2,
            "name" : "\u67f1\u4f53.002",
            "rotation" : [
                0,
                0,
                -0.7071067690849304,
                0.7071068286895752
            ],
            "scale" : [
                0.3132214844226837,
                0.12185164541006088,
                0.3132214844226837
            ],
            "translation" : [
                0,
                5.4124369621276855,
                0
            ]
        }
    ],
    "materials" : [
        {
            "doubleSided" : true,
            "name" : "\u6750\u8d28.001",
            "pbrMetallicRoughness" : {
                "baseColorFactor" : [
                    0.23301701247692108,
                    0,
                    0.0004744691832456738,
                    1
                ],
                "metallicFactor" : 0,
                "roughnessFactor" : 0.5
            }
        },
        {
            "doubleSided" : true,
            "name" : "\u6750\u8d28",
            "pbrMetallicRoughness" : {
                "baseColorFactor" : [
                    0.36162900924682617,
                    0.36162900924682617,
                    0.36162900924682617,
                    1
                ],
                "metallicFactor" : 0,
                "roughnessFactor" : 0.5
            }
        }
    ],
    "meshes" : [
        {
            "name" : "\u67f1\u4f53",
            "primitives" : [
                {
                    "attributes" : {
                        "POSITION" : 0,
                        "NORMAL" : 1,
                        "TEXCOORD_0" : 2
                    },
                    "indices" : 3,
                    "material" : 0
                }
            ]
        },
        {
            "name" : "\u67f1\u4f53.001",
            "primitives" : [
                {
                    "attributes" : {
                        "POSITION" : 4,
                        "NORMAL" : 5,
                        "TEXCOORD_0" : 6
                    },
                    "indices" : 7,
                    "material" : 1
                }
            ]
        },
        {
            "name" : "\u67f1\u4f53.002",
            "primitives" : [
                {
                    "attributes" : {
                        "POSITION" : 8,
                        "NORMAL" : 9,
                        "TEXCOORD_0" : 10
                    },
                    "indices" : 11,
                    "material" : 0
                }
            ]
        }
    ],
    "accessors" : [
        {
            "bufferView" : 0,
            "componentType" : 5126,
            "count" : 1556,
            "max" : [
                1.0646178722381592,
                31.872161865234375,
                1.0598284006118774
            ],
            "min" : [
                -1.0777404308319092,
                -1.2314485311508179,
                -1.045589804649353
            ],
            "type" : "VEC3"
        },
        {
            "bufferView" : 1,
            "componentType" : 5126,
            "count" : 1556,
            "type" : "VEC3"
        },
        {
            "bufferView" : 2,
            "componentType" : 5126,
            "count" : 1556,
            "type" : "VEC2"
        },
        {
            "bufferView" : 3,
            "componentType" : 5123,
            "count" : 2484,
            "type" : "SCALAR"
        },
        {
            "bufferView" : 4,
            "componentType" : 5126,
            "count" : 128,
            "max" : [
                0.5786158442497253,
                20.82929801940918,
                0.5786158442497253
            ],
            "min" : [
                -0.5786158442497253,
                14.095961570739746,
                -0.5786158442497253
            ],
            "type" : "VEC3"
        },
        {
            "bufferView" : 5,
            "componentType" : 5126,
            "count" : 128,
            "type" : "VEC3"
        },
        {
            "bufferView" : 6,
            "componentType" : 5126,
            "count" : 128,
            "type" : "VEC2"
        },
        {
            "bufferView" : 7,
            "componentType" : 5123,
            "count" : 192,
            "type" : "SCALAR"
        },
        {
            "bufferView" : 8,
            "componentType" : 5126,
            "count" : 944,
            "max" : [
                1.0796959400177002,
                1,
                1.0796959400177002
            ],
            "min" : [
                -1.0796959400177002,
                -1,
                -1.0796959400177002
            ],
            "type" : "VEC3"
        },
        {
            "bufferView" : 9,
            "componentType" : 5126,
            "count" : 944,
            "type" : "VEC3"
        },
        {
            "bufferView" : 10,
            "componentType" : 5126,
            "count" : 944,
            "type" : "VEC2"
        },
        {
            "bufferView" : 11,
            "componentType" : 5123,
            "count" : 1728,
            "type" : "SCALAR"
        }
    ],
    "bufferViews" : [
        {
            "buffer" : 0,
            "byteLength" : 18672,
            "byteOffset" : 0
        },
        {
            "buffer" : 0,
            "byteLength" : 18672,
            "byteOffset" : 18672
        },
        {
            "buffer" : 0,
            "byteLength" : 12448,
            "byteOffset" : 37344
        },
        {
            "buffer" : 0,
            "byteLength" : 4968,
            "byteOffset" : 49792
        },
        {
            "buffer" : 0,
            "byteLength" : 1536,
            "byteOffset" : 54760
        },
        {
            "buffer" : 0,
            "byteLength" : 1536,
            "byteOffset" : 56296
        },
        {
            "buffer" : 0,
            "byteLength" : 1024,
            "byteOffset" : 57832
        },
        {
            "buffer" : 0,
            "byteLength" : 384,
            "byteOffset" : 58856
        },
        {
            "buffer" : 0,
            "byteLength" : 11328,
            "byteOffset" : 59240
        },
        {
            "buffer" : 0,
            "byteLength" : 11328,
            "byteOffset" : 70568
        },
        {
            "buffer" : 0,
            "byteLength" : 7552,
            "byteOffset" : 81896
        },
        {
            "buffer" : 0,
            "byteLength" : 3456,
            "byteOffset" : 89448
        }
    ],
    "buffers" : [
        {
            "byteLength" : 92904,
            "uri" : "data:application/octet-stream;base64,"
        }
    ]
}
